<?xml version="1.0" encoding="UTF-8"?>
<svg width="3029px" height="234px" viewBox="0 0 3029 234" version="1.1" xmlns="http://www.w3.org/2000/svg" xmlns:xlink="http://www.w3.org/1999/xlink">
    <title>lights</title>
    <g id="Page-4" stroke="none" stroke-width="1" fill="none" fill-rule="evenodd">
        <g id="lights" transform="translate(0.500000, 0.000000)">
            <g id="Group">
                <path d="M0,6.5 C151.333333,104.833333 318,154 500,154 C682,154 853.666667,104.833333 1015,6.5 L1010,0 C846,96.3333333 676,144.5 500,144.5 C324,144.5 158.833333,96.6666667 4.5,1 L0,6.5 Z" id="Path-7" fill="#555555"></path>
                <circle id="Oval" fill="#555555" cx="67" cy="49.5" r="9.5"></circle>
                <circle id="Oval" fill="#555555" cx="180" cy="97.5" r="9.5"></circle>
                <circle id="Oval" fill="#555555" cx="308" cy="135.5" r="9.5"></circle>
                <circle id="Oval" fill="#555555" cx="443" cy="151.5" r="9.5"></circle>
                <circle id="Oval" fill="#555555" cx="578" cy="151.5" r="9.5"></circle>
                <circle id="Oval" fill="#555555" cx="713" cy="131.5" r="9.5"></circle>
                <circle id="Oval" fill="#555555" cx="842" cy="91.5" r="9.5"></circle>
                <circle id="Oval" fill="#555555" cx="949" cy="42.5" r="9.5"></circle>
                <path d="M34.5,104.5 C26.8253286,105.540633 16.5,98.5 15,100 C13.5,101.5 19.3816149,115.070281 31.5,118 C43.6183851,120.929719 47.0656932,121.485313 60.5,111 C73.9343068,100.514687 74.8316836,86.3440564 75.5,82 C75.8486549,79.7337432 71.7794444,78.0770968 67.5,76.5 C66.837343,76.2557921 70.8976593,68.9998924 68.5,63 C68.186017,62.2142903 66.5193504,62.2142903 63.5,63 C63.9114352,70.8789663 63.9008768,74.7981445 63.4683247,74.7575343 C56.9176062,74.1425208 53.261498,75.556676 52.5,79 C48.9349866,95.1201958 42.1746714,103.459367 34.5,104.5 Z" id="Path-8" fill="#E24A4A"></path>
                <path d="M426.5,209.5 C418.825329,210.540633 408.5,203.5 407,205 C405.5,206.5 411.381615,220.070281 423.5,223 C435.618385,225.929719 439.065693,226.485313 452.5,216 C465.934307,205.514687 466.831684,191.344056 467.5,187 C467.848655,184.733743 463.779444,183.077097 459.5,181.5 C458.837343,181.255792 462.897659,173.999892 460.5,168 C460.186017,167.21429 458.51935,167.21429 455.5,168 C455.911435,175.878966 455.900877,179.798144 455.468325,179.757534 C448.917606,179.142521 445.261498,180.556676 444.5,184 C440.934987,200.120196 434.174671,208.459367 426.5,209.5 Z" id="Path-8" fill="#2FC66E" transform="translate(437.145540, 196.124340) rotate(-20.000000) translate(-437.145540, -196.124340) "></path>
                <path d="M845.5,151.5 C837.825329,152.540633 827.5,145.5 826,147 C824.5,148.5 830.381615,162.070281 842.5,165 C854.618385,167.929719 858.065693,168.485313 871.5,158 C884.934307,147.514687 885.831684,133.344056 886.5,129 C886.848655,126.733743 882.779444,125.077097 878.5,123.5 C877.837343,123.255792 881.897659,115.999892 879.5,110 C879.186017,109.21429 877.51935,109.21429 874.5,110 C874.911435,117.878966 874.900877,121.798144 874.468325,121.757534 C867.917606,121.142521 864.261498,122.556676 863.5,126 C859.934987,142.120196 853.174671,150.459367 845.5,151.5 Z" id="Path-8" fill="#E24A4A" transform="translate(856.145540, 138.124340) scale(-1, 1) rotate(-12.000000) translate(-856.145540, -138.124340) "></path>
                <path d="M164.101566,166.84128 C164.101566,170.280427 161.534985,172 156.401822,172 C141.742777,172 145.446063,146.672672 166.865576,129.341353 C189.226841,111.24803 208.703821,110.296057 211.484604,126.365169 C212.011082,129.407491 210.431647,131.656164 206.7463,133.111187 C208.194115,131.259339 207.799256,129.93659 205.561724,129.142941 C202.205425,127.952467 200.84149,133.441784 198.05941,135.492135 C196.253405,136.823132 192.699678,140.659104 187.398226,147.000049 L200.625991,157.912726 L190.359666,166.84128 L179.106195,153.150831 C172.286723,157.471381 168.206516,159.984604 166.865576,160.690498 C162.719561,162.873034 161.534985,162.079385 160.547838,163.666683 C158.27441,167.322279 159.458986,168.380478 164.101566,166.84128 Z" id="topping" fill="#E4A043"></path>
                <path d="M575.101566,210.84128 C575.101566,214.280427 572.534985,216 567.401822,216 C552.742777,216 556.446063,190.672672 577.865576,173.341353 C600.226841,155.24803 619.703821,154.296057 622.484604,170.365169 C623.011082,173.407491 621.431647,175.656164 617.7463,177.111187 C619.194115,175.259339 618.799256,173.93659 616.561724,173.142941 C613.205425,171.952467 611.84149,177.441784 609.05941,179.492135 C607.253405,180.823132 603.699678,184.659104 598.398226,191.000049 L611.625991,201.912726 L601.359666,210.84128 L590.106195,197.150831 C583.286723,201.471381 579.206516,203.984604 577.865576,204.690498 C573.719561,206.873034 572.534985,206.079385 571.547838,207.666683 C569.27441,211.322279 570.458986,212.380478 575.101566,210.84128 Z" id="topping" fill="#E4A043"></path>
                <path d="M953.101566,114.84128 C953.101566,118.280427 950.534985,120 945.401822,120 C930.742777,120 934.446063,94.6726718 955.865576,77.3413534 C978.226841,59.2480298 997.703821,58.2960566 1000.4846,74.3651688 C1001.01108,77.4074909 999.431647,79.6561637 995.7463,81.1111873 C997.194115,79.2593391 996.799256,77.9365904 994.561724,77.1429411 C991.205425,75.9524673 989.84149,81.4417845 987.05941,83.492135 C985.253405,84.8231322 981.699678,88.6591036 976.398226,95.000049 L989.625991,105.912726 L979.359666,114.84128 L968.106195,101.150831 C961.286723,105.471381 957.206516,107.984604 955.865576,108.690498 C951.719561,110.873034 950.534985,110.079385 949.547838,111.666683 C947.27441,115.322279 948.458986,116.380478 953.101566,114.84128 Z" id="topping" fill="#E4A043" transform="translate(968.583318, 91.500000) scale(-1, 1) translate(-968.583318, -91.500000) "></path>
                <g id="topping" transform="translate(280.500000, 154.000000)">
                    <circle id="Oval" stroke="#AA3030" stroke-width="6" fill="#CF6262" cx="27.5" cy="27.5" r="24.5"></circle>
                    <circle id="Oval" fill="#F7C8C8" cx="10.5" cy="27.5" r="3.5"></circle>
                    <circle id="Oval" fill="#F7C8C8" cx="22.5" cy="13.5" r="3.5"></circle>
                    <circle id="Oval" fill="#F7C8C8" cx="29.5" cy="43.5" r="3.5"></circle>
                    <circle id="Oval" fill="#F7C8C8" cx="43.5" cy="39.5" r="3.5"></circle>
                    <circle id="Oval" fill="#F7C8C8" cx="26.5" cy="27.5" r="3.5"></circle>
                </g>
                <g id="topping" transform="translate(693.500000, 151.000000)">
                    <circle id="Oval" stroke="#AA3030" stroke-width="6" fill="#CF6262" cx="27.5" cy="27.5" r="24.5"></circle>
                    <circle id="Oval" fill="#F7C8C8" cx="10.5" cy="27.5" r="3.5"></circle>
                    <circle id="Oval" fill="#F7C8C8" cx="22.5" cy="13.5" r="3.5"></circle>
                    <circle id="Oval" fill="#F7C8C8" cx="29.5" cy="43.5" r="3.5"></circle>
                    <circle id="Oval" fill="#F7C8C8" cx="43.5" cy="39.5" r="3.5"></circle>
                    <circle id="Oval" fill="#F7C8C8" cx="26.5" cy="27.5" r="3.5"></circle>
                </g>
            </g>
            <g id="Group" transform="translate(1007.000000, 0.000000)">
                <path d="M0,6.5 C151.333333,104.833333 318,154 500,154 C682,154 853.666667,104.833333 1015,6.5 L1010,0 C846,96.3333333 676,144.5 500,144.5 C324,144.5 158.833333,96.6666667 4.5,1 L0,6.5 Z" id="Path-7" fill="#555555"></path>
                <circle id="Oval" fill="#555555" cx="67" cy="49.5" r="9.5"></circle>
                <circle id="Oval" fill="#555555" cx="180" cy="97.5" r="9.5"></circle>
                <circle id="Oval" fill="#555555" cx="308" cy="135.5" r="9.5"></circle>
                <circle id="Oval" fill="#555555" cx="443" cy="151.5" r="9.5"></circle>
                <circle id="Oval" fill="#555555" cx="578" cy="151.5" r="9.5"></circle>
                <circle id="Oval" fill="#555555" cx="713" cy="131.5" r="9.5"></circle>
                <circle id="Oval" fill="#555555" cx="842" cy="91.5" r="9.5"></circle>
                <circle id="Oval" fill="#555555" cx="949" cy="42.5" r="9.5"></circle>
                <path d="M34.5,104.5 C26.8253286,105.540633 16.5,98.5 15,100 C13.5,101.5 19.3816149,115.070281 31.5,118 C43.6183851,120.929719 47.0656932,121.485313 60.5,111 C73.9343068,100.514687 74.8316836,86.3440564 75.5,82 C75.8486549,79.7337432 71.7794444,78.0770968 67.5,76.5 C66.837343,76.2557921 70.8976593,68.9998924 68.5,63 C68.186017,62.2142903 66.5193504,62.2142903 63.5,63 C63.9114352,70.8789663 63.9008768,74.7981445 63.4683247,74.7575343 C56.9176062,74.1425208 53.261498,75.556676 52.5,79 C48.9349866,95.1201958 42.1746714,103.459367 34.5,104.5 Z" id="Path-8" fill="#E24A4A"></path>
                <path d="M426.5,209.5 C418.825329,210.540633 408.5,203.5 407,205 C405.5,206.5 411.381615,220.070281 423.5,223 C435.618385,225.929719 439.065693,226.485313 452.5,216 C465.934307,205.514687 466.831684,191.344056 467.5,187 C467.848655,184.733743 463.779444,183.077097 459.5,181.5 C458.837343,181.255792 462.897659,173.999892 460.5,168 C460.186017,167.21429 458.51935,167.21429 455.5,168 C455.911435,175.878966 455.900877,179.798144 455.468325,179.757534 C448.917606,179.142521 445.261498,180.556676 444.5,184 C440.934987,200.120196 434.174671,208.459367 426.5,209.5 Z" id="Path-8" fill="#2FC66E" transform="translate(437.145540, 196.124340) rotate(-20.000000) translate(-437.145540, -196.124340) "></path>
                <path d="M845.5,151.5 C837.825329,152.540633 827.5,145.5 826,147 C824.5,148.5 830.381615,162.070281 842.5,165 C854.618385,167.929719 858.065693,168.485313 871.5,158 C884.934307,147.514687 885.831684,133.344056 886.5,129 C886.848655,126.733743 882.779444,125.077097 878.5,123.5 C877.837343,123.255792 881.897659,115.999892 879.5,110 C879.186017,109.21429 877.51935,109.21429 874.5,110 C874.911435,117.878966 874.900877,121.798144 874.468325,121.757534 C867.917606,121.142521 864.261498,122.556676 863.5,126 C859.934987,142.120196 853.174671,150.459367 845.5,151.5 Z" id="Path-8" fill="#E24A4A" transform="translate(856.145540, 138.124340) scale(-1, 1) rotate(-12.000000) translate(-856.145540, -138.124340) "></path>
                <path d="M164.101566,166.84128 C164.101566,170.280427 161.534985,172 156.401822,172 C141.742777,172 145.446063,146.672672 166.865576,129.341353 C189.226841,111.24803 208.703821,110.296057 211.484604,126.365169 C212.011082,129.407491 210.431647,131.656164 206.7463,133.111187 C208.194115,131.259339 207.799256,129.93659 205.561724,129.142941 C202.205425,127.952467 200.84149,133.441784 198.05941,135.492135 C196.253405,136.823132 192.699678,140.659104 187.398226,147.000049 L200.625991,157.912726 L190.359666,166.84128 L179.106195,153.150831 C172.286723,157.471381 168.206516,159.984604 166.865576,160.690498 C162.719561,162.873034 161.534985,162.079385 160.547838,163.666683 C158.27441,167.322279 159.458986,168.380478 164.101566,166.84128 Z" id="topping" fill="#E4A043"></path>
                <path d="M575.101566,210.84128 C575.101566,214.280427 572.534985,216 567.401822,216 C552.742777,216 556.446063,190.672672 577.865576,173.341353 C600.226841,155.24803 619.703821,154.296057 622.484604,170.365169 C623.011082,173.407491 621.431647,175.656164 617.7463,177.111187 C619.194115,175.259339 618.799256,173.93659 616.561724,173.142941 C613.205425,171.952467 611.84149,177.441784 609.05941,179.492135 C607.253405,180.823132 603.699678,184.659104 598.398226,191.000049 L611.625991,201.912726 L601.359666,210.84128 L590.106195,197.150831 C583.286723,201.471381 579.206516,203.984604 577.865576,204.690498 C573.719561,206.873034 572.534985,206.079385 571.547838,207.666683 C569.27441,211.322279 570.458986,212.380478 575.101566,210.84128 Z" id="topping" fill="#E4A043"></path>
                <path d="M953.101566,114.84128 C953.101566,118.280427 950.534985,120 945.401822,120 C930.742777,120 934.446063,94.6726718 955.865576,77.3413534 C978.226841,59.2480298 997.703821,58.2960566 1000.4846,74.3651688 C1001.01108,77.4074909 999.431647,79.6561637 995.7463,81.1111873 C997.194115,79.2593391 996.799256,77.9365904 994.561724,77.1429411 C991.205425,75.9524673 989.84149,81.4417845 987.05941,83.492135 C985.253405,84.8231322 981.699678,88.6591036 976.398226,95.000049 L989.625991,105.912726 L979.359666,114.84128 L968.106195,101.150831 C961.286723,105.471381 957.206516,107.984604 955.865576,108.690498 C951.719561,110.873034 950.534985,110.079385 949.547838,111.666683 C947.27441,115.322279 948.458986,116.380478 953.101566,114.84128 Z" id="topping" fill="#E4A043" transform="translate(968.583318, 91.500000) scale(-1, 1) translate(-968.583318, -91.500000) "></path>
                <g id="topping" transform="translate(280.500000, 154.000000)">
                    <circle id="Oval" stroke="#AA3030" stroke-width="6" fill="#CF6262" cx="27.5" cy="27.5" r="24.5"></circle>
                    <circle id="Oval" fill="#F7C8C8" cx="10.5" cy="27.5" r="3.5"></circle>
                    <circle id="Oval" fill="#F7C8C8" cx="22.5" cy="13.5" r="3.5"></circle>
                    <circle id="Oval" fill="#F7C8C8" cx="29.5" cy="43.5" r="3.5"></circle>
                    <circle id="Oval" fill="#F7C8C8" cx="43.5" cy="39.5" r="3.5"></circle>
                    <circle id="Oval" fill="#F7C8C8" cx="26.5" cy="27.5" r="3.5"></circle>
                </g>
                <g id="topping" transform="translate(693.500000, 151.000000)">
                    <circle id="Oval" stroke="#AA3030" stroke-width="6" fill="#CF6262" cx="27.5" cy="27.5" r="24.5"></circle>
                    <circle id="Oval" fill="#F7C8C8" cx="10.5" cy="27.5" r="3.5"></circle>
                    <circle id="Oval" fill="#F7C8C8" cx="22.5" cy="13.5" r="3.5"></circle>
                    <circle id="Oval" fill="#F7C8C8" cx="29.5" cy="43.5" r="3.5"></circle>
                    <circle id="Oval" fill="#F7C8C8" cx="43.5" cy="39.5" r="3.5"></circle>
                    <circle id="Oval" fill="#F7C8C8" cx="26.5" cy="27.5" r="3.5"></circle>
                </g>
            </g>
            <g id="Group" transform="translate(2013.000000, 0.000000)">
                <path d="M0,6.5 C151.333333,104.833333 318,154 500,154 C682,154 853.666667,104.833333 1015,6.5 L1010,0 C846,96.3333333 676,144.5 500,144.5 C324,144.5 158.833333,96.6666667 4.5,1 L0,6.5 Z" id="Path-7" fill="#555555"></path>
                <circle id="Oval" fill="#555555" cx="67" cy="49.5" r="9.5"></circle>
                <circle id="Oval" fill="#555555" cx="180" cy="97.5" r="9.5"></circle>
                <circle id="Oval" fill="#555555" cx="308" cy="135.5" r="9.5"></circle>
                <circle id="Oval" fill="#555555" cx="443" cy="151.5" r="9.5"></circle>
                <circle id="Oval" fill="#555555" cx="578" cy="151.5" r="9.5"></circle>
                <circle id="Oval" fill="#555555" cx="713" cy="131.5" r="9.5"></circle>
                <circle id="Oval" fill="#555555" cx="842" cy="91.5" r="9.5"></circle>
                <circle id="Oval" fill="#555555" cx="949" cy="42.5" r="9.5"></circle>
                <path d="M34.5,104.5 C26.8253286,105.540633 16.5,98.5 15,100 C13.5,101.5 19.3816149,115.070281 31.5,118 C43.6183851,120.929719 47.0656932,121.485313 60.5,111 C73.9343068,100.514687 74.8316836,86.3440564 75.5,82 C75.8486549,79.7337432 71.7794444,78.0770968 67.5,76.5 C66.837343,76.2557921 70.8976593,68.9998924 68.5,63 C68.186017,62.2142903 66.5193504,62.2142903 63.5,63 C63.9114352,70.8789663 63.9008768,74.7981445 63.4683247,74.7575343 C56.9176062,74.1425208 53.261498,75.556676 52.5,79 C48.9349866,95.1201958 42.1746714,103.459367 34.5,104.5 Z" id="Path-8" fill="#E24A4A"></path>
                <path d="M426.5,209.5 C418.825329,210.540633 408.5,203.5 407,205 C405.5,206.5 411.381615,220.070281 423.5,223 C435.618385,225.929719 439.065693,226.485313 452.5,216 C465.934307,205.514687 466.831684,191.344056 467.5,187 C467.848655,184.733743 463.779444,183.077097 459.5,181.5 C458.837343,181.255792 462.897659,173.999892 460.5,168 C460.186017,167.21429 458.51935,167.21429 455.5,168 C455.911435,175.878966 455.900877,179.798144 455.468325,179.757534 C448.917606,179.142521 445.261498,180.556676 444.5,184 C440.934987,200.120196 434.174671,208.459367 426.5,209.5 Z" id="Path-8" fill="#2FC66E" transform="translate(437.145540, 196.124340) rotate(-20.000000) translate(-437.145540, -196.124340) "></path>
                <path d="M845.5,151.5 C837.825329,152.540633 827.5,145.5 826,147 C824.5,148.5 830.381615,162.070281 842.5,165 C854.618385,167.929719 858.065693,168.485313 871.5,158 C884.934307,147.514687 885.831684,133.344056 886.5,129 C886.848655,126.733743 882.779444,125.077097 878.5,123.5 C877.837343,123.255792 881.897659,115.999892 879.5,110 C879.186017,109.21429 877.51935,109.21429 874.5,110 C874.911435,117.878966 874.900877,121.798144 874.468325,121.757534 C867.917606,121.142521 864.261498,122.556676 863.5,126 C859.934987,142.120196 853.174671,150.459367 845.5,151.5 Z" id="Path-8" fill="#E24A4A" transform="translate(856.145540, 138.124340) scale(-1, 1) rotate(-12.000000) translate(-856.145540, -138.124340) "></path>
                <path d="M164.101566,166.84128 C164.101566,170.280427 161.534985,172 156.401822,172 C141.742777,172 145.446063,146.672672 166.865576,129.341353 C189.226841,111.24803 208.703821,110.296057 211.484604,126.365169 C212.011082,129.407491 210.431647,131.656164 206.7463,133.111187 C208.194115,131.259339 207.799256,129.93659 205.561724,129.142941 C202.205425,127.952467 200.84149,133.441784 198.05941,135.492135 C196.253405,136.823132 192.699678,140.659104 187.398226,147.000049 L200.625991,157.912726 L190.359666,166.84128 L179.106195,153.150831 C172.286723,157.471381 168.206516,159.984604 166.865576,160.690498 C162.719561,162.873034 161.534985,162.079385 160.547838,163.666683 C158.27441,167.322279 159.458986,168.380478 164.101566,166.84128 Z" id="topping" fill="#E4A043"></path>
                <path d="M575.101566,210.84128 C575.101566,214.280427 572.534985,216 567.401822,216 C552.742777,216 556.446063,190.672672 577.865576,173.341353 C600.226841,155.24803 619.703821,154.296057 622.484604,170.365169 C623.011082,173.407491 621.431647,175.656164 617.7463,177.111187 C619.194115,175.259339 618.799256,173.93659 616.561724,173.142941 C613.205425,171.952467 611.84149,177.441784 609.05941,179.492135 C607.253405,180.823132 603.699678,184.659104 598.398226,191.000049 L611.625991,201.912726 L601.359666,210.84128 L590.106195,197.150831 C583.286723,201.471381 579.206516,203.984604 577.865576,204.690498 C573.719561,206.873034 572.534985,206.079385 571.547838,207.666683 C569.27441,211.322279 570.458986,212.380478 575.101566,210.84128 Z" id="topping" fill="#E4A043"></path>
                <path d="M953.101566,114.84128 C953.101566,118.280427 950.534985,120 945.401822,120 C930.742777,120 934.446063,94.6726718 955.865576,77.3413534 C978.226841,59.2480298 997.703821,58.2960566 1000.4846,74.3651688 C1001.01108,77.4074909 999.431647,79.6561637 995.7463,81.1111873 C997.194115,79.2593391 996.799256,77.9365904 994.561724,77.1429411 C991.205425,75.9524673 989.84149,81.4417845 987.05941,83.492135 C985.253405,84.8231322 981.699678,88.6591036 976.398226,95.000049 L989.625991,105.912726 L979.359666,114.84128 L968.106195,101.150831 C961.286723,105.471381 957.206516,107.984604 955.865576,108.690498 C951.719561,110.873034 950.534985,110.079385 949.547838,111.666683 C947.27441,115.322279 948.458986,116.380478 953.101566,114.84128 Z" id="topping" fill="#E4A043" transform="translate(968.583318, 91.500000) scale(-1, 1) translate(-968.583318, -91.500000) "></path>
                <g id="topping" transform="translate(280.500000, 154.000000)">
                    <circle id="Oval" stroke="#AA3030" stroke-width="6" fill="#CF6262" cx="27.5" cy="27.5" r="24.5"></circle>
                    <circle id="Oval" fill="#F7C8C8" cx="10.5" cy="27.5" r="3.5"></circle>
                    <circle id="Oval" fill="#F7C8C8" cx="22.5" cy="13.5" r="3.5"></circle>
                    <circle id="Oval" fill="#F7C8C8" cx="29.5" cy="43.5" r="3.5"></circle>
                    <circle id="Oval" fill="#F7C8C8" cx="43.5" cy="39.5" r="3.5"></circle>
                    <circle id="Oval" fill="#F7C8C8" cx="26.5" cy="27.5" r="3.5"></circle>
                </g>
                <g id="topping" transform="translate(693.500000, 151.000000)">
                    <circle id="Oval" stroke="#AA3030" stroke-width="6" fill="#CF6262" cx="27.5" cy="27.5" r="24.5"></circle>
                    <circle id="Oval" fill="#F7C8C8" cx="10.5" cy="27.5" r="3.5"></circle>
                    <circle id="Oval" fill="#F7C8C8" cx="22.5" cy="13.5" r="3.5"></circle>
                    <circle id="Oval" fill="#F7C8C8" cx="29.5" cy="43.5" r="3.5"></circle>
                    <circle id="Oval" fill="#F7C8C8" cx="43.5" cy="39.5" r="3.5"></circle>
                    <circle id="Oval" fill="#F7C8C8" cx="26.5" cy="27.5" r="3.5"></circle>
                </g>
            </g>
        </g>
    </g>
</svg>