<?xml version="1.0" encoding="UTF-8"?>
<svg width="653px" height="797px" viewBox="0 0 653 797" version="1.1" xmlns="http://www.w3.org/2000/svg" xmlns:xlink="http://www.w3.org/1999/xlink">
    <title>scene1</title>
    <defs>
        <linearGradient x1="50%" y1="0%" x2="50%" y2="98.6914575%" id="linearGradient-1">
            <stop stop-color="#B3E3EA" offset="0%"></stop>
            <stop stop-color="#F0F5F6" offset="100%"></stop>
        </linearGradient>
        <linearGradient x1="50%" y1="0%" x2="50%" y2="100%" id="linearGradient-2">
            <stop stop-color="#FFE562" offset="0%"></stop>
            <stop stop-color="#EDC141" offset="100%"></stop>
        </linearGradient>
        <linearGradient x1="50%" y1="0%" x2="50%" y2="97.5417771%" id="linearGradient-3">
            <stop stop-color="#937151" offset="0%"></stop>
            <stop stop-color="#573922" offset="100%"></stop>
        </linearGradient>
        <linearGradient x1="50%" y1="0%" x2="50%" y2="100%" id="linearGradient-4">
            <stop stop-color="#897969" offset="0%"></stop>
            <stop stop-color="#47392F" offset="100%"></stop>
        </linearGradient>
    </defs>
    <g id="Page-1" stroke="none" stroke-width="1" fill="none" fill-rule="evenodd">
        <g id="scene1">
            <path d="M200,0 L453,0 C563.45695,8.1310969e-15 653,89.54305 653,200 L653,795 C653,796.104569 652.104569,797 651,797 L2,797 C0.8954305,797 1.3527075e-16,796.104569 0,795 L0,200 C-4.19487845e-14,89.54305 89.54305,4.8712322e-14 200,0 Z" id="sky" fill="url(#linearGradient-1)"></path>
            <path d="M332,783 C355.685792,783 376.543151,770.89004 388.718312,752.523888 C353.906104,756.841296 330,747 317,723 C304,699 309,673.666667 332,647 C294.444637,647 264,677.444637 264,715 C264,752.555363 294.444637,783 332,783 Z" id="moon" fill="#F7F6F2"></path>
            <path d="M326,259 C357.480231,259 383,233.480231 383,202 C383,170.519769 357.480231,145 326,145 C309.018107,145 293.770722,152.426311 283.328267,164.20851 C274.412992,174.267596 269,187.501662 269,202 C269,233.480231 294.519769,259 326,259 Z" id="sun" fill="url(#linearGradient-2)"></path>
            <path d="M139.5,550.5 L218.5,366 C231.236755,450.407969 248.070088,515.241302 269,560.5 C289.929912,605.758698 331.596578,667.425364 394,745.5 L652.5,797 L0,797 L139.5,550.5 Z" id="hill2" fill="url(#linearGradient-3)"></path>
            <path d="M214.5,692 C261.36054,655.074833 289.693874,611.408166 299.5,561 L416.5,486 L521,670.5 L652.5,797 L0,797 C96.1394598,763.925167 167.63946,728.925167 214.5,692 Z" id="hill1" fill="url(#linearGradient-4)"></path>
        </g>
    </g>
</svg>