<?xml version="1.0" encoding="UTF-8"?>
<svg width="653px" height="797px" viewBox="0 0 653 797" version="1.1" xmlns="http://www.w3.org/2000/svg" xmlns:xlink="http://www.w3.org/1999/xlink">
    <title>scene4</title>
    <defs>
        <linearGradient x1="50%" y1="0%" x2="50%" y2="100%" id="linearGradient-1">
            <stop stop-color="#0F5478" offset="0%"></stop>
            <stop stop-color="#0E1F39" offset="100%"></stop>
        </linearGradient>
        <linearGradient x1="50%" y1="0%" x2="50%" y2="100%" id="linearGradient-2">
            <stop stop-color="#FFE562" offset="0%"></stop>
            <stop stop-color="#EDC141" offset="100%"></stop>
        </linearGradient>
        <linearGradient x1="50%" y1="0%" x2="50%" y2="97.5417771%" id="linearGradient-3">
            <stop stop-color="#232662" offset="0%"></stop>
            <stop stop-color="#05060C" offset="100%"></stop>
        </linearGradient>
        <linearGradient x1="50%" y1="0%" x2="50%" y2="100%" id="linearGradient-4">
            <stop stop-color="#1F1441" offset="0%"></stop>
            <stop stop-color="#150C1C" offset="100%"></stop>
        </linearGradient>
    </defs>
    <g id="Page-1" stroke="none" stroke-width="1" fill="none" fill-rule="evenodd">
        <g id="scene4">
            <path d="M200,0 L453,0 C563.45695,8.1310969e-15 653,89.54305 653,200 L653,795 C653,796.104569 652.104569,797 651,797 L2,797 C0.8954305,797 1.3527075e-16,796.104569 0,795 L0,200 C-4.19487845e-14,89.54305 89.54305,4.8712322e-14 200,0 Z" id="sky" fill="url(#linearGradient-1)"></path>
            <circle id="sun" fill="url(#linearGradient-2)" cx="327" cy="740" r="57"></circle>
            <path d="M326,287 C349.685792,287 370.543151,274.89004 382.718312,256.523888 C347.906104,260.841296 324,251 311,227 C298,203 303,177.666667 326,151 C288.444637,151 258,181.444637 258,219 C258,256.555363 288.444637,287 326,287 Z" id="moon" fill="#F7F6F2"></path>
            <path d="M140.5,592 L217,515 C224.403422,533.074636 238.570088,564.741302 259.5,610 C280.429912,655.258698 325.263245,700.425364 394,745.5 L652.5,797 L0,797 L140.5,592 Z" id="hill2" fill="url(#linearGradient-3)"></path>
            <path d="M219,673 C270.28879,617.902198 293.78879,555.568865 289.5,486 L420,342 L517.5,486 L652.5,797 L0,797 C94.7112101,769.431135 167.71121,728.097802 219,673 Z" id="hill1" fill="url(#linearGradient-4)"></path>
        </g>
    </g>
</svg>