<?xml version="1.0" encoding="UTF-8"?>
<svg width="653px" height="797px" viewBox="0 0 653 797" version="1.1" xmlns="http://www.w3.org/2000/svg" xmlns:xlink="http://www.w3.org/1999/xlink">
    <title>scene3</title>
    <defs>
        <linearGradient x1="50%" y1="0%" x2="50%" y2="100%" id="linearGradient-1">
            <stop stop-color="#198D9F" offset="0%"></stop>
            <stop stop-color="#E18B4C" offset="100%"></stop>
        </linearGradient>
        <linearGradient x1="50%" y1="0%" x2="50%" y2="100%" id="linearGradient-2">
            <stop stop-color="#FFE562" offset="0%"></stop>
            <stop stop-color="#EDC141" offset="100%"></stop>
        </linearGradient>
        <linearGradient x1="50%" y1="0%" x2="50%" y2="97.5417771%" id="linearGradient-3">
            <stop stop-color="#5C4228" offset="0%"></stop>
            <stop stop-color="#3F2614" offset="100%"></stop>
        </linearGradient>
        <linearGradient x1="50%" y1="0%" x2="50%" y2="100%" id="linearGradient-4">
            <stop stop-color="#524233" offset="0%"></stop>
            <stop stop-color="#1F1812" offset="100%"></stop>
        </linearGradient>
    </defs>
    <g id="Page-1" stroke="none" stroke-width="1" fill="none" fill-rule="evenodd">
        <g id="scene3">
            <path d="M200,0 L453,0 C563.45695,8.1310969e-15 653,89.54305 653,200 L653,795 C653,796.104569 652.104569,797 651,797 L2,797 C0.8954305,797 1.3527075e-16,796.104569 0,795 L0,200 C-4.19487845e-14,89.54305 89.54305,4.8712322e-14 200,0 Z" id="sky" fill="url(#linearGradient-1)"></path>
            <path d="M327,797 C358.480231,797 384,771.480231 384,740 C384,708.519769 358.480231,683 327,683 C310.982194,683 296.507545,689.607041 286.152664,700.244511 C276.156815,710.513151 270,724.537575 270,740 C270,771.480231 295.519769,797 327,797 Z" id="sun" fill="url(#linearGradient-2)"></path>
            <path d="M332,792 C355.685792,792 376.543151,779.89004 388.718312,761.523888 C353.906104,765.841296 330,756 317,732 C304,708 309,682.666667 332,656 C294.444637,656 264,686.444637 264,724 C264,761.555363 294.444637,792 332,792 Z" id="moon" fill="#F7F6F2"></path>
            <path d="M140.5,592 L217,515 C224.403422,533.074636 238.570088,564.741302 259.5,610 C280.429912,655.258698 325.263245,700.425364 394,745.5 L652.5,797 L0,797 L140.5,592 Z" id="hill2" fill="url(#linearGradient-3)"></path>
            <path d="M219,673 C270.28879,617.902198 293.78879,555.568865 289.5,486 L420,342 L517.5,486 L652.5,797 L0,797 C94.7112101,769.431135 167.71121,728.097802 219,673 Z" id="hill1" fill="url(#linearGradient-4)"></path>
        </g>
    </g>
</svg>