<?xml version="1.0" encoding="UTF-8"?>
<svg width="653px" height="797px" viewBox="0 0 653 797" version="1.1" xmlns="http://www.w3.org/2000/svg" xmlns:xlink="http://www.w3.org/1999/xlink">
    <title>scene2</title>
    <defs>
        <linearGradient x1="50%" y1="0%" x2="50%" y2="100%" id="linearGradient-1">
            <stop stop-color="#D6EEF2" offset="0%"></stop>
            <stop stop-color="#D5DEE0" offset="100%"></stop>
        </linearGradient>
        <linearGradient x1="50%" y1="0%" x2="50%" y2="100%" id="linearGradient-2">
            <stop stop-color="#FFE562" offset="0%"></stop>
            <stop stop-color="#EDC141" offset="100%"></stop>
        </linearGradient>
        <linearGradient x1="50%" y1="0%" x2="50%" y2="97.5417771%" id="linearGradient-3">
            <stop stop-color="#937151" offset="0%"></stop>
            <stop stop-color="#573922" offset="100%"></stop>
        </linearGradient>
        <linearGradient x1="50%" y1="0%" x2="50%" y2="100%" id="linearGradient-4">
            <stop stop-color="#897969" offset="0%"></stop>
            <stop stop-color="#47392F" offset="100%"></stop>
        </linearGradient>
    </defs>
    <g id="Page-1" stroke="none" stroke-width="1" fill="none" fill-rule="evenodd">
        <g id="scene2">
            <path d="M200,0 L453,0 C563.45695,8.1310969e-15 653,89.54305 653,200 L653,795 C653,796.104569 652.104569,797 651,797 L2,797 C0.8954305,797 1.3527075e-16,796.104569 0,795 L0,200 C-4.19487845e-14,89.54305 89.54305,4.8712322e-14 200,0 Z" id="sky" fill="url(#linearGradient-1)"></path>
            <path d="M337,792 C360.685792,792 381.543151,779.89004 393.718312,761.523888 C358.906104,765.841296 335,756 322,732 C309,708 314,682.666667 337,656 C299.444637,656 269,686.444637 269,724 C269,761.555363 299.444637,792 337,792 Z" id="moon" fill="#F7F6F2"></path>
            <path d="M326,259 C357.480231,259 383,233.480231 383,202 C383,170.519769 357.480231,145 326,145 C309.139324,145 293.988482,152.320671 283.552614,163.956874 C274.503883,174.046392 269,187.380446 269,202 C269,233.480231 294.519769,259 326,259 Z" id="sun" fill="url(#linearGradient-2)"></path>
            <path d="M140.5,592 L217,515 C224.403422,533.074636 238.570088,564.741302 259.5,610 C280.429912,655.258698 325.263245,700.425364 394,745.5 L652.5,797 L0,797 L140.5,592 Z" id="hill2" fill="url(#linearGradient-3)"></path>
            <path d="M219,673 C270.28879,617.902198 293.78879,555.568865 289.5,486 L420,342 L517.5,486 L652.5,797 L0,797 C94.7112101,769.431135 167.71121,728.097802 219,673 Z" id="hill1" fill="url(#linearGradient-4)"></path>
        </g>
    </g>
</svg>