<?xml version="1.0" encoding="UTF-8"?>
<svg width="850px" height="850px" viewBox="0 0 850 850" version="1.1" xmlns="http://www.w3.org/2000/svg" xmlns:xlink="http://www.w3.org/1999/xlink">
    <title>soup8</title>
    <g id="Page-4" stroke="none" stroke-width="1" fill="none" fill-rule="evenodd">
        <g id="Group-31" transform="translate(225.000000, 169.000000)">
            <g id="Group-30" transform="translate(93.500000, 321.000000)" fill="#FFF1C1">
                <path d="M0,116 C52,124.333333 88.5,121.833333 109.5,108.5 C141,88.5 141,47.5 166.5,26 C183.5,11.6666667 203,3 225,2.20268248e-13 L231,4 C207.666667,7.33333333 187.5,16.3333333 170.5,31 C145,53 145.168885,95.6906421 112.5,114.5 C90.7207435,127.039572 53.2207435,129.706239 0,122.5 L0,116 Z" id="Path-29"></path>
                <path d="M8,129 C60,136.666667 96.5,133.833333 117.5,120.5 C149,100.5 149,59.5 174.5,38 C191.5,23.6666667 211,15 233,12 L239,16 C215.666667,19.3333333 195.5,28.3333333 178.5,43 C153,65 153.168885,107.690642 120.5,126.5 C98.7207435,139.039572 61.2207435,142.039572 8,135.5 L8,129 Z" id="Path-29"></path>
                <path d="M18,142 C70,148.333333 106.5,144.833333 127.5,131.5 C159,111.5 159,70.5 184.5,49 C201.5,34.6666667 221,26 243,23 L249,27 C225.666667,30.3333333 205.5,39.3333333 188.5,54 C163,76 163.168885,118.690642 130.5,137.5 C108.720744,150.039572 71.2207435,153.706239 18,148.5 L18,142 Z" id="Path-29"></path>
                <path d="M30,156 C82,160.333333 118.5,155.833333 139.5,142.5 C171,122.5 171,81.5 196.5,60 C213.5,45.6666667 233,37 255,34 L261,38 C237.666667,41.3333333 217.5,50.3333333 200.5,65 C175,87 175.168885,129.690642 142.5,148.5 C120.720744,161.039572 83.2207435,165.706239 30,162.5 L30,156 Z" id="Path-29"></path>
                <path d="M39,168 C91,172.333333 127.5,167.833333 148.5,154.5 C180,134.5 180,93.5 205.5,72 C222.5,57.6666667 242,49 264,46 L270,50 C246.666667,53.3333333 226.5,62.3333333 209.5,77 C184,99 184.168885,141.690642 151.5,160.5 C129.720744,173.039572 92.2207435,177.706239 39,174.5 L39,168 Z" id="Path-29"></path>
            </g>
            <g id="Group-30" transform="translate(183.500000, 119.000000) rotate(166.000000) translate(-183.500000, -119.000000) translate(48.500000, 31.000000)" fill="#FFF1C1">
                <path d="M0,116 C52,124.333333 88.5,121.833333 109.5,108.5 C141,88.5 141,47.5 166.5,26 C183.5,11.6666667 203,3 225,2.20268248e-13 L231,4 C207.666667,7.33333333 187.5,16.3333333 170.5,31 C145,53 145.168885,95.6906421 112.5,114.5 C90.7207435,127.039572 53.2207435,129.706239 0,122.5 L0,116 Z" id="Path-29"></path>
                <path d="M8,129 C60,136.666667 96.5,133.833333 117.5,120.5 C149,100.5 149,59.5 174.5,38 C191.5,23.6666667 211,15 233,12 L239,16 C215.666667,19.3333333 195.5,28.3333333 178.5,43 C153,65 153.168885,107.690642 120.5,126.5 C98.7207435,139.039572 61.2207435,142.039572 8,135.5 L8,129 Z" id="Path-29"></path>
                <path d="M18,142 C70,148.333333 106.5,144.833333 127.5,131.5 C159,111.5 159,70.5 184.5,49 C201.5,34.6666667 221,26 243,23 L249,27 C225.666667,30.3333333 205.5,39.3333333 188.5,54 C163,76 163.168885,118.690642 130.5,137.5 C108.720744,150.039572 71.2207435,153.706239 18,148.5 L18,142 Z" id="Path-29"></path>
                <path d="M30,156 C82,160.333333 118.5,155.833333 139.5,142.5 C171,122.5 171,81.5 196.5,60 C213.5,45.6666667 233,37 255,34 L261,38 C237.666667,41.3333333 217.5,50.3333333 200.5,65 C175,87 175.168885,129.690642 142.5,148.5 C120.720744,161.039572 83.2207435,165.706239 30,162.5 L30,156 Z" id="Path-29"></path>
                <path d="M39,168 C91,172.333333 127.5,167.833333 148.5,154.5 C180,134.5 180,93.5 205.5,72 C222.5,57.6666667 242,49 264,46 L270,50 C246.666667,53.3333333 226.5,62.3333333 209.5,77 C184,99 184.168885,141.690642 151.5,160.5 C129.720744,173.039572 92.2207435,177.706239 39,174.5 L39,168 Z" id="Path-29"></path>
            </g>
            <path d="M153.5,242 C160.403559,242 166,251.178163 166,262.5 C166,273.821837 160.403559,283 153.5,283 C146.596441,283 141,273.821837 141,262.5 C141,251.178163 146.596441,242 153.5,242 Z M154,244 C149.029437,244 145,250.939586 145,259.5 C145,268.060414 149.029437,275 154,275 C158.970563,275 163,268.060414 163,259.5 C163,250.939586 158.970563,244 154,244 Z" id="Combined-Shape" fill="#EAEB62"></path>
            <path d="M22.5,411 C29.4035594,411 35,420.178163 35,431.5 C35,442.821837 29.4035594,452 22.5,452 C15.5964406,452 10,442.821837 10,431.5 C10,420.178163 15.5964406,411 22.5,411 Z M23,413 C18.0294373,413 14,419.939586 14,428.5 C14,437.060414 18.0294373,444 23,444 C27.9705627,444 32,437.060414 32,428.5 C32,419.939586 27.9705627,413 23,413 Z" id="Combined-Shape" fill="#EAEB62" transform="translate(22.500000, 431.500000) rotate(323.000000) translate(-22.500000, -431.500000) "></path>
            <path d="M335.5,90 C342.403559,90 348,99.1781626 348,110.5 C348,121.821837 342.403559,131 335.5,131 C328.596441,131 323,121.821837 323,110.5 C323,99.1781626 328.596441,90 335.5,90 Z M336,92 C331.029437,92 327,98.9395864 327,107.5 C327,116.060414 331.029437,123 336,123 C340.970563,123 345,116.060414 345,107.5 C345,98.9395864 340.970563,92 336,92 Z" id="Combined-Shape" fill="#EAEB62" transform="translate(335.500000, 110.500000) rotate(323.000000) translate(-335.500000, -110.500000) "></path>
            <path d="M332.5,415 C339.403559,415 345,424.178163 345,435.5 C345,446.821837 339.403559,456 332.5,456 C325.596441,456 320,446.821837 320,435.5 C320,424.178163 325.596441,415 332.5,415 Z M333,417 C328.029437,417 324,423.939586 324,432.5 C324,441.060414 328.029437,448 333,448 C337.970563,448 342,441.060414 342,432.5 C342,423.939586 337.970563,417 333,417 Z" id="Combined-Shape" fill="#EAEB62"></path>
            <circle id="Oval" fill="#FFD564" cx="83" cy="67" r="14"></circle>
            <circle id="Oval" fill="#FFD564" cx="69" cy="101" r="9"></circle>
            <circle id="Oval" fill="#FFD564" cx="121" cy="51" r="7"></circle>
            <circle id="Oval" fill="#B7442F" cx="282" cy="205" r="11"></circle>
            <circle id="Oval" fill="#B7442F" cx="158" cy="414" r="11"></circle>
            <circle id="Oval" fill="#B7442F" cx="168.5" cy="387.5" r="6.5"></circle>
            <circle id="Oval" fill="#B7442F" cx="119.5" cy="409.5" r="6.5"></circle>
            <circle id="Oval" fill="#B7442F" cx="205.5" cy="408.5" r="5.5"></circle>
            <circle id="Oval" fill="#FFD564" cx="399" cy="162" r="14"></circle>
        </g>
    </g>
</svg>