<?xml version="1.0" encoding="UTF-8"?>
<svg width="850px" height="850px" viewBox="0 0 850 850" version="1.1" xmlns="http://www.w3.org/2000/svg" xmlns:xlink="http://www.w3.org/1999/xlink">
    <title>soup7</title>
    <g id="Page-4" stroke="none" stroke-width="1" fill="none" fill-rule="evenodd">
        <g id="Group-27" transform="translate(172.133843, 240.000000)">
            <g id="Group-25" transform="translate(0.000000, 37.000000)">
                <path d="M59.8876426,135.759742 C73.5549382,149.587292 102.666443,142.90292 109.327697,133.127057 C117.386796,121.299757 127.672252,85.855888 127.672252,66.3533545 C127.672252,30.7309881 96.9869677,4.35206581 76.0001472,4.35206581 C55.0133267,4.35206581 38,33.2296995 38,68.8520658 C38,104.474432 42.5398431,118.208534 59.8876426,135.759742 Z" id="Oval" fill="#762500" transform="translate(82.836126, 73.988197) rotate(60.000000) translate(-82.836126, -73.988197) "></path>
                <ellipse id="Oval" fill="#D38649" transform="translate(83.866157, 65.500000) rotate(60.000000) translate(-83.866157, -65.500000) " cx="83.8661568" cy="65.5" rx="38" ry="64.5"></ellipse>
                <path d="M50.8661568,73 C54.1798653,73 56.8661568,70.3137085 56.8661568,67 C56.8661568,63.6862915 57.6798653,61 54.3661568,61 C51.0524483,61 44.8661568,63.6862915 44.8661568,67 C44.8661568,69.7819077 42.2978295,72.8206711 44.8661568,73.5 C45.3571286,73.6298633 50.334356,73 50.8661568,73 Z" id="Oval" fill="#EEB28E"></path>
                <path d="M72.8661568,91 C76.1798653,91 78.8661568,88.3137085 78.8661568,85 C78.8661568,83.8628821 81.4156135,81.4061577 80.8661568,80.5 C79.8144256,78.765497 75.0427474,79 72.8661568,79 C69.5524483,79 66.8661568,81.6862915 66.8661568,85 C66.8661568,86.8658496 65.5303419,89.8995431 66.8661568,91 C67.9027202,91.8539308 71.4182978,91 72.8661568,91 Z" id="Oval" fill="#EEB28E"></path>
                <path d="M89.8661568,70 C92.3514381,70 96.8661568,67.9852814 96.8661568,65.5 C96.8661568,63.0147186 98.3514381,61 95.8661568,61 C93.3808754,61 87.8661568,63.0147186 87.8661568,65.5 C87.8661568,67.9852814 87.3808754,70 89.8661568,70 Z" id="Oval" fill="#EEB28E"></path>
                <circle id="Oval" fill="#EBAE7E" cx="48.3661568" cy="89.5" r="4.5"></circle>
                <circle id="Oval" fill="#EBAE7E" cx="83.3661568" cy="38.5" r="4.5"></circle>
                <circle id="Oval" fill="#EBAE7E" cx="110.366157" cy="32.5" r="3.5"></circle>
            </g>
            <g id="Group-25" transform="translate(339.000000, 272.000000) scale(-1, 1) translate(-339.000000, -272.000000) translate(256.000000, 198.000000)">
                <path d="M59.8876426,135.759742 C73.5549382,149.587292 102.666443,142.90292 109.327697,133.127057 C117.386796,121.299757 127.672252,85.855888 127.672252,66.3533545 C127.672252,30.7309881 96.9869677,4.35206581 76.0001472,4.35206581 C55.0133267,4.35206581 38,33.2296995 38,68.8520658 C38,104.474432 42.5398431,118.208534 59.8876426,135.759742 Z" id="Oval" fill="#762500" transform="translate(82.836126, 73.988197) rotate(60.000000) translate(-82.836126, -73.988197) "></path>
                <ellipse id="Oval" fill="#D38649" transform="translate(83.866157, 65.500000) rotate(60.000000) translate(-83.866157, -65.500000) " cx="83.8661568" cy="65.5" rx="38" ry="64.5"></ellipse>
                <path d="M50.8661568,73 C54.1798653,73 56.8661568,70.3137085 56.8661568,67 C56.8661568,63.6862915 57.6798653,61 54.3661568,61 C51.0524483,61 44.8661568,63.6862915 44.8661568,67 C44.8661568,69.7819077 42.2978295,72.8206711 44.8661568,73.5 C45.3571286,73.6298633 50.334356,73 50.8661568,73 Z" id="Oval" fill="#EEB28E"></path>
                <path d="M72.8661568,91 C76.1798653,91 78.8661568,88.3137085 78.8661568,85 C78.8661568,83.8628821 81.4156135,81.4061577 80.8661568,80.5 C79.8144256,78.765497 75.0427474,79 72.8661568,79 C69.5524483,79 66.8661568,81.6862915 66.8661568,85 C66.8661568,86.8658496 65.5303419,89.8995431 66.8661568,91 C67.9027202,91.8539308 71.4182978,91 72.8661568,91 Z" id="Oval" fill="#EEB28E"></path>
                <path d="M89.8661568,70 C92.3514381,70 96.8661568,67.9852814 96.8661568,65.5 C96.8661568,63.0147186 98.3514381,61 95.8661568,61 C93.3808754,61 87.8661568,63.0147186 87.8661568,65.5 C87.8661568,67.9852814 87.3808754,70 89.8661568,70 Z" id="Oval" fill="#EEB28E"></path>
                <circle id="Oval" fill="#EBAE7E" cx="48.3661568" cy="89.5" r="4.5"></circle>
                <circle id="Oval" fill="#EBAE7E" cx="83.3661568" cy="38.5" r="4.5"></circle>
                <circle id="Oval" fill="#EBAE7E" cx="110.366157" cy="32.5" r="3.5"></circle>
            </g>
            <g id="Group-25" transform="translate(256.000000, 378.000000) scale(1, -1) rotate(210.000000) translate(-256.000000, -378.000000) translate(173.000000, 304.000000)">
                <path d="M59.8876426,135.759742 C73.5549382,149.587292 102.666443,142.90292 109.327697,133.127057 C117.386796,121.299757 127.672252,85.855888 127.672252,66.3533545 C127.672252,30.7309881 96.9869677,4.35206581 76.0001472,4.35206581 C55.0133267,4.35206581 38,33.2296995 38,68.8520658 C38,104.474432 42.5398431,118.208534 59.8876426,135.759742 Z" id="Oval" fill="#762500" transform="translate(82.836126, 73.988197) rotate(60.000000) translate(-82.836126, -73.988197) "></path>
                <ellipse id="Oval" fill="#D38649" transform="translate(83.866157, 65.500000) rotate(60.000000) translate(-83.866157, -65.500000) " cx="83.8661568" cy="65.5" rx="38" ry="64.5"></ellipse>
                <path d="M50.8661568,73 C54.1798653,73 56.8661568,70.3137085 56.8661568,67 C56.8661568,63.6862915 57.6798653,61 54.3661568,61 C51.0524483,61 44.8661568,63.6862915 44.8661568,67 C44.8661568,69.7819077 42.2978295,72.8206711 44.8661568,73.5 C45.3571286,73.6298633 50.334356,73 50.8661568,73 Z" id="Oval" fill="#EEB28E"></path>
                <path d="M72.8661568,91 C76.1798653,91 78.8661568,88.3137085 78.8661568,85 C78.8661568,83.8628821 81.4156135,81.4061577 80.8661568,80.5 C79.8144256,78.765497 75.0427474,79 72.8661568,79 C69.5524483,79 66.8661568,81.6862915 66.8661568,85 C66.8661568,86.8658496 65.5303419,89.8995431 66.8661568,91 C67.9027202,91.8539308 71.4182978,91 72.8661568,91 Z" id="Oval" fill="#EEB28E"></path>
                <path d="M89.8661568,70 C92.3514381,70 96.8661568,67.9852814 96.8661568,65.5 C96.8661568,63.0147186 98.3514381,61 95.8661568,61 C93.3808754,61 87.8661568,63.0147186 87.8661568,65.5 C87.8661568,67.9852814 87.3808754,70 89.8661568,70 Z" id="Oval" fill="#EEB28E"></path>
                <circle id="Oval" fill="#EBAE7E" cx="48.3661568" cy="89.5" r="4.5"></circle>
                <circle id="Oval" fill="#EBAE7E" cx="83.3661568" cy="38.5" r="4.5"></circle>
                <circle id="Oval" fill="#EBAE7E" cx="110.366157" cy="32.5" r="3.5"></circle>
            </g>
            <g id="Group-25" transform="translate(258.000000, 106.000000) scale(1, -1) rotate(210.000000) translate(-258.000000, -106.000000) translate(175.000000, 32.000000)">
                <path d="M59.8876426,135.759742 C73.5549382,149.587292 102.666443,142.90292 109.327697,133.127057 C117.386796,121.299757 127.672252,85.855888 127.672252,66.3533545 C127.672252,30.7309881 96.9869677,4.35206581 76.0001472,4.35206581 C55.0133267,4.35206581 38,33.2296995 38,68.8520658 C38,104.474432 42.5398431,118.208534 59.8876426,135.759742 Z" id="Oval" fill="#762500" transform="translate(82.836126, 73.988197) rotate(60.000000) translate(-82.836126, -73.988197) "></path>
                <ellipse id="Oval" fill="#D38649" transform="translate(83.866157, 65.500000) rotate(60.000000) translate(-83.866157, -65.500000) " cx="83.8661568" cy="65.5" rx="38" ry="64.5"></ellipse>
                <path d="M50.8661568,73 C54.1798653,73 56.8661568,70.3137085 56.8661568,67 C56.8661568,63.6862915 57.6798653,61 54.3661568,61 C51.0524483,61 44.8661568,63.6862915 44.8661568,67 C44.8661568,69.7819077 42.2978295,72.8206711 44.8661568,73.5 C45.3571286,73.6298633 50.334356,73 50.8661568,73 Z" id="Oval" fill="#EEB28E"></path>
                <path d="M72.8661568,91 C76.1798653,91 78.8661568,88.3137085 78.8661568,85 C78.8661568,83.8628821 81.4156135,81.4061577 80.8661568,80.5 C79.8144256,78.765497 75.0427474,79 72.8661568,79 C69.5524483,79 66.8661568,81.6862915 66.8661568,85 C66.8661568,86.8658496 65.5303419,89.8995431 66.8661568,91 C67.9027202,91.8539308 71.4182978,91 72.8661568,91 Z" id="Oval" fill="#EEB28E"></path>
                <path d="M89.8661568,70 C92.3514381,70 96.8661568,67.9852814 96.8661568,65.5 C96.8661568,63.0147186 98.3514381,61 95.8661568,61 C93.3808754,61 87.8661568,63.0147186 87.8661568,65.5 C87.8661568,67.9852814 87.3808754,70 89.8661568,70 Z" id="Oval" fill="#EEB28E"></path>
                <circle id="Oval" fill="#EBAE7E" cx="48.3661568" cy="89.5" r="4.5"></circle>
                <circle id="Oval" fill="#EBAE7E" cx="83.3661568" cy="38.5" r="4.5"></circle>
                <circle id="Oval" fill="#EBAE7E" cx="110.366157" cy="32.5" r="3.5"></circle>
            </g>
            <polygon id="Path-25" fill="#603A0A" points="341.866157 62 325.366157 59 339.866157 49.5"></polygon>
            <polygon id="Path-25" fill="#603A0A" points="290.866157 215 274.366157 212 288.866157 202.5"></polygon>
            <polygon id="Path-25" fill="#603A0A" points="364.866157 373 348.366157 370 362.866157 360.5"></polygon>
            <polygon id="Path-25" fill="#603A0A" points="424.866157 332 410.866157 334.5 414.866157 322.5"></polygon>
            <polygon id="Path-25" fill="#603A0A" points="414.366157 367 401.366157 358 416.366157 348.5"></polygon>
        </g>
    </g>
</svg>