<?xml version="1.0" encoding="UTF-8"?>
<svg width="850px" height="850px" viewBox="0 0 850 850" version="1.1" xmlns="http://www.w3.org/2000/svg" xmlns:xlink="http://www.w3.org/1999/xlink">
    <title>soup9</title>
    <g id="Page-4" stroke="none" stroke-width="1" fill="none" fill-rule="evenodd">
        <g id="Group-7" transform="translate(171.000000, 206.000000)">
            <circle id="Oval" fill="#844A08" cx="89" cy="199" r="19"></circle>
            <path d="M394,72.5 C404.49341,72.5 413,68.4934102 413,58 C413,47.5065898 404.49341,44 394,44 C383.50659,44 375,47.5065898 375,58 C375,68.4934102 383.50659,72.5 394,72.5 Z" id="Oval" fill="#BB6C14" transform="translate(394.000000, 58.250000) rotate(21.000000) translate(-394.000000, -58.250000) "></path>
            <path d="M94,322.5 C104.49341,322.5 113,318.49341 113,308 C113,297.50659 104.49341,294 94,294 C83.5065898,294 75,297.50659 75,308 C75,318.49341 83.5065898,322.5 94,322.5 Z" id="Oval" fill="#BB6C14" transform="translate(94.000000, 308.250000) rotate(-29.000000) translate(-94.000000, -308.250000) "></path>
            <circle id="Oval" fill="#BB6C14" cx="137" cy="280" r="19"></circle>
            <path d="M342,279.5 C352.49341,279.5 361,275.49341 361,265 C361,254.50659 352.49341,251 342,251 C331.50659,251 323,254.50659 323,265 C323,275.49341 331.50659,279.5 342,279.5 Z" id="Oval" fill="#BB6C14" transform="translate(342.000000, 265.250000) rotate(21.000000) translate(-342.000000, -265.250000) "></path>
            <circle id="Oval" fill="#844A08" cx="285" cy="356" r="19"></circle>
            <circle id="Oval" fill="#BB6C14" cx="308" cy="424" r="19"></circle>
            <circle id="Oval" fill="#844A08" cx="481" cy="161" r="19"></circle>
            <circle id="Oval" fill="#844A08" cx="346" cy="102" r="19"></circle>
            <path d="M23,232.5 C33.4934102,232.5 42,228.49341 42,218 C42,207.50659 33.4934102,204 23,204 C12.5065898,204 4,207.50659 4,218 C4,228.49341 12.5065898,232.5 23,232.5 Z" id="Oval" fill="#CF8129" transform="translate(23.000000, 218.250000) rotate(-56.000000) translate(-23.000000, -218.250000) "></path>
            <path d="M422,190.5 C432.49341,190.5 441,186.49341 441,176 C441,165.50659 432.49341,162 422,162 C411.50659,162 403,165.50659 403,176 C403,186.49341 411.50659,190.5 422,190.5 Z" id="Oval" fill="#CF8129" transform="translate(422.000000, 176.250000) rotate(-29.000000) translate(-422.000000, -176.250000) "></path>
            <polygon id="Path-10" fill="#CA6407" points="117 70.5 146.5 87.5 165.5 68 135 49"></polygon>
            <polygon id="Path-10" fill="#AB5608" points="115 70.5 146.5 89.5 154.5 80 122.5 62.5"></polygon>
            <g id="Group-2" transform="translate(232.000000, 261.000000)">
                <polygon id="Path-10" fill="#CA6407" points="2 21.5 31.5 38.5 50.5 19 20 0"></polygon>
                <polygon id="Path-10" fill="#AB5608" points="0 21.5 31.5 40.5 39.5 31 7.5 13.5"></polygon>
            </g>
            <path d="M299.049967,56.3308082 L275.182521,16.2570729 C272.921665,12.4610623 274.166151,7.55100093 277.96216,5.29014252 C279.790436,4.20124284 281.977206,3.88561918 284.038777,4.41308449 C306.866297,10.2536416 320.020038,15.4492801 323.5,20 C327.137285,24.7564501 323.611667,36.7932288 312.923144,56.1103362 C310.784047,59.9762687 305.91601,61.3761484 302.050076,59.2370538 C300.810322,58.551074 299.774995,57.5481391 299.049967,56.3308082 Z" id="Path-11" fill="#992A13"></path>
            <path d="M294.618419,36.8100678 L286.870594,23.5559712 C284.640856,19.7415953 285.925463,14.8418738 289.73984,12.6121384 C291.656386,11.4918008 293.952288,11.2182174 296.078432,11.8568214 C305.243332,14.6095708 310.668145,17.1082774 312.352871,19.3529412 C314.204265,21.8196661 312.994344,27.4565873 308.72311,36.2637049 C306.795122,40.2391328 302.009459,41.8989143 298.03403,39.9709293 C296.607422,39.2790597 295.418573,38.1788801 294.618419,36.8100678 Z" id="Path-11" fill="#AC3821"></path>
            <polygon id="Path-36" fill="#3F6B30" points="212.5 144 186.5 130 186.5 116 212.5 130"></polygon>
        </g>
    </g>
</svg>