<?xml version="1.0" encoding="UTF-8"?>
<svg width="850px" height="850px" viewBox="0 0 850 850" version="1.1" xmlns="http://www.w3.org/2000/svg" xmlns:xlink="http://www.w3.org/1999/xlink">
    <title>soup5</title>
    <g id="Page-4" stroke="none" stroke-width="1" fill="none" fill-rule="evenodd">
        <g id="Group-15" transform="translate(216.563762, 151.801648)">
            <g id="Group-13" transform="translate(259.432471, 413.698352) rotate(12.000000) translate(-259.432471, -413.698352) translate(140.932471, 295.698352)" fill="#F8F1D2">
                <path d="M0.512709557,8.6840796 C17.9208307,18.8327227 26.6248912,29.3551108 26.6248912,40.2512438 C26.6248912,56.5954432 0.512709557,61.2140353 0.512709557,78.8333333 C0.512709557,96.4526313 28.9987259,98.1243781 28.9987259,117.415423 C28.9987259,136.706468 1.08071874,138.09324 0.512709557,155.997512 C-0.055299631,173.901784 26.6248912,176.150407 26.6248912,194.579602 C26.6248912,206.865732 17.9208307,218.557274 0.512709557,229.654229 L7.63421365,235.5 C26.24615,220.904221 35.7414888,207.264088 36.12023,194.579602 C36.6883419,175.552873 10.0080483,171.196517 10.0080483,155.997512 C10.0080483,140.798507 39.1119944,137.501924 38.4940647,117.415423 C37.8761351,97.3289218 10.5716627,95.4887157 10.0080483,78.8333333 C9.44443402,62.177951 37.4091137,60.2473576 36.12023,40.2512438 C35.2609743,26.9205013 25.7656355,13.6700867 7.63421365,0.5 L0.512709557,8.6840796 Z" id="Path-9"></path>
                <path d="M24.5127096,8.6840796 C41.9208307,18.8327227 50.6248912,29.3551108 50.6248912,40.2512438 C50.6248912,56.5954432 24.5127096,61.2140353 24.5127096,78.8333333 C24.5127096,96.4526313 52.9987259,98.1243781 52.9987259,117.415423 C52.9987259,136.706468 25.0807187,138.09324 24.5127096,155.997512 C23.9447004,173.901784 50.6248912,176.150407 50.6248912,194.579602 C50.6248912,206.865732 41.9208307,218.557274 24.5127096,229.654229 L31.6342137,235.5 C50.24615,220.904221 59.7414888,207.264088 60.12023,194.579602 C60.6883419,175.552873 34.0080483,171.196517 34.0080483,155.997512 C34.0080483,140.798507 63.1119944,137.501924 62.4940647,117.415423 C61.8761351,97.3289218 34.5716627,95.4887157 34.0080483,78.8333333 C33.444434,62.177951 61.4091137,60.2473576 60.12023,40.2512438 C59.2609743,26.9205013 49.7656355,13.6700867 31.6342137,0.5 L24.5127096,8.6840796 Z" id="Path-9"></path>
                <path d="M48.5127096,8.6840796 C65.9208307,18.8327227 74.6248912,29.3551108 74.6248912,40.2512438 C74.6248912,56.5954432 48.5127096,61.2140353 48.5127096,78.8333333 C48.5127096,96.4526313 76.9987259,98.1243781 76.9987259,117.415423 C76.9987259,136.706468 49.0807187,138.09324 48.5127096,155.997512 C47.9447004,173.901784 74.6248912,176.150407 74.6248912,194.579602 C74.6248912,206.865732 65.9208307,218.557274 48.5127096,229.654229 L55.6342137,235.5 C74.24615,220.904221 83.7414888,207.264088 84.12023,194.579602 C84.6883419,175.552873 58.0080483,171.196517 58.0080483,155.997512 C58.0080483,140.798507 87.1119944,137.501924 86.4940647,117.415423 C85.8761351,97.3289218 58.5716627,95.4887157 58.0080483,78.8333333 C57.444434,62.177951 85.4091137,60.2473576 84.12023,40.2512438 C83.2609743,26.9205013 73.7656355,13.6700867 55.6342137,0.5 L48.5127096,8.6840796 Z" id="Path-9"></path>
                <path d="M76.5127096,8.6840796 C93.9208307,18.8327227 102.624891,29.3551108 102.624891,40.2512438 C102.624891,56.5954432 76.5127096,61.2140353 76.5127096,78.8333333 C76.5127096,96.4526313 104.998726,98.1243781 104.998726,117.415423 C104.998726,136.706468 77.0807187,138.09324 76.5127096,155.997512 C75.9447004,173.901784 102.624891,176.150407 102.624891,194.579602 C102.624891,206.865732 93.9208307,218.557274 76.5127096,229.654229 L83.6342137,235.5 C102.24615,220.904221 111.741489,207.264088 112.12023,194.579602 C112.688342,175.552873 86.0080483,171.196517 86.0080483,155.997512 C86.0080483,140.798507 115.111994,137.501924 114.494065,117.415423 C113.876135,97.3289218 86.5716627,95.4887157 86.0080483,78.8333333 C85.444434,62.177951 113.409114,60.2473576 112.12023,40.2512438 C111.260974,26.9205013 101.765635,13.6700867 83.6342137,0.5 L76.5127096,8.6840796 Z" id="Path-9"></path>
                <path d="M100.51271,8.6840796 C117.920831,18.8327227 126.624891,29.3551108 126.624891,40.2512438 C126.624891,56.5954432 100.51271,61.2140353 100.51271,78.8333333 C100.51271,96.4526313 128.998726,98.1243781 128.998726,117.415423 C128.998726,136.706468 101.080719,138.09324 100.51271,155.997512 C99.9447004,173.901784 126.624891,176.150407 126.624891,194.579602 C126.624891,206.865732 117.920831,218.557274 100.51271,229.654229 L107.634214,235.5 C126.24615,220.904221 135.741489,207.264088 136.12023,194.579602 C136.688342,175.552873 110.008048,171.196517 110.008048,155.997512 C110.008048,140.798507 139.111994,137.501924 138.494065,117.415423 C137.876135,97.3289218 110.571663,95.4887157 110.008048,78.8333333 C109.444434,62.177951 137.409114,60.2473576 136.12023,40.2512438 C135.260974,26.9205013 125.765635,13.6700867 107.634214,0.5 L100.51271,8.6840796 Z" id="Path-9"></path>
                <path d="M124.51271,8.6840796 C141.920831,18.8327227 150.624891,29.3551108 150.624891,40.2512438 C150.624891,56.5954432 124.51271,61.2140353 124.51271,78.8333333 C124.51271,96.4526313 152.998726,98.1243781 152.998726,117.415423 C152.998726,136.706468 125.080719,138.09324 124.51271,155.997512 C123.9447,173.901784 150.624891,176.150407 150.624891,194.579602 C150.624891,206.865732 141.920831,218.557274 124.51271,229.654229 L131.634214,235.5 C150.24615,220.904221 159.741489,207.264088 160.12023,194.579602 C160.688342,175.552873 134.008048,171.196517 134.008048,155.997512 C134.008048,140.798507 163.111994,137.501924 162.494065,117.415423 C161.876135,97.3289218 134.571663,95.4887157 134.008048,78.8333333 C133.444434,62.177951 161.409114,60.2473576 160.12023,40.2512438 C159.260974,26.9205013 149.765635,13.6700867 131.634214,0.5 L124.51271,8.6840796 Z" id="Path-9"></path>
                <path d="M150.51271,8.6840796 C167.920831,18.8327227 176.624891,29.3551108 176.624891,40.2512438 C176.624891,56.5954432 150.51271,61.2140353 150.51271,78.8333333 C150.51271,96.4526313 178.998726,98.1243781 178.998726,117.415423 C178.998726,136.706468 151.080719,138.09324 150.51271,155.997512 C149.9447,173.901784 176.624891,176.150407 176.624891,194.579602 C176.624891,206.865732 167.920831,218.557274 150.51271,229.654229 L157.634214,235.5 C176.24615,220.904221 185.741489,207.264088 186.12023,194.579602 C186.688342,175.552873 160.008048,171.196517 160.008048,155.997512 C160.008048,140.798507 189.111994,137.501924 188.494065,117.415423 C187.876135,97.3289218 160.571663,95.4887157 160.008048,78.8333333 C159.444434,62.177951 187.409114,60.2473576 186.12023,40.2512438 C185.260974,26.9205013 175.765635,13.6700867 157.634214,0.5 L150.51271,8.6840796 Z" id="Path-9"></path>
                <path d="M174.51271,8.6840796 C191.920831,18.8327227 200.624891,29.3551108 200.624891,40.2512438 C200.624891,56.5954432 174.51271,61.2140353 174.51271,78.8333333 C174.51271,96.4526313 202.998726,98.1243781 202.998726,117.415423 C202.998726,136.706468 175.080719,138.09324 174.51271,155.997512 C173.9447,173.901784 200.624891,176.150407 200.624891,194.579602 C200.624891,206.865732 191.920831,218.557274 174.51271,229.654229 L181.634214,235.5 C200.24615,220.904221 209.741489,207.264088 210.12023,194.579602 C210.688342,175.552873 184.008048,171.196517 184.008048,155.997512 C184.008048,140.798507 213.111994,137.501924 212.494065,117.415423 C211.876135,97.3289218 184.571663,95.4887157 184.008048,78.8333333 C183.444434,62.177951 211.409114,60.2473576 210.12023,40.2512438 C209.260974,26.9205013 199.765635,13.6700867 181.634214,0.5 L174.51271,8.6840796 Z" id="Path-9"></path>
                <path d="M198.51271,8.6840796 C215.920831,18.8327227 224.624891,29.3551108 224.624891,40.2512438 C224.624891,56.5954432 198.51271,61.2140353 198.51271,78.8333333 C198.51271,96.4526313 226.998726,98.1243781 226.998726,117.415423 C226.998726,136.706468 199.080719,138.09324 198.51271,155.997512 C197.9447,173.901784 224.624891,176.150407 224.624891,194.579602 C224.624891,206.865732 215.920831,218.557274 198.51271,229.654229 L205.634214,235.5 C224.24615,220.904221 233.741489,207.264088 234.12023,194.579602 C234.688342,175.552873 208.008048,171.196517 208.008048,155.997512 C208.008048,140.798507 237.111994,137.501924 236.494065,117.415423 C235.876135,97.3289218 208.571663,95.4887157 208.008048,78.8333333 C207.444434,62.177951 235.409114,60.2473576 234.12023,40.2512438 C233.260974,26.9205013 223.765635,13.6700867 205.634214,0.5 L198.51271,8.6840796 Z" id="Path-9"></path>
            </g>
            <g id="Group-14">
                <path d="M73.3053151,188.198352 C29.9109371,131.828125 6.1330099,94.1292401 1.9715335,75.1016968 C-4.2706811,46.5603819 8.88878757,25.9413239 34.7686745,11.9970413 C60.6485613,-1.94724126 85.6042429,-8.4914832 116.761527,21.0119921 C137.533049,40.6809756 157.757953,76.7407788 177.436238,129.191402 L73.3053151,188.198352 Z" id="Path-14" fill="#FFF2CC"></path>
                <path d="M119.406921,228.355877 C132.495542,223.20516 150.75081,216.974968 155.248668,205.134625 C157.112792,200.22743 149.437896,195.620843 149.43873,187.722139 C149.43923,182.993831 144.928432,166.722973 144.598444,160.635607 C144.180401,152.923874 147.667033,155.509381 144.599363,151.929057 C143.229592,150.330376 140.704691,155.412868 137.818548,155.799351 C133.596987,156.364659 128.688009,152.755448 126.195401,151.931001 C123.074306,150.898678 129.576016,141.682792 129.102721,138.387172 C128.643471,135.189356 121.16081,137.948045 121.354093,134.518413 C121.608749,129.999776 131.218603,131.067249 132.009734,127.745526 C134.624012,116.768944 130.915366,106.871416 137.823964,104.527446 C146.823234,101.474147 150.415841,107.428299 155.25807,116.134338 C160.100298,124.840376 171.234246,95.9615467 149.449358,87.1131187 C127.66447,78.2646908 138.934338,77.9488011 115.546607,93.8884608 C109.766315,97.8279582 97.044773,114.14441 96.1712569,120.010157 C95.1330622,126.981736 106.457185,123.534399 104.888106,127.748391 C102.435728,134.334609 91.4432011,130.852492 90.3572313,141.293448 C89.3082116,151.37915 106.126149,160.518067 112.632952,167.410744 C116.405047,171.406536 109.088553,174.306311 112.63193,177.084689 C116.758678,180.32049 121.349647,176.608961 121.349086,181.92074 C121.348708,185.492282 114.363381,189.549791 112.629989,195.465183 C111.147867,200.523085 115.125709,207.661487 112.628558,209.008705 C109.049821,210.939441 102.863401,201.365892 99.0686638,200.303587 C95.9844312,199.440183 97.6059954,206.95266 96.1618554,209.010444 C94.8703238,210.850774 90.3502806,207.093256 90.350078,209.011058 C90.3489482,219.705831 100.893761,235.641294 119.406921,228.355877 Z" id="Path-16" fill="#B63E14" transform="translate(126.372299, 155.622562) rotate(40.000000) translate(-126.372299, -155.622562) "></path>
                <path d="M116.12844,223.439211 C129.217061,218.288494 147.472329,212.058302 151.970187,200.217959 C153.834311,195.310763 146.159415,190.704177 146.160249,182.805473 C146.160749,178.077164 141.649951,161.806306 141.319963,155.71894 C140.90192,148.007207 144.388552,150.592715 141.320882,147.01239 C139.951111,145.413709 137.42621,150.496202 134.540066,150.882684 C130.318506,151.447992 125.409528,147.838781 122.91692,147.014334 C119.795825,145.982011 126.297535,136.766126 125.82424,133.470505 C125.36499,130.272689 117.882329,133.031379 118.075612,129.601746 C118.330268,125.08311 127.940122,126.150582 128.731253,122.82886 C131.345531,111.852278 127.636885,101.954749 134.545483,99.6107796 C143.544752,96.5574799 147.13736,102.511633 151.979589,111.217671 C156.821817,119.923709 167.955765,91.0448801 146.170877,82.1964521 C124.385989,73.3480241 135.655857,73.0321344 112.268126,88.9717942 C106.487834,92.9112915 93.766292,109.227743 92.8927759,115.09349 C91.8545812,122.065069 103.178704,118.617732 101.609625,122.831725 C99.1572468,129.417942 88.1647201,125.935825 87.0787503,136.376781 C86.0297306,146.462483 102.847668,155.601401 109.354471,162.494078 C113.126566,166.48987 105.810072,169.389644 109.353449,172.168022 C113.480197,175.403823 118.071166,171.692294 118.070605,177.004073 C118.070227,180.575615 111.0849,184.633124 109.351508,190.548516 C107.869386,195.606419 111.847228,202.744821 109.350077,204.092038 C105.77134,206.022774 99.5849202,196.449225 95.7901828,195.386921 C92.7059501,194.523516 94.3275144,202.035993 92.8833744,204.093778 C91.5918428,205.934107 87.0717996,202.176589 87.071597,204.094391 C87.0704672,214.789164 97.6152795,230.724627 116.12844,223.439211 Z" id="Path-16" fill="#E1CD5C" transform="translate(123.093818, 150.705896) rotate(40.000000) translate(-123.093818, -150.705896) "></path>
                <path d="M204.841965,122.997148 C214.360933,119.546271 227.637569,115.372462 230.907489,107.436577 C232.262698,104.147573 226.680034,101.058909 226.679669,95.7645099 C226.67945,92.5951859 223.396659,81.6884942 223.155903,77.6081715 C222.850904,72.4390458 225.387116,74.1724997 223.155501,71.7722837 C222.159043,70.7005425 220.323261,74.1069663 218.224162,74.3656716 C215.15381,74.7440797 211.582973,72.3242785 209.769951,71.7713609 C207.499792,71.0790303 212.227475,64.9025277 211.882833,62.6934588 C211.548419,60.5499482 206.106477,62.3981571 206.246633,60.0993423 C206.431293,57.0705894 213.420854,57.7872646 213.995849,55.5608527 C215.895912,48.2037077 213.197327,41.5690737 218.221792,39.9987765 C224.766756,37.9532775 227.38046,41.9447038 230.903376,47.7808345 C234.426291,53.6169652 242.520669,34.2612054 226.675019,28.3275836 C210.829368,22.3939618 219.026117,22.1835881 202.017739,32.8649076 C197.814108,35.5048027 188.563497,46.4399711 187.928894,50.3715998 C187.174653,55.0444337 195.410478,52.7350979 194.269775,55.5594928 C192.486925,59.9738525 184.491424,57.6385051 183.702862,64.636812 C182.941131,71.3970009 195.17426,77.5247333 199.90763,82.1455926 C202.651637,84.8243766 197.330569,86.7671733 199.908077,88.6299125 C202.909937,90.7993271 206.248578,88.3120927 206.248824,91.8725095 C206.248989,94.2664679 201.168928,96.9853188 199.908926,100.95012 C198.831573,104.340188 201.725611,109.125447 199.909552,110.028168 C197.306906,111.321882 192.806228,104.904108 190.046113,104.1916 C187.802786,103.612498 188.983105,108.648211 187.933007,110.027342 C186.993878,111.260735 183.705903,108.741573 183.705992,110.027051 C183.706486,117.195619 191.377888,127.878229 204.841965,122.997148 Z" id="Path-16" fill="#E1CD5C" transform="translate(209.895195, 74.245298) rotate(-20.000000) translate(-209.895195, -74.245298) "></path>
                <path d="M201.551541,213.137526 C211.070507,209.684769 224.347028,205.508377 227.618126,197.571416 C228.973823,194.281967 223.392053,191.194081 223.392612,185.899346 C223.392947,182.72982 220.112269,171.823008 219.872241,167.742468 C219.568163,162.573067 222.103912,164.306189 219.872857,161.90621 C218.87665,160.834574 217.040389,164.241535 214.941378,164.500623 C211.871156,164.879591 208.300968,162.46026 206.488158,161.907623 C204.218264,161.215645 208.946725,155.037925 208.60249,152.828776 C208.268472,150.685187 202.826553,152.534463 202.967102,150.235478 C203.152279,147.2065 210.14127,147.922001 210.716618,145.695347 C212.617845,138.337403 209.920589,131.702818 214.945009,130.131544 C221.489914,128.084773 224.102756,132.075996 227.624429,137.911883 C231.146101,143.74777 239.243344,124.389367 223.399736,118.458134 C207.556128,112.526901 215.752394,112.315083 198.743231,123.000051 C194.539406,125.640847 185.287474,136.578326 184.652224,140.510315 C183.897216,145.183578 192.132921,142.872657 190.991797,145.697431 C189.208289,150.112382 181.213704,147.778282 180.42397,154.777172 C179.661107,161.537923 191.89239,167.663909 196.624652,172.284236 C199.368018,174.962711 194.046948,176.90656 196.623967,178.768968 C199.625257,180.937997 202.964121,178.450021 202.963745,182.010664 C202.963492,184.404775 197.883279,187.124685 196.622665,191.089959 C195.544789,194.48043 198.437807,199.265488 196.621706,200.168583 C194.019,201.462834 189.519728,195.045438 186.759912,194.333366 C184.516829,193.754619 185.696194,198.790446 184.645922,200.169848 C183.706638,201.403484 180.419311,198.884735 180.419175,200.170295 C180.418418,207.339318 188.087468,218.021268 201.551541,213.137526 Z" id="Path-16" fill="#B63E14" transform="translate(206.616644, 164.382210) rotate(-140.000000) translate(-206.616644, -164.382210) "></path>
                <path d="M5.43623763,37.5532603 C32.5797829,92.5788691 48.5944746,118.729654 53.4803128,116.005613 C58.3661509,113.281573 44.5229428,84.679153 11.9506885,30.1983522 L5.43623763,37.5532603 Z" id="Path-15" fill="#DDB577"></path>
                <path d="M22.4362376,18.9645435 C50.8318695,75.0503127 67.4869997,101.731892 72.4016283,99.009282 C77.3074492,96.2915512 64.9035624,67.5091382 32.2654948,13.2470622 C32.22643,13.1821155 31.6803602,13.1821155 30.6272853,13.2470622 L22.4362376,18.9645435 Z" id="Path-15" fill="#DDB577"></path>
                <path d="M45.4362376,7.12812977 C72.5639851,62.4511897 88.5693561,88.7433369 93.4523507,86.0045716 C98.3353452,83.2658062 85.0427489,55.3303998 53.5745619,2.19835215 L45.4362376,7.12812977 Z" id="Path-15" fill="#DDB577"></path>
                <path d="M69.4362376,1.02109398 C96.5557345,56.4190436 112.556238,82.746782 117.437747,80.0043093 C122.319256,77.2618365 109.301898,50.6598508 78.3856716,0.198352152 L69.4362376,1.02109398 Z" id="Path-15" fill="#DDB577"></path>
                <polygon id="Path-17" fill="#D05033" points="56.4362376 156.198352 58.0362376 145.198352 62.8362376 145.198352 64.4362376 153.659891"></polygon>
                <polygon id="Path-17" fill="#D05033" points="84.4362376 160.948352 86.1862376 151.198352 91.4362376 156.073352 91.4362376 164.198352"></polygon>
                <polygon id="Path-17" fill="#D05033" points="192.436238 104.198352 194.036238 93.1983522 198.836238 93.1983522 200.436238 101.659891"></polygon>
                <polygon id="Path-17" fill="#D05033" points="220.436238 108.948352 222.186238 99.1983522 227.436238 104.073352 227.436238 112.198352"></polygon>
                <polygon id="Path-17" fill="#D05033" points="189.436238 74.1983522 191.036238 63.1983522 195.836238 63.1983522 197.436238 71.6598906"></polygon>
                <polygon id="Path-17" fill="#D05033" points="216.436238 78.9483522 218.186238 69.1983522 223.436238 74.0733522 223.436238 82.1983522"></polygon>
                <polygon id="Path-17" fill="#D05033" points="118.436238 49.9483522 120.186238 40.1983522 125.436238 45.0733522 125.436238 53.1983522"></polygon>
                <polygon id="Path-17" fill="#D05033" points="148.436238 103.948352 150.186238 94.1983522 155.436238 99.0733522 155.436238 107.198352"></polygon>
                <polygon id="Path-17" fill="#D05033" points="177.436238 126.948352 179.186238 117.198352 184.436238 122.073352 184.436238 130.198352"></polygon>
                <polygon id="Path-17" fill="#D05033" points="115.436238 183.948352 117.186238 174.198352 122.436238 179.073352 122.436238 187.198352"></polygon>
                <polygon id="Path-17" fill="#D05033" points="131.436238 126.948352 133.186238 117.198352 138.436238 122.073352 138.436238 130.198352"></polygon>
                <polygon id="Path-17" fill="#D05033" points="68.4362376 194.198352 70.0362376 183.198352 74.8362376 183.198352 76.4362376 191.659891"></polygon>
                <polygon id="Path-17" fill="#D05033" points="95.4362376 198.948352 97.1862376 189.198352 102.436238 194.073352 102.436238 202.198352"></polygon>
            </g>
        </g>
    </g>
</svg>