<?xml version="1.0" encoding="UTF-8"?>
<svg width="850px" height="850px" viewBox="0 0 850 850" version="1.1" xmlns="http://www.w3.org/2000/svg" xmlns:xlink="http://www.w3.org/1999/xlink">
    <title>soup2</title>
    <g id="Page-4" stroke="none" stroke-width="1" fill="none" fill-rule="evenodd">
        <circle id="bowl_outer" fill="#1895A7" cx="424.5" cy="424.5" r="332"></circle>
        <circle id="bowl_inner" fill="#235E67" cx="424.5" cy="424.5" r="309"></circle>
        <circle id="broth" fill="#7C725D" cx="424.5" cy="424.5" r="274"></circle>
        <path d="M555.5,254.119491 C620.166667,119.373164 658,50 669,46 C685.5,40 687.5,39.5 693,46 C698.5,52.5 698.5,51.5 698.5,64.5 C698.5,73.1666667 656.5,139 572.5,262 L555.5,254.119491 Z" id="spoon1" fill="#C48965"></path>
        <path d="M581.5,269.5 C679.5,144.5 731.166667,82 736.5,82 C744.5,82 753.5,88 753.5,101 C753.5,109.666667 701.333333,169.666667 597,281 L581.5,269.5 Z" id="spoon1" fill="#AB7554"></path>
        <path d="M212,386.5 C160.666667,353.5 167.5,310.833333 232.5,258.5 C297.5,206.166667 344,206.166667 372,258.5 C359.259267,249.020982 346.425933,249.020982 333.5,258.5 C326.639301,263.531179 332.932903,278.48 326.5,288.5 C322.708641,294.405486 312.875308,302.73882 297,313.5 L318,330.5 L292,353 L278.5,330.5 C272.167228,341.211683 267.167228,347.211683 263.5,348.5 C238.350892,357.335016 219.330033,352.82734 212,359 C203.066675,366.5228 203.066675,375.689467 212,386.5 Z" id="topping" fill="#DEAD6B"></path>
    </g>
</svg>