<?xml version="1.0" encoding="UTF-8"?>
<svg width="850px" height="850px" viewBox="0 0 850 850" version="1.1" xmlns="http://www.w3.org/2000/svg" xmlns:xlink="http://www.w3.org/1999/xlink">
    <title>soup4</title>
    <g id="Page-4" stroke="none" stroke-width="1" fill="none" fill-rule="evenodd">
        <g id="Group-21" transform="translate(208.768939, 222.000000)">
            <path d="M9.73106116,157 C-3.24368705,128.888409 -3.24368705,105.388409 9.73106116,86.5 C29.1931835,58.1673865 47.1217877,76.4558663 64.7310612,54.5 C76.4705768,39.8627558 78.3039102,21.6960891 70.2310612,0 C95.0466192,11.5917808 101.213286,29.7584475 88.7310612,54.5 C70.0077241,91.6123288 64.5572976,66.6226599 32.7310612,99 C11.5135702,120.584893 3.84690357,139.918227 9.73106116,157 Z" id="Path-18" fill="#454F0D"></path>
            <path d="M263.731061,475 C250.756313,446.888409 250.756313,423.388409 263.731061,404.5 C283.193183,376.167387 301.121788,394.455866 318.731061,372.5 C330.470577,357.862756 332.30391,339.696089 324.231061,318 C349.046619,329.591781 355.213286,347.758447 342.731061,372.5 C324.007724,409.612329 318.557298,384.62266 286.731061,417 C265.51357,438.584893 257.846904,457.918227 263.731061,475 Z" id="Path-18" fill="#454F0D"></path>
            <path d="M344.642989,305.043118 C354.177338,304.366635 365.431886,294.584189 378.406634,275.69578 C397.868757,247.363167 408.722182,280.934027 426.331455,258.978161 C438.070971,244.340917 439.904304,226.17425 431.831455,204.478161 C456.647013,216.069942 462.81368,234.236608 450.331455,258.978161 C431.608118,296.09049 443.066323,285.513989 411.240087,317.891329 C390.022596,339.476223 367.823563,335.193486 344.642989,305.043118 Z" id="Path-18" fill="#454F0D" transform="translate(400.620235, 267.938953) rotate(13.000000) translate(-400.620235, -267.938953) "></path>
            <path d="M134.731061,402 C160.089646,402.888409 179.256313,393.888409 192.231061,375 C211.693183,346.667387 221.621788,379.455866 239.231061,357.5 C250.970577,342.862756 258.637243,324.696089 262.231061,303 C287.046619,314.591781 293.213286,332.758447 280.731061,357.5 C262.007724,394.612329 256.557298,369.62266 224.731061,402 C203.51357,423.584893 173.51357,423.584893 134.731061,402 Z" id="Path-18" fill="#454F0D"></path>
            <path d="M29.7310612,138 C55.0896463,138.888409 74.2563129,129.888409 87.2310612,111 C106.693183,82.6673865 116.621788,115.455866 134.231061,93.5 C145.970577,78.8627558 153.637243,60.6960891 157.231061,39 C182.046619,50.5917808 188.213286,68.7584475 175.731061,93.5 C157.007724,130.612329 151.557298,105.62266 119.731061,138 C98.5135702,159.584893 68.5135702,159.584893 29.7310612,138 Z" id="Path-18" fill="#454F0D"></path>
            <path d="M252.231061,186.5 C238.454378,166.113355 242.621045,152.113355 264.731061,144.5 C297.896086,133.079968 309.00552,134.60686 334.731061,153 C360.456602,171.39314 361.755671,194.131665 353.731061,211.5 C348.381321,223.07889 330.881321,227.745556 301.231061,225.5 C302.307574,211.162638 299.140907,200.329304 291.731061,193 C284.321215,185.670696 271.154548,183.504029 252.231061,186.5 Z" id="Path-19" fill="#9E1F17"></path>
            <path d="M30.2310612,372.5 C16.4543782,352.113355 20.6210449,338.113355 42.7310612,330.5 C75.8960856,319.079968 87.0055205,320.60686 112.731061,339 C138.456602,357.39314 139.755671,380.131665 131.731061,397.5 C126.381321,409.07889 108.881321,413.745556 79.2310612,411.5 C80.3075739,397.162638 77.1409072,386.329304 69.7310612,379 C62.3212151,371.670696 49.1545485,369.504029 30.2310612,372.5 Z" id="Path-19" fill="#9E1F17" transform="translate(79.193596, 367.649335) scale(-1, 1) rotate(135.000000) translate(-79.193596, -367.649335) "></path>
        </g>
    </g>
</svg>