<?xml version="1.0" encoding="UTF-8"?>
<svg width="850px" height="850px" viewBox="0 0 850 850" version="1.1" xmlns="http://www.w3.org/2000/svg" xmlns:xlink="http://www.w3.org/1999/xlink">
    <title>soup2</title>
    <g id="Page-4" stroke="none" stroke-width="1" fill="none" fill-rule="evenodd">
        <g id="Group-9" transform="translate(189.838602, 316.500000)">
            <polygon id="Path-12" fill="#DF7437" points="327.161398 69 381.161398 0 449.661398 42 396.661398 108"></polygon>
            <polygon id="Path-12" fill="#DF7437" points="303.161398 162.5 342.661398 108.5 400.661398 133 339.161398 189"></polygon>
            <polygon id="Path-12" fill="#DF7437" points="406.661398 127 440.661398 82.5 493.661398 118.5 437.161398 167"></polygon>
            <g id="Group-5" transform="translate(0.000000, 78.000000)">
                <path d="M34.6613984,141 C13.1388971,118.509097 1.63889713,95.0090968 0.161398384,70.5 C-1.31610036,45.9909032 7.35056631,22.4909032 26.1613984,0 L112.161398,22 L118.661398,102.5 L34.6613984,141 Z" id="Path-13" fill="#DCAD3B"></path>
                <path d="M34.6613984,141 C13.1388971,118.509097 1.63889713,95.0090968 0.161398384,70.5 C-1.31610036,45.9909032 7.35056631,22.4909032 26.1613984,0 L43.6031573,4.46184529 C30.5442494,33.42685 24.3969964,55.4395682 25.1613984,70.5 C25.9258003,85.5604318 34.2628032,106.690694 50.172407,133.890788 L34.6613984,141 Z" id="Path-13" fill="#174D26"></path>
            </g>
            <g id="Group-5" transform="translate(151.500000, 134.500000) rotate(15.000000) translate(-151.500000, -134.500000) translate(92.000000, 64.000000)">
                <path d="M34.6613984,141 C13.1388971,118.509097 1.63889713,95.0090968 0.161398384,70.5 C-1.31610036,45.9909032 7.35056631,22.4909032 26.1613984,0 L112.161398,22 L118.661398,102.5 L34.6613984,141 Z" id="Path-13" fill="#DCAD3B"></path>
                <path d="M34.6613984,141 C13.1388971,118.509097 1.63889713,95.0090968 0.161398384,70.5 C-1.31610036,45.9909032 7.35056631,22.4909032 26.1613984,0 L43.6031573,4.46184529 C30.5442494,33.42685 24.3969964,55.4395682 25.1613984,70.5 C25.9258003,85.5604318 34.2628032,106.690694 50.172407,133.890788 L34.6613984,141 Z" id="Path-13" fill="#174D26"></path>
            </g>
        </g>
    </g>
</svg>