<?xml version="1.0" encoding="UTF-8"?>
<svg width="850px" height="850px" viewBox="0 0 850 850" version="1.1" xmlns="http://www.w3.org/2000/svg" xmlns:xlink="http://www.w3.org/1999/xlink">
    <title>soup2</title>
    <g id="Page-4" stroke="none" stroke-width="1" fill="none" fill-rule="evenodd">
        <g id="Group-8" transform="translate(183.666682, 205.359719)">
            <path d="M41.8333183,147.640281 C41.8333183,156.306948 35.3333183,160.640281 22.3333183,160.640281 C-14.7914725,160.640281 -5.41271057,96.8152893 48.8333183,53.1402814 C105.46438,7.54501649 154.790841,5.1460395 161.833318,45.6402814 C163.166652,53.3069481 159.166652,58.9736148 149.833318,62.6402814 C153.499985,57.9736148 152.499985,54.6402814 146.833318,52.6402814 C138.333318,49.6402814 134.879082,63.4733879 127.833318,68.6402814 C123.259519,71.994401 114.259519,81.6610677 100.833318,97.6402814 L134.333318,125.140281 L108.333318,147.640281 L79.8333183,113.140281 C62.5626519,124.028091 52.2293186,130.361424 48.8333183,132.140281 C38.3333183,137.640281 35.3333183,135.640281 32.8333183,139.640281 C27.075744,148.8524 30.075744,151.519067 41.8333183,147.640281 Z" id="topping" stroke="#41300C" stroke-width="3" fill="#DEAD6B"></path>
            <path d="M197.833318,167.640281 C197.833318,176.306948 191.333318,180.640281 178.333318,180.640281 C141.208527,180.640281 150.587289,116.815289 204.833318,73.1402814 C261.46438,27.5450165 310.790841,25.1460395 317.833318,65.6402814 C319.166652,73.3069481 315.166652,78.9736148 305.833318,82.6402814 C309.499985,77.9736148 308.499985,74.6402814 302.833318,72.6402814 C294.333318,69.6402814 290.879082,83.4733879 283.833318,88.6402814 C279.259519,91.994401 270.259519,101.661068 256.833318,117.640281 L290.333318,145.140281 L264.333318,167.640281 L235.833318,133.140281 C218.562652,144.028091 208.229319,150.361424 204.833318,152.140281 C194.333318,157.640281 191.333318,155.640281 188.833318,159.640281 C183.075744,168.8524 186.075744,171.519067 197.833318,167.640281 Z" id="topping" stroke="#41300C" stroke-width="3" fill="#DEAD6B" transform="translate(237.041659, 108.820141) rotate(52.000000) translate(-237.041659, -108.820141) "></path>
            <path d="M130.833318,355.640281 C165.394845,322.368506 206.228178,308.201839 253.333318,313.140281 C300.438459,318.078724 342.271792,340.912057 378.833318,381.640281 L386.333318,378.140281 C349.666652,334.806948 305.333318,310.640281 253.333318,305.640281 C201.333318,300.640281 161.666652,313.973615 134.333318,345.640281 L130.833318,355.640281 Z" id="Path-10" fill="#655532"></path>
            <path d="M130.833318,372.640281 C165.394845,339.368506 206.228178,325.201839 253.333318,330.140281 C300.438459,335.078724 342.271792,357.912057 378.833318,398.640281 L386.333318,395.140281 C349.666652,351.806948 305.333318,327.640281 253.333318,322.640281 C201.333318,317.640281 161.666652,330.973615 134.333318,362.640281 L130.833318,372.640281 Z" id="Path-10" fill="#655532"></path>
            <path d="M130.833318,390.640281 C165.394845,357.368506 206.228178,343.201839 253.333318,348.140281 C300.438459,353.078724 342.271792,375.912057 378.833318,416.640281 L386.333318,413.140281 C349.666652,369.806948 305.333318,345.640281 253.333318,340.640281 C201.333318,335.640281 161.666652,348.973615 134.333318,380.640281 L130.833318,390.640281 Z" id="Path-10" fill="#655532"></path>
            <path d="M130.833318,408.640281 C165.394845,375.368506 206.228178,361.201839 253.333318,366.140281 C300.438459,371.078724 342.271792,393.912057 378.833318,434.640281 L386.333318,431.140281 C349.666652,387.806948 305.333318,363.640281 253.333318,358.640281 C201.333318,353.640281 161.666652,366.973615 134.333318,398.640281 L130.833318,408.640281 Z" id="Path-10" fill="#655532"></path>
            <path d="M130.833318,425.640281 C165.394845,392.368506 206.228178,378.201839 253.333318,383.140281 C300.438459,388.078724 331.105125,406.412057 345.333318,438.140281 L352.833318,434.640281 C338.499985,400.306948 305.333318,380.640281 253.333318,375.640281 C201.333318,370.640281 161.666652,383.973615 134.333318,415.640281 L130.833318,425.640281 Z" id="Path-10" fill="#655532"></path>
        </g>
    </g>
</svg>