<?xml version="1.0" encoding="UTF-8"?>
<svg width="850px" height="850px" viewBox="0 0 850 850" version="1.1" xmlns="http://www.w3.org/2000/svg" xmlns:xlink="http://www.w3.org/1999/xlink">
    <title>soup8</title>
    <g id="Page-4" stroke="none" stroke-width="1" fill="none" fill-rule="evenodd">
        <g id="Group-3" transform="translate(66.000000, 45.880509)">
            <ellipse id="bowl_outer" fill="#BA6547" cx="358.5" cy="378.619491" rx="358" ry="357.5"></ellipse>
            <circle id="bowl_inner" fill="#7C4230" cx="358.5" cy="378.619491" r="335"></circle>
            <circle id="broth" fill="#E9B25B" cx="358.5" cy="378.619491" r="309"></circle>
            <path d="M557.418443,213.433239 C635.656772,85.3704216 680.275937,19.3390128 691.275937,15.3390128 C707.775937,9.33901278 704.652584,9.92465112 716.54087,16.3552173 C728.429156,22.7857835 714.69684,36.9386887 714.69684,49.9386887 C714.69684,58.6053554 670.770708,119.603539 582.918443,232.933239 L557.418443,213.433239 Z" id="spoon1" fill="#B4D3D6" transform="translate(639.401959, 122.049782) rotate(8.000000) translate(-639.401959, -122.049782) "></path>
            <path d="M569.312095,225.770434 C658.389634,85.6001865 705.59507,15.5150626 710.928403,15.5150626 C718.928403,15.5150626 722.616249,24.6033909 722.616249,37.6033909 C722.616249,46.2700576 675.939847,111.736606 582.587043,234.003038 L569.312095,225.770434 Z" id="spoon1" fill="#8CAAAD" transform="translate(645.964172, 124.759050) rotate(8.000000) translate(-645.964172, -124.759050) "></path>
        </g>
        <g id="Group-32" transform="translate(146.311869, 261.500000)">
            <g id="Group-29" transform="translate(70.000000, 0.000000)">
                <path d="M102.688131,228 C57.6306142,196.318757 28.1306142,167.985424 14.1881309,143 C0.245647467,118.014576 -3.4210192,87.0145762 3.18813085,50 C7.37180186,46.4941291 10.2051352,43.4941291 11.6881309,41 C13.1711265,38.5058709 14.0044598,35.3392043 14.1881309,31.5 L27.3160918,20.4725128 C28.2671913,21.3669225 30.057871,20.7094182 32.6881309,18.5 C35.3183907,16.2905818 39.2420065,12.1480778 44.4589784,6.0724881 L51.6881309,0 C43.6881309,56.3333333 45.8547975,96.1666667 58.1881309,119.5 C70.5214642,142.833333 98.3547975,172.333333 141.688131,208 C134.523694,210.627268 129.69036,212.793935 127.188131,214.5 C124.685902,216.206065 122.185902,219.039399 119.688131,223 L102.688131,228 Z" id="Path-26" fill="#F3DABE"></path>
                <path d="M39.6881309,9.5 C33.0214642,55.5 32.6881309,89.1666667 38.6881309,110.5 C44.6881309,131.833333 61.3547975,157.166667 88.6881309,186.5 C59.029942,156.646461 41.6966087,131.646461 36.6881309,111.5 C31.679653,91.3535386 31.179653,58.5202053 35.1881309,13 L39.6881309,9.5 Z" id="Path-27" fill="#E0BC93"></path>
                <path d="M26.6881309,18.5 C16.3547975,66.8333333 16.3547975,102.166667 26.6881309,124.5 C37.0214642,146.833333 46.0214642,162.833333 53.6881309,172.5 C45.3547975,165.833333 35.5214642,150.166667 24.1881309,125.5 C12.8547975,100.833333 12.1881309,66.3333333 22.1881309,22 L26.6881309,18.5 Z" id="Path-27" fill="#E0BC93"></path>
                <polygon id="Path-28" fill="#E0BC93" points="123.688131 217.5 98.6881309 198.5 126.188131 215.5"></polygon>
                <polygon id="Path-28" fill="#E0BC93" points="117.688131 225.5 92.6881309 206.5 120.188131 223.5"></polygon>
            </g>
            <g id="Group-29" transform="translate(124.000000, 229.000000) rotate(-35.000000) translate(-124.000000, -229.000000) translate(53.000000, 115.000000)">
                <path d="M102.688131,228 C57.6306142,196.318757 28.1306142,167.985424 14.1881309,143 C0.245647467,118.014576 -3.4210192,87.0145762 3.18813085,50 C7.37180186,46.4941291 10.2051352,43.4941291 11.6881309,41 C13.1711265,38.5058709 14.0044598,35.3392043 14.1881309,31.5 L27.3160918,20.4725128 C28.2671913,21.3669225 30.057871,20.7094182 32.6881309,18.5 C35.3183907,16.2905818 39.2420065,12.1480778 44.4589784,6.0724881 L51.6881309,0 C43.6881309,56.3333333 45.8547975,96.1666667 58.1881309,119.5 C70.5214642,142.833333 98.3547975,172.333333 141.688131,208 C134.523694,210.627268 129.69036,212.793935 127.188131,214.5 C124.685902,216.206065 122.185902,219.039399 119.688131,223 L102.688131,228 Z" id="Path-26" fill="#F3DABE"></path>
                <path d="M39.6881309,9.5 C33.0214642,55.5 32.6881309,89.1666667 38.6881309,110.5 C44.6881309,131.833333 61.3547975,157.166667 88.6881309,186.5 C59.029942,156.646461 41.6966087,131.646461 36.6881309,111.5 C31.679653,91.3535386 31.179653,58.5202053 35.1881309,13 L39.6881309,9.5 Z" id="Path-27" fill="#E0BC93"></path>
                <path d="M26.6881309,18.5 C16.3547975,66.8333333 16.3547975,102.166667 26.6881309,124.5 C37.0214642,146.833333 46.0214642,162.833333 53.6881309,172.5 C45.3547975,165.833333 35.5214642,150.166667 24.1881309,125.5 C12.8547975,100.833333 12.1881309,66.3333333 22.1881309,22 L26.6881309,18.5 Z" id="Path-27" fill="#E0BC93"></path>
                <polygon id="Path-28" fill="#E0BC93" points="123.688131 217.5 98.6881309 198.5 126.188131 215.5"></polygon>
                <polygon id="Path-28" fill="#E0BC93" points="117.688131 225.5 92.6881309 206.5 120.188131 223.5"></polygon>
            </g>
            <g id="Group-29" transform="translate(435.000000, 156.000000) scale(-1, -1) translate(-435.000000, -156.000000) translate(364.000000, 42.000000)">
                <path d="M102.688131,228 C57.6306142,196.318757 28.1306142,167.985424 14.1881309,143 C0.245647467,118.014576 -3.4210192,87.0145762 3.18813085,50 C7.37180186,46.4941291 10.2051352,43.4941291 11.6881309,41 C13.1711265,38.5058709 14.0044598,35.3392043 14.1881309,31.5 L27.3160918,20.4725128 C28.2671913,21.3669225 30.057871,20.7094182 32.6881309,18.5 C35.3183907,16.2905818 39.2420065,12.1480778 44.4589784,6.0724881 L51.6881309,0 C43.6881309,56.3333333 45.8547975,96.1666667 58.1881309,119.5 C70.5214642,142.833333 98.3547975,172.333333 141.688131,208 C134.523694,210.627268 129.69036,212.793935 127.188131,214.5 C124.685902,216.206065 122.185902,219.039399 119.688131,223 L102.688131,228 Z" id="Path-26" fill="#F3DABE"></path>
                <path d="M39.6881309,9.5 C33.0214642,55.5 32.6881309,89.1666667 38.6881309,110.5 C44.6881309,131.833333 61.3547975,157.166667 88.6881309,186.5 C59.029942,156.646461 41.6966087,131.646461 36.6881309,111.5 C31.679653,91.3535386 31.179653,58.5202053 35.1881309,13 L39.6881309,9.5 Z" id="Path-27" fill="#E0BC93"></path>
                <path d="M26.6881309,18.5 C16.3547975,66.8333333 16.3547975,102.166667 26.6881309,124.5 C37.0214642,146.833333 46.0214642,162.833333 53.6881309,172.5 C45.3547975,165.833333 35.5214642,150.166667 24.1881309,125.5 C12.8547975,100.833333 12.1881309,66.3333333 22.1881309,22 L26.6881309,18.5 Z" id="Path-27" fill="#E0BC93"></path>
                <polygon id="Path-28" fill="#E0BC93" points="123.688131 217.5 98.6881309 198.5 126.188131 215.5"></polygon>
                <polygon id="Path-28" fill="#E0BC93" points="117.688131 225.5 92.6881309 206.5 120.188131 223.5"></polygon>
            </g>
            <path d="M192.188131,135.5 C199.09169,135.5 204.688131,144.678163 204.688131,156 C204.688131,167.321837 199.09169,176.5 192.188131,176.5 C185.284571,176.5 179.688131,167.321837 179.688131,156 C179.688131,144.678163 185.284571,135.5 192.188131,135.5 Z M192.688131,137.5 C187.717568,137.5 183.688131,144.439586 183.688131,153 C183.688131,161.560414 187.717568,168.5 192.688131,168.5 C197.658694,168.5 201.688131,161.560414 201.688131,153 C201.688131,144.439586 197.658694,137.5 192.688131,137.5 Z" id="Combined-Shape" fill="#EAEB62" transform="translate(192.188131, 156.000000) rotate(44.000000) translate(-192.188131, -156.000000) "></path>
            <path d="M270.188131,108.5 C277.09169,108.5 282.688131,117.678163 282.688131,129 C282.688131,140.321837 277.09169,149.5 270.188131,149.5 C263.284571,149.5 257.688131,140.321837 257.688131,129 C257.688131,117.678163 263.284571,108.5 270.188131,108.5 Z M270.688131,110.5 C265.717568,110.5 261.688131,117.439586 261.688131,126 C261.688131,134.560414 265.717568,141.5 270.688131,141.5 C275.658694,141.5 279.688131,134.560414 279.688131,126 C279.688131,117.439586 275.658694,110.5 270.688131,110.5 Z" id="Combined-Shape" fill="#EAEB62" transform="translate(270.188131, 129.000000) rotate(323.000000) translate(-270.188131, -129.000000) "></path>
            <path d="M449.188131,281.5 C456.09169,281.5 461.688131,290.678163 461.688131,302 C461.688131,313.321837 456.09169,322.5 449.188131,322.5 C442.284571,322.5 436.688131,313.321837 436.688131,302 C436.688131,290.678163 442.284571,281.5 449.188131,281.5 Z M449.688131,283.5 C444.717568,283.5 440.688131,290.439586 440.688131,299 C440.688131,307.560414 444.717568,314.5 449.688131,314.5 C454.658694,314.5 458.688131,307.560414 458.688131,299 C458.688131,290.439586 454.658694,283.5 449.688131,283.5 Z" id="Combined-Shape" fill="#EAEB62" transform="translate(449.188131, 302.000000) rotate(323.000000) translate(-449.188131, -302.000000) "></path>
            <circle id="Oval" fill="#B7442F" cx="495.188131" cy="98" r="7.5"></circle>
            <circle id="Oval" fill="#B7442F" cx="518.188131" cy="107" r="5.5"></circle>
            <circle id="Oval" fill="#B7442F" cx="351.188131" cy="87" r="6.5"></circle>
            <circle id="Oval" fill="#FFD564" cx="147.688131" cy="363.5" r="14"></circle>
            <circle id="Oval" fill="#FFD564" cx="135.688131" cy="332.5" r="5"></circle>
            <circle id="Oval" fill="#FFD564" cx="118.688131" cy="368.5" r="5"></circle>
        </g>
        <g id="Group-31" transform="translate(225.000000, 169.000000)">
            <g id="Group-30" transform="translate(93.500000, 321.000000)" fill="#FFF1C1">
                <path d="M0,116 C52,124.333333 88.5,121.833333 109.5,108.5 C141,88.5 141,47.5 166.5,26 C183.5,11.6666667 203,3 225,2.20268248e-13 L231,4 C207.666667,7.33333333 187.5,16.3333333 170.5,31 C145,53 145.168885,95.6906421 112.5,114.5 C90.7207435,127.039572 53.2207435,129.706239 0,122.5 L0,116 Z" id="Path-29"></path>
                <path d="M8,129 C60,136.666667 96.5,133.833333 117.5,120.5 C149,100.5 149,59.5 174.5,38 C191.5,23.6666667 211,15 233,12 L239,16 C215.666667,19.3333333 195.5,28.3333333 178.5,43 C153,65 153.168885,107.690642 120.5,126.5 C98.7207435,139.039572 61.2207435,142.039572 8,135.5 L8,129 Z" id="Path-29"></path>
                <path d="M18,142 C70,148.333333 106.5,144.833333 127.5,131.5 C159,111.5 159,70.5 184.5,49 C201.5,34.6666667 221,26 243,23 L249,27 C225.666667,30.3333333 205.5,39.3333333 188.5,54 C163,76 163.168885,118.690642 130.5,137.5 C108.720744,150.039572 71.2207435,153.706239 18,148.5 L18,142 Z" id="Path-29"></path>
                <path d="M30,156 C82,160.333333 118.5,155.833333 139.5,142.5 C171,122.5 171,81.5 196.5,60 C213.5,45.6666667 233,37 255,34 L261,38 C237.666667,41.3333333 217.5,50.3333333 200.5,65 C175,87 175.168885,129.690642 142.5,148.5 C120.720744,161.039572 83.2207435,165.706239 30,162.5 L30,156 Z" id="Path-29"></path>
                <path d="M39,168 C91,172.333333 127.5,167.833333 148.5,154.5 C180,134.5 180,93.5 205.5,72 C222.5,57.6666667 242,49 264,46 L270,50 C246.666667,53.3333333 226.5,62.3333333 209.5,77 C184,99 184.168885,141.690642 151.5,160.5 C129.720744,173.039572 92.2207435,177.706239 39,174.5 L39,168 Z" id="Path-29"></path>
            </g>
            <g id="Group-30" transform="translate(183.500000, 119.000000) rotate(166.000000) translate(-183.500000, -119.000000) translate(48.500000, 31.000000)" fill="#FFF1C1">
                <path d="M0,116 C52,124.333333 88.5,121.833333 109.5,108.5 C141,88.5 141,47.5 166.5,26 C183.5,11.6666667 203,3 225,2.20268248e-13 L231,4 C207.666667,7.33333333 187.5,16.3333333 170.5,31 C145,53 145.168885,95.6906421 112.5,114.5 C90.7207435,127.039572 53.2207435,129.706239 0,122.5 L0,116 Z" id="Path-29"></path>
                <path d="M8,129 C60,136.666667 96.5,133.833333 117.5,120.5 C149,100.5 149,59.5 174.5,38 C191.5,23.6666667 211,15 233,12 L239,16 C215.666667,19.3333333 195.5,28.3333333 178.5,43 C153,65 153.168885,107.690642 120.5,126.5 C98.7207435,139.039572 61.2207435,142.039572 8,135.5 L8,129 Z" id="Path-29"></path>
                <path d="M18,142 C70,148.333333 106.5,144.833333 127.5,131.5 C159,111.5 159,70.5 184.5,49 C201.5,34.6666667 221,26 243,23 L249,27 C225.666667,30.3333333 205.5,39.3333333 188.5,54 C163,76 163.168885,118.690642 130.5,137.5 C108.720744,150.039572 71.2207435,153.706239 18,148.5 L18,142 Z" id="Path-29"></path>
                <path d="M30,156 C82,160.333333 118.5,155.833333 139.5,142.5 C171,122.5 171,81.5 196.5,60 C213.5,45.6666667 233,37 255,34 L261,38 C237.666667,41.3333333 217.5,50.3333333 200.5,65 C175,87 175.168885,129.690642 142.5,148.5 C120.720744,161.039572 83.2207435,165.706239 30,162.5 L30,156 Z" id="Path-29"></path>
                <path d="M39,168 C91,172.333333 127.5,167.833333 148.5,154.5 C180,134.5 180,93.5 205.5,72 C222.5,57.6666667 242,49 264,46 L270,50 C246.666667,53.3333333 226.5,62.3333333 209.5,77 C184,99 184.168885,141.690642 151.5,160.5 C129.720744,173.039572 92.2207435,177.706239 39,174.5 L39,168 Z" id="Path-29"></path>
            </g>
            <path d="M153.5,242 C160.403559,242 166,251.178163 166,262.5 C166,273.821837 160.403559,283 153.5,283 C146.596441,283 141,273.821837 141,262.5 C141,251.178163 146.596441,242 153.5,242 Z M154,244 C149.029437,244 145,250.939586 145,259.5 C145,268.060414 149.029437,275 154,275 C158.970563,275 163,268.060414 163,259.5 C163,250.939586 158.970563,244 154,244 Z" id="Combined-Shape" fill="#EAEB62"></path>
            <path d="M22.5,411 C29.4035594,411 35,420.178163 35,431.5 C35,442.821837 29.4035594,452 22.5,452 C15.5964406,452 10,442.821837 10,431.5 C10,420.178163 15.5964406,411 22.5,411 Z M23,413 C18.0294373,413 14,419.939586 14,428.5 C14,437.060414 18.0294373,444 23,444 C27.9705627,444 32,437.060414 32,428.5 C32,419.939586 27.9705627,413 23,413 Z" id="Combined-Shape" fill="#EAEB62" transform="translate(22.500000, 431.500000) rotate(323.000000) translate(-22.500000, -431.500000) "></path>
            <path d="M335.5,90 C342.403559,90 348,99.1781626 348,110.5 C348,121.821837 342.403559,131 335.5,131 C328.596441,131 323,121.821837 323,110.5 C323,99.1781626 328.596441,90 335.5,90 Z M336,92 C331.029437,92 327,98.9395864 327,107.5 C327,116.060414 331.029437,123 336,123 C340.970563,123 345,116.060414 345,107.5 C345,98.9395864 340.970563,92 336,92 Z" id="Combined-Shape" fill="#EAEB62" transform="translate(335.500000, 110.500000) rotate(323.000000) translate(-335.500000, -110.500000) "></path>
            <path d="M332.5,415 C339.403559,415 345,424.178163 345,435.5 C345,446.821837 339.403559,456 332.5,456 C325.596441,456 320,446.821837 320,435.5 C320,424.178163 325.596441,415 332.5,415 Z M333,417 C328.029437,417 324,423.939586 324,432.5 C324,441.060414 328.029437,448 333,448 C337.970563,448 342,441.060414 342,432.5 C342,423.939586 337.970563,417 333,417 Z" id="Combined-Shape" fill="#EAEB62"></path>
            <circle id="Oval" fill="#FFD564" cx="83" cy="67" r="14"></circle>
            <circle id="Oval" fill="#FFD564" cx="69" cy="101" r="9"></circle>
            <circle id="Oval" fill="#FFD564" cx="121" cy="51" r="7"></circle>
            <circle id="Oval" fill="#B7442F" cx="282" cy="205" r="11"></circle>
            <circle id="Oval" fill="#B7442F" cx="158" cy="414" r="11"></circle>
            <circle id="Oval" fill="#B7442F" cx="168.5" cy="387.5" r="6.5"></circle>
            <circle id="Oval" fill="#B7442F" cx="119.5" cy="409.5" r="6.5"></circle>
            <circle id="Oval" fill="#B7442F" cx="205.5" cy="408.5" r="5.5"></circle>
            <circle id="Oval" fill="#FFD564" cx="399" cy="162" r="14"></circle>
        </g>
    </g>
</svg>