<?xml version="1.0" encoding="UTF-8"?>
<svg width="850px" height="850px" viewBox="0 0 850 850" version="1.1" xmlns="http://www.w3.org/2000/svg" xmlns:xlink="http://www.w3.org/1999/xlink">
    <title>soup4</title>
    <g id="Page-4" stroke="none" stroke-width="1" fill="none" fill-rule="evenodd">
        <g id="Group-36" transform="translate(135.165275, 135.576479)">
            <g id="Group-18" transform="translate(327.745036, 103.000000) scale(-1, 1) rotate(17.000000) translate(-327.745036, -103.000000) translate(247.245036, 20.000000)">
                <path d="M70.6621647,149.94251 C91.9658493,149.969186 128.481428,121.716714 128.434955,84.577057 C128.388393,47.4374001 91.797395,15.4745909 70.4937105,15.4478785 C49.1900259,15.4212017 31.9576871,45.507202 32.0041105,82.6468588 C32.0507218,119.786516 49.3584802,149.915796 70.6621647,149.94251 Z" id="Oval" fill="#EA7A09" transform="translate(80.219533, 82.695194) rotate(40.000000) translate(-80.219533, -82.695194) "></path>
                <ellipse id="Oval" fill="#FF9410" transform="translate(72.833643, 76.497696) rotate(40.000000) translate(-72.833643, -76.497696) " cx="72.8336427" cy="76.4976959" rx="38.5738271" ry="67.2473152"></ellipse>
            </g>
            <g id="Group-17" transform="translate(77.000000, 306.398892) rotate(-31.000000) translate(-77.000000, -306.398892) translate(29.000000, 238.398892)">
                <polygon id="Path-5" fill="#FF9410" points="67.6254371 135.941805 0.625437073 40.091805 52.6862479 0.941805017"></polygon>
                <polygon id="Path-5" fill="#EA7A09" points="67.6806696 135.452586 95.5849249 54.4525862 52.5849249 0.452586249"></polygon>
            </g>
            <path d="M213.334725,445.423521 C238.69331,446.31193 257.859977,437.31193 270.834725,418.423521 C290.296847,390.090908 300.225451,422.879388 317.834725,400.923521 C329.57424,386.286277 337.240907,368.11961 340.834725,346.423521 C365.650283,358.015302 371.816949,376.181969 359.334725,400.923521 C340.611388,438.03585 335.160961,413.046181 303.334725,445.423521 C282.117234,467.008415 252.117234,467.008415 213.334725,445.423521 Z" id="Path-18" fill="#454F0D"></path>
            <path d="M103.334725,224.423521 C128.69331,225.31193 147.859977,216.31193 160.834725,197.423521 C180.296847,169.090908 190.225451,201.879388 207.834725,179.923521 C219.57424,165.286277 227.240907,147.11961 230.834725,125.423521 C255.650283,137.015302 261.816949,155.181969 249.334725,179.923521 C230.611388,217.03585 225.160961,192.046181 193.334725,224.423521 C172.117234,246.008415 142.117234,246.008415 103.334725,224.423521 Z" id="Path-18" fill="#454F0D"></path>
            <path d="M325.834725,272.923521 C312.058042,252.536876 316.224708,238.536876 338.334725,230.923521 C371.499749,219.503489 382.609184,221.030381 408.334725,239.423521 C434.060265,257.816662 435.359335,280.555187 427.334725,297.923521 C421.984985,309.502411 404.484985,314.169078 374.834725,311.923521 C375.911237,297.586159 372.744571,286.752826 365.334725,279.423521 C357.924879,272.094217 344.758212,269.92755 325.834725,272.923521 Z" id="Path-19" fill="#9E1F17"></path>
            <path d="M103.834725,458.923521 C90.0580418,438.536876 94.2247085,424.536876 116.334725,416.923521 C149.499749,405.503489 160.609184,407.030381 186.334725,425.423521 C212.060265,443.816662 213.359335,466.555187 205.334725,483.923521 C199.984985,495.502411 182.484985,500.169078 152.834725,497.923521 C153.911237,483.586159 150.744571,472.752826 143.334725,465.423521 C135.924879,458.094217 122.758212,455.92755 103.834725,458.923521 Z" id="Path-19" fill="#9E1F17" transform="translate(152.797260, 454.072857) scale(-1, 1) rotate(135.000000) translate(-152.797260, -454.072857) "></path>
            <path d="M49.3347248,260.423521 L37.3347248,288.923521 C58.6680581,295.923521 70.8347248,299.423521 73.8347248,299.423521 C76.8347248,299.423521 68.6680581,286.423521 49.3347248,260.423521 Z" id="Path-34" fill="#FFBD44"></path>
            <g id="Group-17" transform="translate(450.484962, 436.541725) rotate(-31.000000) translate(-450.484962, -436.541725) translate(410.484962, 405.541725)">
                <polygon id="Path-5" fill="#EA7A09" points="79.7039261 55.8852586 0.125235472 61.1513769 14.7321201 14.5129922"></polygon>
                <polygon id="Path-5" fill="#FF9410" points="79.7039261 55.8852586 55.98658 0.218953761 14.7321201 14.5129922"></polygon>
            </g>
            <path d="M444.834725,415.923521 L431.334725,430.423521 C451.334725,430.423521 462.834725,430.423521 465.834725,430.423521 C468.834725,430.423521 461.834725,425.590188 444.834725,415.923521 Z" id="Path-34" fill="#FFBD44"></path>
            <path d="M339.86036,53.0092343 L299.030048,142.715117 C308.304434,139.337766 318.27496,130.64909 328.941627,116.64909 C339.608294,102.64909 343.247871,81.435805 339.86036,53.0092343 Z" id="Path-34" fill="#FFBD44" transform="translate(320.057579, 97.862176) rotate(111.000000) translate(-320.057579, -97.862176) "></path>
        </g>
    </g>
</svg>