<?xml version="1.0" encoding="UTF-8"?>
<svg width="850px" height="850px" viewBox="0 0 850 850" version="1.1" xmlns="http://www.w3.org/2000/svg" xmlns:xlink="http://www.w3.org/1999/xlink">
    <title>soup1</title>
    <g id="Page-4" stroke="none" stroke-width="1" fill="none" fill-rule="evenodd">
        <g id="Group-34" transform="translate(182.209599, 307.000000)">
            <g id="Group-33">
                <path d="M65.2904012,136.5 C114.790401,136.5 134.290401,98.5 125.790401,65 C117.290401,31.5 98.479771,4 64.7904012,4 C31.1010315,4 8.29040124,29.5 1.29040124,63 C-5.70959876,96.5 15.7904012,136.5 65.2904012,136.5 Z" id="Oval" fill="#9B431E"></path>
                <path d="M64.7904012,126 C98.479771,126 134.290401,97 125.790401,65 C117.290401,33 98.479771,0 64.7904012,0 C31.1010315,0 3.79040124,31.3106303 3.79040124,65 C3.79040124,98.6893697 31.1010315,126 64.7904012,126 Z" id="Oval" fill="#DD8B62"></path>
                <polygon id="Path-30" fill="#FCC290" points="24.2904012 63 35.7904012 46.5 49.7904012 54.5 36.7904012 73.5"></polygon>
                <circle id="Oval" fill="#F5C9AC" cx="37.2904012" cy="87.5" r="6.5"></circle>
                <circle id="Oval" fill="#F5C9AC" cx="71.2904012" cy="27.5" r="8.5"></circle>
                <circle id="Oval" fill="#F5C9AC" cx="80.2904012" cy="49.5" r="6.5"></circle>
                <polygon id="Path-30" fill="#FCC290" points="58.2904012 96 70.7904012 87.5 79.7904012 96 70.7904012 106.5"></polygon>
                <polygon id="Path-30" fill="#FCC290" points="94.2904012 55 100.790401 46.5 109.790401 55 100.790401 65.5"></polygon>
            </g>
            <g id="Group-33" transform="translate(388.798327, 257.717266) scale(-1, 1) rotate(-19.000000) translate(-388.798327, -257.717266) translate(324.298327, 190.217266)">
                <path d="M61.0711768,134.306111 C110.571177,134.306111 135.290401,98.5 126.790401,65 C118.290401,31.5 99.479771,4 65.7904012,4 C32.1010315,4 9.29040124,29.5 2.29040124,63 C-4.70959876,96.5 11.5711768,134.306111 61.0711768,134.306111 Z" id="Oval" fill="#9B431E"></path>
                <path d="M65.7904012,126 C99.479771,126 135.290401,97 126.790401,65 C118.290401,33 99.479771,0 65.7904012,0 C32.1010315,0 4.79040124,31.3106303 4.79040124,65 C4.79040124,98.6893697 32.1010315,126 65.7904012,126 Z" id="Oval" fill="#DD8B62"></path>
                <polygon id="Path-30" fill="#FCC290" points="25.2904012 63 36.7904012 46.5 50.7904012 54.5 37.7904012 73.5"></polygon>
                <circle id="Oval" fill="#F5C9AC" cx="38.2904012" cy="87.5" r="6.5"></circle>
                <circle id="Oval" fill="#F5C9AC" cx="72.2904012" cy="27.5" r="8.5"></circle>
                <circle id="Oval" fill="#F5C9AC" cx="81.2904012" cy="49.5" r="6.5"></circle>
                <polygon id="Path-30" fill="#FCC290" points="59.2904012 96 71.7904012 87.5 80.7904012 96 71.7904012 106.5"></polygon>
                <polygon id="Path-30" fill="#FCC290" points="95.2904012 55 101.790401 46.5 110.790401 55 101.790401 65.5"></polygon>
            </g>
            <polygon id="Path-31" fill="#C45206" transform="translate(54.540401, 193.000000) rotate(137.000000) translate(-54.540401, -193.000000) " points="20.2904012 197.5 69.7904012 222.5 88.7904012 192.5 40.7904012 163.5"></polygon>
            <polygon id="Path-31" fill="#C45206" transform="translate(453.540401, 134.000000) rotate(303.000000) translate(-453.540401, -134.000000) " points="419.290401 138.5 468.790401 163.5 487.790401 133.5 439.790401 104.5"></polygon>
            <path d="M136.290401,178 C129.465841,140.873451 132.299175,116.540118 144.790401,105 C163.527241,87.6898233 182.579746,104.443039 206.290401,90 C230.001057,75.556961 236.69004,68.0931723 243.290401,57.5 C247.690642,50.4378852 261.190642,46.6045518 283.790401,46 C272.241116,48.4772169 264.407782,60.3105502 260.290401,81.5 C254.114329,113.284175 247.078995,100.90718 220.290401,119 C193.501808,137.09282 198.985843,130.854081 165.790401,150 C143.660107,162.763946 133.826774,172.097279 136.290401,178 Z" id="Path-33" fill="#2F5003"></path>
            <path d="M391.790401,164 C357.299175,138.873451 346.299175,120.540118 358.790401,109 C377.527241,91.6898233 368.579746,103.443039 392.290401,89 C416.001057,74.556961 421.69004,77.5931723 428.290401,67 C432.690642,59.9378852 446.690642,57.4378852 470.290401,59.5 C456.957068,59.5 448.957068,66.5 446.290401,80.5 C442.290401,101.5 433.078995,99.9071802 406.290401,118 C388.431339,130.06188 383.598005,145.395213 391.790401,164 Z" id="Path-33" fill="#2F5003"></path>
        </g>
    </g>
</svg>