<?xml version="1.0" encoding="UTF-8"?>
<svg width="850px" height="850px" viewBox="0 0 850 850" version="1.1" xmlns="http://www.w3.org/2000/svg" xmlns:xlink="http://www.w3.org/1999/xlink">
    <title>soup7</title>
    <g id="Page-4" stroke="none" stroke-width="1" fill="none" fill-rule="evenodd">
        <g id="Group-3" transform="translate(64.000000, 41.000000)">
            <circle id="bowl_outer" fill="#BDCFD3" cx="366.5" cy="383.619491" r="366"></circle>
            <circle id="bowl_inner" fill="#788A8E" cx="366.5" cy="383.619491" r="342"></circle>
            <circle id="broth" fill="#985007" cx="366.5" cy="383.619491" r="312"></circle>
            <path d="M537,166.619491 C594,66.8731637 630,15.6666667 645,13 C667.5,9 667.5,-6.5 680.5,3.11949108 C693.5,12.7389822 680.5,24.5 680.5,37.5 C680.5,46.1666667 640.666667,94.8333333 561,183.5 L537,166.619491 Z" id="spoon1" fill="#D0D0D0"></path>
            <path d="M550,175.5 C634.333333,63.5 679.166667,7.5 684.5,7.5 C692.5,7.5 690,31 693,49 C695,61 651.666667,106.666667 563,186 L550,175.5 Z" id="spoon1" fill="#B6B6B6"></path>
        </g>
        <g id="Group-27" transform="translate(172.133843, 240.000000)">
            <g id="Group-25" transform="translate(0.000000, 37.000000)">
                <path d="M59.8876426,135.759742 C73.5549382,149.587292 102.666443,142.90292 109.327697,133.127057 C117.386796,121.299757 127.672252,85.855888 127.672252,66.3533545 C127.672252,30.7309881 96.9869677,4.35206581 76.0001472,4.35206581 C55.0133267,4.35206581 38,33.2296995 38,68.8520658 C38,104.474432 42.5398431,118.208534 59.8876426,135.759742 Z" id="Oval" fill="#762500" transform="translate(82.836126, 73.988197) rotate(60.000000) translate(-82.836126, -73.988197) "></path>
                <ellipse id="Oval" fill="#D38649" transform="translate(83.866157, 65.500000) rotate(60.000000) translate(-83.866157, -65.500000) " cx="83.8661568" cy="65.5" rx="38" ry="64.5"></ellipse>
                <path d="M50.8661568,73 C54.1798653,73 56.8661568,70.3137085 56.8661568,67 C56.8661568,63.6862915 57.6798653,61 54.3661568,61 C51.0524483,61 44.8661568,63.6862915 44.8661568,67 C44.8661568,69.7819077 42.2978295,72.8206711 44.8661568,73.5 C45.3571286,73.6298633 50.334356,73 50.8661568,73 Z" id="Oval" fill="#EEB28E"></path>
                <path d="M72.8661568,91 C76.1798653,91 78.8661568,88.3137085 78.8661568,85 C78.8661568,83.8628821 81.4156135,81.4061577 80.8661568,80.5 C79.8144256,78.765497 75.0427474,79 72.8661568,79 C69.5524483,79 66.8661568,81.6862915 66.8661568,85 C66.8661568,86.8658496 65.5303419,89.8995431 66.8661568,91 C67.9027202,91.8539308 71.4182978,91 72.8661568,91 Z" id="Oval" fill="#EEB28E"></path>
                <path d="M89.8661568,70 C92.3514381,70 96.8661568,67.9852814 96.8661568,65.5 C96.8661568,63.0147186 98.3514381,61 95.8661568,61 C93.3808754,61 87.8661568,63.0147186 87.8661568,65.5 C87.8661568,67.9852814 87.3808754,70 89.8661568,70 Z" id="Oval" fill="#EEB28E"></path>
                <circle id="Oval" fill="#EBAE7E" cx="48.3661568" cy="89.5" r="4.5"></circle>
                <circle id="Oval" fill="#EBAE7E" cx="83.3661568" cy="38.5" r="4.5"></circle>
                <circle id="Oval" fill="#EBAE7E" cx="110.366157" cy="32.5" r="3.5"></circle>
            </g>
            <g id="Group-25" transform="translate(339.000000, 272.000000) scale(-1, 1) translate(-339.000000, -272.000000) translate(256.000000, 198.000000)">
                <path d="M59.8876426,135.759742 C73.5549382,149.587292 102.666443,142.90292 109.327697,133.127057 C117.386796,121.299757 127.672252,85.855888 127.672252,66.3533545 C127.672252,30.7309881 96.9869677,4.35206581 76.0001472,4.35206581 C55.0133267,4.35206581 38,33.2296995 38,68.8520658 C38,104.474432 42.5398431,118.208534 59.8876426,135.759742 Z" id="Oval" fill="#762500" transform="translate(82.836126, 73.988197) rotate(60.000000) translate(-82.836126, -73.988197) "></path>
                <ellipse id="Oval" fill="#D38649" transform="translate(83.866157, 65.500000) rotate(60.000000) translate(-83.866157, -65.500000) " cx="83.8661568" cy="65.5" rx="38" ry="64.5"></ellipse>
                <path d="M50.8661568,73 C54.1798653,73 56.8661568,70.3137085 56.8661568,67 C56.8661568,63.6862915 57.6798653,61 54.3661568,61 C51.0524483,61 44.8661568,63.6862915 44.8661568,67 C44.8661568,69.7819077 42.2978295,72.8206711 44.8661568,73.5 C45.3571286,73.6298633 50.334356,73 50.8661568,73 Z" id="Oval" fill="#EEB28E"></path>
                <path d="M72.8661568,91 C76.1798653,91 78.8661568,88.3137085 78.8661568,85 C78.8661568,83.8628821 81.4156135,81.4061577 80.8661568,80.5 C79.8144256,78.765497 75.0427474,79 72.8661568,79 C69.5524483,79 66.8661568,81.6862915 66.8661568,85 C66.8661568,86.8658496 65.5303419,89.8995431 66.8661568,91 C67.9027202,91.8539308 71.4182978,91 72.8661568,91 Z" id="Oval" fill="#EEB28E"></path>
                <path d="M89.8661568,70 C92.3514381,70 96.8661568,67.9852814 96.8661568,65.5 C96.8661568,63.0147186 98.3514381,61 95.8661568,61 C93.3808754,61 87.8661568,63.0147186 87.8661568,65.5 C87.8661568,67.9852814 87.3808754,70 89.8661568,70 Z" id="Oval" fill="#EEB28E"></path>
                <circle id="Oval" fill="#EBAE7E" cx="48.3661568" cy="89.5" r="4.5"></circle>
                <circle id="Oval" fill="#EBAE7E" cx="83.3661568" cy="38.5" r="4.5"></circle>
                <circle id="Oval" fill="#EBAE7E" cx="110.366157" cy="32.5" r="3.5"></circle>
            </g>
            <g id="Group-25" transform="translate(256.000000, 378.000000) scale(1, -1) rotate(210.000000) translate(-256.000000, -378.000000) translate(173.000000, 304.000000)">
                <path d="M59.8876426,135.759742 C73.5549382,149.587292 102.666443,142.90292 109.327697,133.127057 C117.386796,121.299757 127.672252,85.855888 127.672252,66.3533545 C127.672252,30.7309881 96.9869677,4.35206581 76.0001472,4.35206581 C55.0133267,4.35206581 38,33.2296995 38,68.8520658 C38,104.474432 42.5398431,118.208534 59.8876426,135.759742 Z" id="Oval" fill="#762500" transform="translate(82.836126, 73.988197) rotate(60.000000) translate(-82.836126, -73.988197) "></path>
                <ellipse id="Oval" fill="#D38649" transform="translate(83.866157, 65.500000) rotate(60.000000) translate(-83.866157, -65.500000) " cx="83.8661568" cy="65.5" rx="38" ry="64.5"></ellipse>
                <path d="M50.8661568,73 C54.1798653,73 56.8661568,70.3137085 56.8661568,67 C56.8661568,63.6862915 57.6798653,61 54.3661568,61 C51.0524483,61 44.8661568,63.6862915 44.8661568,67 C44.8661568,69.7819077 42.2978295,72.8206711 44.8661568,73.5 C45.3571286,73.6298633 50.334356,73 50.8661568,73 Z" id="Oval" fill="#EEB28E"></path>
                <path d="M72.8661568,91 C76.1798653,91 78.8661568,88.3137085 78.8661568,85 C78.8661568,83.8628821 81.4156135,81.4061577 80.8661568,80.5 C79.8144256,78.765497 75.0427474,79 72.8661568,79 C69.5524483,79 66.8661568,81.6862915 66.8661568,85 C66.8661568,86.8658496 65.5303419,89.8995431 66.8661568,91 C67.9027202,91.8539308 71.4182978,91 72.8661568,91 Z" id="Oval" fill="#EEB28E"></path>
                <path d="M89.8661568,70 C92.3514381,70 96.8661568,67.9852814 96.8661568,65.5 C96.8661568,63.0147186 98.3514381,61 95.8661568,61 C93.3808754,61 87.8661568,63.0147186 87.8661568,65.5 C87.8661568,67.9852814 87.3808754,70 89.8661568,70 Z" id="Oval" fill="#EEB28E"></path>
                <circle id="Oval" fill="#EBAE7E" cx="48.3661568" cy="89.5" r="4.5"></circle>
                <circle id="Oval" fill="#EBAE7E" cx="83.3661568" cy="38.5" r="4.5"></circle>
                <circle id="Oval" fill="#EBAE7E" cx="110.366157" cy="32.5" r="3.5"></circle>
            </g>
            <g id="Group-25" transform="translate(258.000000, 106.000000) scale(1, -1) rotate(210.000000) translate(-258.000000, -106.000000) translate(175.000000, 32.000000)">
                <path d="M59.8876426,135.759742 C73.5549382,149.587292 102.666443,142.90292 109.327697,133.127057 C117.386796,121.299757 127.672252,85.855888 127.672252,66.3533545 C127.672252,30.7309881 96.9869677,4.35206581 76.0001472,4.35206581 C55.0133267,4.35206581 38,33.2296995 38,68.8520658 C38,104.474432 42.5398431,118.208534 59.8876426,135.759742 Z" id="Oval" fill="#762500" transform="translate(82.836126, 73.988197) rotate(60.000000) translate(-82.836126, -73.988197) "></path>
                <ellipse id="Oval" fill="#D38649" transform="translate(83.866157, 65.500000) rotate(60.000000) translate(-83.866157, -65.500000) " cx="83.8661568" cy="65.5" rx="38" ry="64.5"></ellipse>
                <path d="M50.8661568,73 C54.1798653,73 56.8661568,70.3137085 56.8661568,67 C56.8661568,63.6862915 57.6798653,61 54.3661568,61 C51.0524483,61 44.8661568,63.6862915 44.8661568,67 C44.8661568,69.7819077 42.2978295,72.8206711 44.8661568,73.5 C45.3571286,73.6298633 50.334356,73 50.8661568,73 Z" id="Oval" fill="#EEB28E"></path>
                <path d="M72.8661568,91 C76.1798653,91 78.8661568,88.3137085 78.8661568,85 C78.8661568,83.8628821 81.4156135,81.4061577 80.8661568,80.5 C79.8144256,78.765497 75.0427474,79 72.8661568,79 C69.5524483,79 66.8661568,81.6862915 66.8661568,85 C66.8661568,86.8658496 65.5303419,89.8995431 66.8661568,91 C67.9027202,91.8539308 71.4182978,91 72.8661568,91 Z" id="Oval" fill="#EEB28E"></path>
                <path d="M89.8661568,70 C92.3514381,70 96.8661568,67.9852814 96.8661568,65.5 C96.8661568,63.0147186 98.3514381,61 95.8661568,61 C93.3808754,61 87.8661568,63.0147186 87.8661568,65.5 C87.8661568,67.9852814 87.3808754,70 89.8661568,70 Z" id="Oval" fill="#EEB28E"></path>
                <circle id="Oval" fill="#EBAE7E" cx="48.3661568" cy="89.5" r="4.5"></circle>
                <circle id="Oval" fill="#EBAE7E" cx="83.3661568" cy="38.5" r="4.5"></circle>
                <circle id="Oval" fill="#EBAE7E" cx="110.366157" cy="32.5" r="3.5"></circle>
            </g>
            <polygon id="Path-25" fill="#603A0A" points="341.866157 62 325.366157 59 339.866157 49.5"></polygon>
            <polygon id="Path-25" fill="#603A0A" points="290.866157 215 274.366157 212 288.866157 202.5"></polygon>
            <polygon id="Path-25" fill="#603A0A" points="364.866157 373 348.366157 370 362.866157 360.5"></polygon>
            <polygon id="Path-25" fill="#603A0A" points="424.866157 332 410.866157 334.5 414.866157 322.5"></polygon>
            <polygon id="Path-25" fill="#603A0A" points="414.366157 367 401.366157 358 416.366157 348.5"></polygon>
        </g>
        <g id="Group-28" transform="translate(171.500000, 189.250000)">
            <g id="Group-24" transform="translate(95.500000, 315.812161) scale(-1, 1) rotate(-30.000000) translate(-95.500000, -315.812161) translate(21.000000, 254.312161)">
                <path d="M34.5,21.9378387 C25.1295315,16.9402556 15.5,21.9378387 7,33.4378387 C-1.5,44.9378387 -7.04592879,91.2883023 22,107.437839 C51.0459288,123.587375 73.3126624,131.110291 115,107.437839 C156.687338,83.7653863 146.103911,52.4901489 145,26.4378387 C143.896089,0.385528603 109.532053,-2.50527053 87,1.43783874 C71.9786313,4.06657826 70.3119647,22.5665783 82,56.9378387 C76.8269867,55.8198697 72.4936534,55.8198697 69,56.9378387 C65.5063466,58.0558078 61.5063466,60.7224745 57,64.9378387 C55.6617861,59.3344765 53.4951194,55.5011432 50.5,53.4378387 C47.5048806,51.3745343 42.1715473,50.0412009 34.5,49.4378387 C40.746979,34.4362275 40.746979,25.2695609 34.5,21.9378387 Z" id="Path-22" fill="#EDC081"></path>
                <polygon id="Path-23" fill="#DD740F" points="0 56.9378387 0 65.4378387 34.5 49.4378387"></polygon>
                <polygon id="Path-23" fill="#DD740F" points="10 96.4378387 17 106.437839 50.5 60.9378387"></polygon>
                <polygon id="Path-23" fill="#DD740F" points="61.5 122.437839 70.5 122.437839 61.5 65.4378387"></polygon>
                <polygon id="Path-23" fill="#DD740F" points="107.5 111.937839 115 107.437839 76.5 60.9378387"></polygon>
                <polygon id="Path-23" fill="#DD740F" points="145.5 83.9378387 149 74.4378387 95.5 49.4378387"></polygon>
            </g>
            <g id="Group-24" transform="translate(410.500000, 149.812161) rotate(-63.000000) translate(-410.500000, -149.812161) translate(336.000000, 88.312161)">
                <path d="M34.5,21.9378387 C25.1295315,16.9402556 15.5,21.9378387 7,33.4378387 C-1.5,44.9378387 -7.04592879,91.2883023 22,107.437839 C51.0459288,123.587375 73.3126624,131.110291 115,107.437839 C156.687338,83.7653863 146.103911,52.4901489 145,26.4378387 C143.896089,0.385528603 109.532053,-2.50527053 87,1.43783874 C71.9786313,4.06657826 70.3119647,22.5665783 82,56.9378387 C76.8269867,55.8198697 72.4936534,55.8198697 69,56.9378387 C65.5063466,58.0558078 61.5063466,60.7224745 57,64.9378387 C55.6617861,59.3344765 53.4951194,55.5011432 50.5,53.4378387 C47.5048806,51.3745343 42.1715473,50.0412009 34.5,49.4378387 C40.746979,34.4362275 40.746979,25.2695609 34.5,21.9378387 Z" id="Path-22" fill="#EDC081"></path>
                <polygon id="Path-23" fill="#DD740F" points="0 56.9378387 0 65.4378387 34.5 49.4378387"></polygon>
                <polygon id="Path-23" fill="#DD740F" points="10 96.4378387 17 106.437839 50.5 60.9378387"></polygon>
                <polygon id="Path-23" fill="#DD740F" points="61.5 122.437839 70.5 122.437839 61.5 65.4378387"></polygon>
                <polygon id="Path-23" fill="#DD740F" points="107.5 111.937839 115 107.437839 76.5 60.9378387"></polygon>
                <polygon id="Path-23" fill="#DD740F" points="145.5 83.9378387 149 74.4378387 95.5 49.4378387"></polygon>
            </g>
            <g id="Group-26" transform="translate(143.000000, 12.000000)">
                <path d="M0,56.115942 C3.70019805,48.4538581 5.94581208,42.0770465 6.73684211,36.9855072 C7.52787213,31.893968 7.24717037,24.6669148 5.89473684,15.3043478 C16.5600421,17.0878591 24.4196912,17.0878591 29.4736842,15.3043478 C34.5276772,13.5208366 41.1241685,8.41938729 49.2631579,0 C53.7742206,9.17990845 57.7040452,15.698427 61.0526316,19.5555556 C64.401218,23.4126841 70.7170074,27.5221849 80,31.884058 C76.027375,38.9450543 73.9221118,44.6133313 73.6842105,48.8888889 C73.4463092,53.1644465 74.849818,60.1080858 77.8947368,69.7198068 C67.6912284,69.0280823 60.112281,69.736617 55.1578947,71.8454106 C50.2035085,73.9542043 43.4666664,79.3390674 34.9473684,88 C29.9402247,78.2790886 25.3086457,71.4771563 21.0526316,67.5942029 C16.7966174,63.7112495 9.77907355,59.8851626 0,56.115942 Z" id="Path-24" fill="#838513"></path>
                <path d="M12,52.5362319 C14.5901386,47.1379455 16.1620685,42.6451919 16.7157895,39.057971 C17.2695105,35.4707502 17.0730193,30.3789627 16.1263158,23.7826087 C23.5920294,25.0391734 29.0937838,25.0391734 32.6315789,23.7826087 C36.1693741,22.5260439 40.7869179,18.931841 46.4842105,13 C49.6419544,19.4676628 52.3928316,24.0602554 54.7368421,26.7777778 C57.0808526,29.4953002 61.5019052,32.3906303 68,35.4637681 C65.2191625,40.438561 63.7454783,44.4321198 63.5789474,47.4444444 C63.4124165,50.4567691 64.3948726,55.3488786 66.5263158,62.1207729 C59.3838599,61.6334217 54.0785967,62.1326165 50.6105263,63.6183575 C47.1424559,65.1040985 42.4266665,68.8979793 36.4631579,75 C32.9581573,68.1511761 29.716052,63.3589056 26.7368421,60.6231884 C23.7576322,57.8874712 18.8453515,55.1918191 12,52.5362319 Z" id="Path-24" fill="#806E15"></path>
                <circle id="Oval" fill="#BFB253" cx="25.5" cy="40.75" r="5"></circle>
                <circle id="Oval" fill="#BFB253" cx="32.5" cy="30.75" r="5"></circle>
                <circle id="Oval" fill="#BFB253" cx="31.5" cy="54.75" r="5"></circle>
                <circle id="Oval" fill="#BFB253" cx="43.5" cy="57.75" r="5"></circle>
                <circle id="Oval" fill="#BFB253" cx="50.5" cy="33.75" r="5"></circle>
                <circle id="Oval" fill="#BFB253" cx="54.5" cy="44.75" r="5"></circle>
                <path d="M30,47.0289855 C30.9250495,45.1134645 31.486453,43.5192616 31.6842105,42.2463768 C31.881968,40.973492 31.8117926,39.1667287 31.4736842,36.826087 C34.1400105,37.2719648 36.1049228,37.2719648 37.3684211,36.826087 C38.6319193,36.3802091 40.2810421,35.1048468 42.3157895,33 C43.4435552,35.2949771 44.4260113,36.9246067 45.2631579,37.8888889 C46.1003045,38.853171 47.6792519,39.8805462 50,40.9710145 C49.0068437,42.7362636 48.480528,44.1533328 48.4210526,45.2222222 C48.3615773,46.2911116 48.7124545,48.0270215 49.4736842,50.4299517 C46.9228071,50.2570206 45.0280702,50.4341542 43.7894737,50.9613527 C42.5508771,51.4885511 40.8666666,52.8347669 38.7368421,55 C37.4850562,52.5697722 36.3271614,50.8692891 35.2631579,49.8985507 C34.1991544,48.9278124 32.4447684,47.9712906 30,47.0289855 Z" id="Path-24" fill="#838513"></path>
            </g>
            <g id="Group-26" transform="translate(253.000000, 0.000000)">
                <path d="M0,56.115942 C3.70019805,48.4538581 5.94581208,42.0770465 6.73684211,36.9855072 C7.52787213,31.893968 7.24717037,24.6669148 5.89473684,15.3043478 C16.5600421,17.0878591 24.4196912,17.0878591 29.4736842,15.3043478 C34.5276772,13.5208366 41.1241685,8.41938729 49.2631579,0 C53.7742206,9.17990845 57.7040452,15.698427 61.0526316,19.5555556 C64.401218,23.4126841 70.7170074,27.5221849 80,31.884058 C76.027375,38.9450543 73.9221118,44.6133313 73.6842105,48.8888889 C73.4463092,53.1644465 74.849818,60.1080858 77.8947368,69.7198068 C67.6912284,69.0280823 60.112281,69.736617 55.1578947,71.8454106 C50.2035085,73.9542043 43.4666664,79.3390674 34.9473684,88 C29.9402247,78.2790886 25.3086457,71.4771563 21.0526316,67.5942029 C16.7966174,63.7112495 9.77907355,59.8851626 0,56.115942 Z" id="Path-24" fill="#838513"></path>
                <path d="M12,52.5362319 C14.5901386,47.1379455 16.1620685,42.6451919 16.7157895,39.057971 C17.2695105,35.4707502 17.0730193,30.3789627 16.1263158,23.7826087 C23.5920294,25.0391734 29.0937838,25.0391734 32.6315789,23.7826087 C36.1693741,22.5260439 40.7869179,18.931841 46.4842105,13 C49.6419544,19.4676628 52.3928316,24.0602554 54.7368421,26.7777778 C57.0808526,29.4953002 61.5019052,32.3906303 68,35.4637681 C65.2191625,40.438561 63.7454783,44.4321198 63.5789474,47.4444444 C63.4124165,50.4567691 64.3948726,55.3488786 66.5263158,62.1207729 C59.3838599,61.6334217 54.0785967,62.1326165 50.6105263,63.6183575 C47.1424559,65.1040985 42.4266665,68.8979793 36.4631579,75 C32.9581573,68.1511761 29.716052,63.3589056 26.7368421,60.6231884 C23.7576322,57.8874712 18.8453515,55.1918191 12,52.5362319 Z" id="Path-24" fill="#806E15"></path>
                <circle id="Oval" fill="#BFB253" cx="25.5" cy="40.75" r="5"></circle>
                <circle id="Oval" fill="#BFB253" cx="32.5" cy="30.75" r="5"></circle>
                <circle id="Oval" fill="#BFB253" cx="31.5" cy="54.75" r="5"></circle>
                <circle id="Oval" fill="#BFB253" cx="43.5" cy="57.75" r="5"></circle>
                <circle id="Oval" fill="#BFB253" cx="50.5" cy="33.75" r="5"></circle>
                <circle id="Oval" fill="#BFB253" cx="54.5" cy="44.75" r="5"></circle>
                <path d="M30,47.0289855 C30.9250495,45.1134645 31.486453,43.5192616 31.6842105,42.2463768 C31.881968,40.973492 31.8117926,39.1667287 31.4736842,36.826087 C34.1400105,37.2719648 36.1049228,37.2719648 37.3684211,36.826087 C38.6319193,36.3802091 40.2810421,35.1048468 42.3157895,33 C43.4435552,35.2949771 44.4260113,36.9246067 45.2631579,37.8888889 C46.1003045,38.853171 47.6792519,39.8805462 50,40.9710145 C49.0068437,42.7362636 48.480528,44.1533328 48.4210526,45.2222222 C48.3615773,46.2911116 48.7124545,48.0270215 49.4736842,50.4299517 C46.9228071,50.2570206 45.0280702,50.4341542 43.7894737,50.9613527 C42.5508771,51.4885511 40.8666666,52.8347669 38.7368421,55 C37.4850562,52.5697722 36.3271614,50.8692891 35.2631579,49.8985507 C34.1991544,48.9278124 32.4447684,47.9712906 30,47.0289855 Z" id="Path-24" fill="#838513"></path>
            </g>
            <g id="Group-26" transform="translate(177.000000, 218.000000)">
                <path d="M0,56.115942 C3.70019805,48.4538581 5.94581208,42.0770465 6.73684211,36.9855072 C7.52787213,31.893968 7.24717037,24.6669148 5.89473684,15.3043478 C16.5600421,17.0878591 24.4196912,17.0878591 29.4736842,15.3043478 C34.5276772,13.5208366 41.1241685,8.41938729 49.2631579,0 C53.7742206,9.17990845 57.7040452,15.698427 61.0526316,19.5555556 C64.401218,23.4126841 70.7170074,27.5221849 80,31.884058 C76.027375,38.9450543 73.9221118,44.6133313 73.6842105,48.8888889 C73.4463092,53.1644465 74.849818,60.1080858 77.8947368,69.7198068 C67.6912284,69.0280823 60.112281,69.736617 55.1578947,71.8454106 C50.2035085,73.9542043 43.4666664,79.3390674 34.9473684,88 C29.9402247,78.2790886 25.3086457,71.4771563 21.0526316,67.5942029 C16.7966174,63.7112495 9.77907355,59.8851626 0,56.115942 Z" id="Path-24" fill="#838513"></path>
                <path d="M12,52.5362319 C14.5901386,47.1379455 16.1620685,42.6451919 16.7157895,39.057971 C17.2695105,35.4707502 17.0730193,30.3789627 16.1263158,23.7826087 C23.5920294,25.0391734 29.0937838,25.0391734 32.6315789,23.7826087 C36.1693741,22.5260439 40.7869179,18.931841 46.4842105,13 C49.6419544,19.4676628 52.3928316,24.0602554 54.7368421,26.7777778 C57.0808526,29.4953002 61.5019052,32.3906303 68,35.4637681 C65.2191625,40.438561 63.7454783,44.4321198 63.5789474,47.4444444 C63.4124165,50.4567691 64.3948726,55.3488786 66.5263158,62.1207729 C59.3838599,61.6334217 54.0785967,62.1326165 50.6105263,63.6183575 C47.1424559,65.1040985 42.4266665,68.8979793 36.4631579,75 C32.9581573,68.1511761 29.716052,63.3589056 26.7368421,60.6231884 C23.7576322,57.8874712 18.8453515,55.1918191 12,52.5362319 Z" id="Path-24" fill="#806E15"></path>
                <circle id="Oval" fill="#BFB253" cx="25.5" cy="40.75" r="5"></circle>
                <circle id="Oval" fill="#BFB253" cx="32.5" cy="30.75" r="5"></circle>
                <circle id="Oval" fill="#BFB253" cx="31.5" cy="54.75" r="5"></circle>
                <circle id="Oval" fill="#BFB253" cx="43.5" cy="57.75" r="5"></circle>
                <circle id="Oval" fill="#BFB253" cx="50.5" cy="33.75" r="5"></circle>
                <circle id="Oval" fill="#BFB253" cx="54.5" cy="44.75" r="5"></circle>
                <path d="M30,47.0289855 C30.9250495,45.1134645 31.486453,43.5192616 31.6842105,42.2463768 C31.881968,40.973492 31.8117926,39.1667287 31.4736842,36.826087 C34.1400105,37.2719648 36.1049228,37.2719648 37.3684211,36.826087 C38.6319193,36.3802091 40.2810421,35.1048468 42.3157895,33 C43.4435552,35.2949771 44.4260113,36.9246067 45.2631579,37.8888889 C46.1003045,38.853171 47.6792519,39.8805462 50,40.9710145 C49.0068437,42.7362636 48.480528,44.1533328 48.4210526,45.2222222 C48.3615773,46.2911116 48.7124545,48.0270215 49.4736842,50.4299517 C46.9228071,50.2570206 45.0280702,50.4341542 43.7894737,50.9613527 C42.5508771,51.4885511 40.8666666,52.8347669 38.7368421,55 C37.4850562,52.5697722 36.3271614,50.8692891 35.2631579,49.8985507 C34.1991544,48.9278124 32.4447684,47.9712906 30,47.0289855 Z" id="Path-24" fill="#838513"></path>
            </g>
            <g id="Group-26" transform="translate(419.000000, 262.000000)">
                <path d="M0,56.115942 C3.70019805,48.4538581 5.94581208,42.0770465 6.73684211,36.9855072 C7.52787213,31.893968 7.24717037,24.6669148 5.89473684,15.3043478 C16.5600421,17.0878591 24.4196912,17.0878591 29.4736842,15.3043478 C34.5276772,13.5208366 41.1241685,8.41938729 49.2631579,0 C53.7742206,9.17990845 57.7040452,15.698427 61.0526316,19.5555556 C64.401218,23.4126841 70.7170074,27.5221849 80,31.884058 C76.027375,38.9450543 73.9221118,44.6133313 73.6842105,48.8888889 C73.4463092,53.1644465 74.849818,60.1080858 77.8947368,69.7198068 C67.6912284,69.0280823 60.112281,69.736617 55.1578947,71.8454106 C50.2035085,73.9542043 43.4666664,79.3390674 34.9473684,88 C29.9402247,78.2790886 25.3086457,71.4771563 21.0526316,67.5942029 C16.7966174,63.7112495 9.77907355,59.8851626 0,56.115942 Z" id="Path-24" fill="#838513"></path>
                <path d="M12,52.5362319 C14.5901386,47.1379455 16.1620685,42.6451919 16.7157895,39.057971 C17.2695105,35.4707502 17.0730193,30.3789627 16.1263158,23.7826087 C23.5920294,25.0391734 29.0937838,25.0391734 32.6315789,23.7826087 C36.1693741,22.5260439 40.7869179,18.931841 46.4842105,13 C49.6419544,19.4676628 52.3928316,24.0602554 54.7368421,26.7777778 C57.0808526,29.4953002 61.5019052,32.3906303 68,35.4637681 C65.2191625,40.438561 63.7454783,44.4321198 63.5789474,47.4444444 C63.4124165,50.4567691 64.3948726,55.3488786 66.5263158,62.1207729 C59.3838599,61.6334217 54.0785967,62.1326165 50.6105263,63.6183575 C47.1424559,65.1040985 42.4266665,68.8979793 36.4631579,75 C32.9581573,68.1511761 29.716052,63.3589056 26.7368421,60.6231884 C23.7576322,57.8874712 18.8453515,55.1918191 12,52.5362319 Z" id="Path-24" fill="#806E15"></path>
                <circle id="Oval" fill="#BFB253" cx="25.5" cy="40.75" r="5"></circle>
                <circle id="Oval" fill="#BFB253" cx="32.5" cy="30.75" r="5"></circle>
                <circle id="Oval" fill="#BFB253" cx="31.5" cy="54.75" r="5"></circle>
                <circle id="Oval" fill="#BFB253" cx="43.5" cy="57.75" r="5"></circle>
                <circle id="Oval" fill="#BFB253" cx="50.5" cy="33.75" r="5"></circle>
                <circle id="Oval" fill="#BFB253" cx="54.5" cy="44.75" r="5"></circle>
                <path d="M30,47.0289855 C30.9250495,45.1134645 31.486453,43.5192616 31.6842105,42.2463768 C31.881968,40.973492 31.8117926,39.1667287 31.4736842,36.826087 C34.1400105,37.2719648 36.1049228,37.2719648 37.3684211,36.826087 C38.6319193,36.3802091 40.2810421,35.1048468 42.3157895,33 C43.4435552,35.2949771 44.4260113,36.9246067 45.2631579,37.8888889 C46.1003045,38.853171 47.6792519,39.8805462 50,40.9710145 C49.0068437,42.7362636 48.480528,44.1533328 48.4210526,45.2222222 C48.3615773,46.2911116 48.7124545,48.0270215 49.4736842,50.4299517 C46.9228071,50.2570206 45.0280702,50.4341542 43.7894737,50.9613527 C42.5508771,51.4885511 40.8666666,52.8347669 38.7368421,55 C37.4850562,52.5697722 36.3271614,50.8692891 35.2631579,49.8985507 C34.1991544,48.9278124 32.4447684,47.9712906 30,47.0289855 Z" id="Path-24" fill="#838513"></path>
            </g>
            <polygon id="Path-25" fill="#603A0A" points="159.5 421.75 143 418.75 157.5 409.25"></polygon>
            <polygon id="Path-25" fill="#603A0A" points="207.5 360.75 193.5 363.25 197.5 351.25"></polygon>
            <polygon id="Path-25" fill="#603A0A" points="163 388.75 150 379.75 165 370.25"></polygon>
            <polygon id="Path-25" fill="#603A0A" points="56.5 227.75 42.5 230.25 46.5 218.25"></polygon>
            <polygon id="Path-25" fill="#603A0A" points="14 257.75 1 248.75 16 239.25"></polygon>
            <polygon id="Path-25" fill="#603A0A" points="339.5 204.75 325.5 207.25 329.5 195.25"></polygon>
            <polygon id="Path-25" fill="#603A0A" points="353 242.75 340 233.75 355 224.25"></polygon>
        </g>
    </g>
</svg>