<?xml version="1.0" encoding="UTF-8"?>
<svg width="850px" height="850px" viewBox="0 0 850 850" version="1.1" xmlns="http://www.w3.org/2000/svg" xmlns:xlink="http://www.w3.org/1999/xlink">
    <title>soup9</title>
    <g id="Page-4" stroke="none" stroke-width="1" fill="none" fill-rule="evenodd">
        <g id="Group-8" transform="translate(203.000000, 245.000000)">
            <circle id="Oval" fill="#844A08" cx="38" cy="229" r="19"></circle>
            <path d="M128,298.5 C138.49341,298.5 147,294.49341 147,284 C147,273.50659 138.49341,270 128,270 C117.50659,270 109,273.50659 109,284 C109,294.49341 117.50659,298.5 128,298.5 Z" id="Oval" fill="#844A08" transform="translate(128.000000, 284.250000) rotate(21.000000) translate(-128.000000, -284.250000) "></path>
            <path d="M85,128.5 C95.4934102,128.5 104,124.49341 104,114 C104,103.50659 95.4934102,100 85,100 C74.5065898,100 66,103.50659 66,114 C66,124.49341 74.5065898,128.5 85,128.5 Z" id="Oval" fill="#BB6C14" transform="translate(85.000000, 114.250000) rotate(21.000000) translate(-85.000000, -114.250000) "></path>
            <circle id="Oval" fill="#BB6C14" cx="234" cy="157" r="19"></circle>
            <circle id="Oval" fill="#844A08" cx="301" cy="169" r="19"></circle>
            <path d="M308,348.5 C318.49341,348.5 327,344.49341 327,334 C327,323.50659 318.49341,320 308,320 C297.50659,320 289,323.50659 289,334 C289,344.49341 297.50659,348.5 308,348.5 Z" id="Oval" fill="#844A08" transform="translate(308.000000, 334.250000) rotate(147.000000) translate(-308.000000, -334.250000) "></path>
            <circle id="Oval" fill="#844A08" cx="19" cy="91" r="19"></circle>
            <circle id="Oval" fill="#BB6C14" cx="433" cy="179" r="19"></circle>
            <circle id="Oval" fill="#CF8129" cx="381" cy="75" r="19"></circle>
            <path d="M110,177.5 C120.49341,177.5 129,173.49341 129,163 C129,152.50659 120.49341,149 110,149 C99.5065898,149 91,152.50659 91,163 C91,173.49341 99.5065898,177.5 110,177.5 Z" id="Oval" fill="#CF8129" transform="translate(110.000000, 163.250000) rotate(-29.000000) translate(-110.000000, -163.250000) "></path>
            <polygon id="Path-10" fill="#CA6407" points="161 32.5 196 25.5 191 0 159 7.5"></polygon>
            <polygon id="Path-10" fill="#AB5608" points="161 32.5 196 26.5 194 17.5 161 23.5"></polygon>
            <g id="Group-6" transform="translate(396.000000, 246.000000)">
                <polygon id="Path-10" fill="#CA6407" points="2 32.5 37 25.5 32 0 0 7.5"></polygon>
                <polygon id="Path-10" fill="#AB5608" points="2 32.5 37 26.5 35 17.5 2 23.5"></polygon>
            </g>
            <g id="Group-2" transform="translate(374.500000, 304.500000) rotate(-39.000000) translate(-374.500000, -304.500000) translate(349.000000, 284.000000)">
                <polygon id="Path-10" fill="#CA6407" points="2 21.5 31.5 38.5 50.5 19 20 0"></polygon>
                <polygon id="Path-10" fill="#AB5608" points="0 21.5 31.5 40.5 39.5 31 7.5 13.5"></polygon>
            </g>
            <g id="Group-2" transform="translate(159.000000, 189.000000)">
                <polygon id="Path-10" fill="#CA6407" points="2 21.5 39.5 25.5 41 2 11.5 0"></polygon>
                <polygon id="Path-10" fill="#AB5608" points="0 21.5 41 25.5 40 15.5 6 12.5"></polygon>
            </g>
            <path d="M144.694667,361.06789 L190.970066,320.011521 C194.275068,317.079262 199.331368,317.381431 202.263626,320.686434 C203.039813,321.561289 203.614741,322.595691 203.947913,323.716778 C210.812042,346.81384 209.496071,362.574914 200,371 C190.691902,379.258312 173.439384,380.543572 148.242447,374.855779 C143.932607,373.882908 141.227463,369.600422 142.200338,365.290583 C142.569185,363.65659 143.441638,362.1796 144.694667,361.06789 Z" id="Path-11" fill="#992A13"></path>
            <path d="M181.065793,340.760988 L186.556948,332.066659 C188.686379,328.69506 193.145846,327.688083 196.517445,329.817515 C198.594264,331.12919 199.861797,333.406716 199.882039,335.862986 C199.930203,341.722446 199.046187,346.089998 197.22999,348.965642 C195.030142,352.448736 191.447908,353.76646 186.483288,352.918814 C182.128037,352.175208 179.200217,348.041769 179.94382,343.686517 C180.121318,342.646919 180.502621,341.652676 181.065793,340.760988 Z" id="Path-11" fill="#AC3821"></path>
            <polygon id="Path-36" fill="#3F6B30" transform="translate(215.500000, 92.000000) scale(-1, 1) rotate(33.000000) translate(-215.500000, -92.000000) " points="228.5 106 202.5 92 202.5 78 228.5 92"></polygon>
            <polygon id="Path-36" fill="#3F6B30" points="202 66.5 191.5 53 202 39.5 215 56"></polygon>
            <polygon id="Path-36" fill="#3F6B30" transform="translate(322.500000, 271.000000) rotate(70.000000) translate(-322.500000, -271.000000) " points="335.5 285 309.5 271 309.5 257 335.5 271"></polygon>
            <polygon id="Path-36" fill="#3F6B30" transform="translate(363.500000, 266.000000) scale(-1, 1) rotate(33.000000) translate(-363.500000, -266.000000) " points="376.5 280 350.5 266 350.5 252 376.5 266"></polygon>
            <polygon id="Path-36" fill="#3F6B30" points="365 228.5 354.5 215 365 201.5 378 218"></polygon>
        </g>
    </g>
</svg>