<?xml version="1.0" encoding="UTF-8"?>
<svg width="850px" height="850px" viewBox="0 0 850 850" version="1.1" xmlns="http://www.w3.org/2000/svg" xmlns:xlink="http://www.w3.org/1999/xlink">
    <title>soup4</title>
    <g id="Page-4" stroke="none" stroke-width="1" fill="none" fill-rule="evenodd">
        <g id="Group-21" transform="translate(208.768939, 222.000000)">
            <g id="Group-20">
                <g id="Group-18" transform="translate(55.278275, 128.000000)">
                    <path d="M92.5,196.112714 C120.39038,196.112714 168.242285,159.081517 168.242285,110.480459 C168.242285,61.8794006 120.39038,20.1127141 92.5,20.1127141 C64.6096201,20.1127141 42,59.5116561 42,108.112714 C42,156.713772 64.6096201,196.112714 92.5,196.112714 Z" id="Oval" fill="#EA7A09" transform="translate(105.121143, 108.112714) rotate(40.000000) translate(-105.121143, -108.112714) "></path>
                    <ellipse id="Oval" fill="#FF9410" transform="translate(95.452786, 100.000000) rotate(40.000000) translate(-95.452786, -100.000000) " cx="95.4527865" cy="100" rx="50.5" ry="88"></ellipse>
                </g>
                <g id="Group-19" transform="translate(357.731061, 39.000000)">
                    <polygon id="Path-5" fill="#FF9410" points="74 150 0 43.5 57.5 0"></polygon>
                    <polygon id="Path-5" fill="#EA7A09" points="74 150 104.5 60 57.5 0"></polygon>
                </g>
                <path d="M9.73106116,157 C-3.24368705,128.888409 -3.24368705,105.388409 9.73106116,86.5 C29.1931835,58.1673865 47.1217877,76.4558663 64.7310612,54.5 C76.4705768,39.8627558 78.3039102,21.6960891 70.2310612,0 C95.0466192,11.5917808 101.213286,29.7584475 88.7310612,54.5 C70.0077241,91.6123288 64.5572976,66.6226599 32.7310612,99 C11.5135702,120.584893 3.84690357,139.918227 9.73106116,157 Z" id="Path-18" fill="#454F0D"></path>
                <path d="M242.731061,472 C229.756313,443.888409 229.756313,420.388409 242.731061,401.5 C262.193183,373.167387 280.121788,391.455866 297.731061,369.5 C309.470577,354.862756 311.30391,336.696089 303.231061,315 C328.046619,326.591781 334.213286,344.758447 321.731061,369.5 C303.007724,406.612329 297.557298,381.62266 265.731061,414 C244.51357,435.584893 236.846904,454.918227 242.731061,472 Z" id="Path-18" fill="#454F0D"></path>
                <path d="M354.642989,264.043118 C364.177338,263.366635 375.431886,253.584189 388.406634,234.69578 C407.868757,206.363167 418.722182,239.934027 436.331455,217.978161 C448.070971,203.340917 449.904304,185.17425 441.831455,163.478161 C466.647013,175.069942 472.81368,193.236608 460.331455,217.978161 C441.608118,255.09049 453.066323,244.513989 421.240087,276.891329 C400.022596,298.476223 377.823563,294.193486 354.642989,264.043118 Z" id="Path-18" fill="#454F0D" transform="translate(410.620235, 226.938953) rotate(13.000000) translate(-410.620235, -226.938953) "></path>
            </g>
            <path d="M203.231061,186.5 L157.731061,272.5 C171.731061,260.833333 184.064394,248 194.731061,234 C205.397728,220 208.231061,204.166667 203.231061,186.5 Z" id="Path-34" fill="#FFBD44"></path>
            <path d="M407.731061,52.5 L394.231061,66 C408.231061,95.6666667 415.231061,110.5 415.231061,110.5 C415.231061,110.5 412.731061,91.1666667 407.731061,52.5 Z" id="Path-34" fill="#FFBD44"></path>
        </g>
    </g>
</svg>