<?xml version="1.0" encoding="UTF-8"?>
<svg width="850px" height="850px" viewBox="0 0 850 850" version="1.1" xmlns="http://www.w3.org/2000/svg" xmlns:xlink="http://www.w3.org/1999/xlink">
    <title>soup2</title>
    <g id="Page-4" stroke="none" stroke-width="1" fill="none" fill-rule="evenodd">
        <g id="Group-41" transform="translate(181.838602, 190.414490)">
            <g id="Group-42" transform="translate(346.000000, 292.000000)">
                <polygon id="Path-12" fill="#DF7437" points="0.661398384 54.58551 20.6613984 0.585510038 68.6613984 16.58551 61.6613984 63.58551"></polygon>
                <polygon id="Path-12" fill="#B9602C" points="44.1613984 60.58551 56.6613984 16.58551 68.6613984 16.58551 61.6613984 63.58551"></polygon>
            </g>
            <g id="Group-38" transform="translate(414.661398, 223.585510)">
                <polygon id="Path-12" fill="#DF7437" points="0 44.5 34 0 87 36 30.5 84.5"></polygon>
                <polygon id="Path-12" fill="#B9602C" points="2.13162821e-13 44.5 7.75651229 34.3480942 41.2240731 75.2943797 30.5 84.5"></polygon>
            </g>
            <g id="Group-5" transform="translate(0.000000, 203.085510)">
                <path d="M34.6613984,141 C13.1388971,118.509097 1.63889713,95.0090968 0.161398384,70.5 C-1.31610036,45.9909032 7.35056631,22.4909032 26.1613984,0 L112.161398,22 L118.661398,102.5 L34.6613984,141 Z" id="Path-13" fill="#DCAD3B"></path>
                <path d="M34.6613984,141 C13.1388971,118.509097 1.63889713,95.0090968 0.161398384,70.5 C-1.31610036,45.9909032 7.35056631,22.4909032 26.1613984,0 L43.6031573,4.46184529 C30.5442494,33.42685 24.3969964,55.4395682 25.1613984,70.5 C25.9258003,85.5604318 34.2628032,106.690694 50.172407,133.890788 L34.6613984,141 Z" id="Path-13" fill="#174D26"></path>
            </g>
            <g id="Group-37" transform="translate(287.702331, 113.500000) rotate(-5.000000) translate(-287.702331, -113.500000) translate(184.702331, 9.000000)">
                <path d="M71.9588589,154.209832 C64.8194622,167.028321 54.7497638,173.437565 41.7497638,173.437565 C4.62497294,173.437565 33.0439686,125.473127 87.2899975,81.7981189 C143.921059,36.202854 174.207287,17.9433229 181.249764,58.4375648 C182.583097,66.1042315 176.332198,74.0188706 162.497065,82.181482 C169.20642,75.2669794 169.727764,70.809728 164.061097,68.809728 C155.561097,65.809728 149.620455,83.0228336 142.574691,88.1897271 C138.000892,91.5438467 130.871226,96.6654994 121.185695,103.554685 C134.691794,108.195706 140.90596,113.991454 139.828194,120.941929 C138.211545,131.367643 124.960311,143.898403 115.091132,142.85831 C108.511678,142.164915 103.5432,134.230373 100.185695,119.054685 C88.556387,130.9855 81.0437329,137.840337 77.6477326,139.619194 C67.1477326,145.119194 64.9902908,148.522758 62.4902908,152.522758 C56.7327165,161.734877 59.8889058,162.297235 71.9588589,154.209832 Z" id="topping" fill="#E8BB7F" transform="translate(103.180520, 104.718782) rotate(52.000000) translate(-103.180520, -104.718782) "></path>
                <path d="M52.4590669,110.08551 C49.6289692,110.406815 47.7956359,111.073482 46.9590669,112.08551 C42.9305474,116.958956 18.8131509,114.177104 12.4590669,108.58551 C-0.0409330853,97.58551 -6.69505324,76.1671865 15.9590669,66.08551 C38.6131871,56.0038335 53.3287847,58.2537544 107.459067,70.08551 C161.589349,81.9172657 185.459067,85.08551 198.959067,106.08551 C212.459067,127.08551 193.959067,144.08551 180.459067,144.08551 C171.459067,144.08551 162.125734,140.752177 152.459067,134.08551 C170.804612,139.509602 181.804612,139.176268 185.459067,133.08551 C190.94075,123.949372 187.16023,114.043196 180.459067,110.08551 C153.660549,94.2583879 119.313442,93.1380303 104.959067,88.58551 C78.0433814,80.0491438 49.9854931,78.698866 33.4590669,83.08551 C16.9326407,87.472154 19.215403,95.0973374 22.9590669,102.08551 C25.4548428,106.744292 35.2881762,109.410958 52.4590669,110.08551 Z" id="Path-35" fill="#654419"></path>
            </g>
        </g>
    </g>
</svg>