<?xml version="1.0" encoding="UTF-8"?>
<svg width="850px" height="850px" viewBox="0 0 850 850" version="1.1" xmlns="http://www.w3.org/2000/svg" xmlns:xlink="http://www.w3.org/1999/xlink">
    <title>soup1</title>
    <g id="Page-4" stroke="none" stroke-width="1" fill="none" fill-rule="evenodd">
        <g id="Group-35" transform="translate(246.000000, 178.500000)">
            <g id="Group-33" transform="translate(301.767443, 130.176695) scale(-1, 1) rotate(69.000000) translate(-301.767443, -130.176695) translate(233.767443, 61.676695)">
                <path d="M77.7037512,136.207151 C117.188057,131.012001 142.008662,89.9054473 133.508662,56.4054473 C125.008662,22.9054473 95.2941017,0.95434462 61.604732,0.95434462 C27.9153623,0.95434462 15.0493319,28.8389447 8.04933193,62.3389447 C1.04933193,95.8389447 38.2194452,141.402301 77.7037512,136.207151 Z" id="Oval" fill="#9B431E"></path>
                <path d="M61.7904012,127 C95.479771,127 131.290401,98 122.790401,66 C114.290401,34 95.479771,1 61.7904012,1 C28.1010315,1 0.790401245,32.3106303 0.790401245,66 C0.790401245,99.6893697 28.1010315,127 61.7904012,127 Z" id="Oval" fill="#DD8B62"></path>
                <polygon id="Path-30" fill="#FCC290" points="21.2904012 64 32.7904012 47.5 46.7904012 55.5 33.7904012 74.5"></polygon>
                <circle id="Oval" fill="#F5C9AC" cx="34.2904012" cy="88.5" r="6.5"></circle>
                <circle id="Oval" fill="#F5C9AC" cx="68.2904012" cy="28.5" r="8.5"></circle>
                <circle id="Oval" fill="#F5C9AC" cx="77.2904012" cy="50.5" r="6.5"></circle>
                <polygon id="Path-30" fill="#FCC290" points="55.2904012 97 67.7904012 88.5 76.7904012 97 67.7904012 107.5"></polygon>
                <polygon id="Path-30" fill="#FCC290" points="91.2904012 56 97.7904012 47.5 106.790401 56 97.7904012 66.5"></polygon>
            </g>
            <polygon id="Path-31" fill="#C45206" points="151.5 34 201 59 220 29 172 0"></polygon>
            <path d="M70.2893104,450.237608 L79.572711,406.721667 C81.247825,398.86957 88.4828366,393.474828 96.4864572,394.110036 L127.909761,396.603949 C136.718618,397.303065 143.292862,405.010799 142.593746,413.819656 C142.552497,414.3394 142.485867,414.856818 142.394096,415.370056 L134.565388,459.152831 C133.111514,467.283755 125.707309,472.971606 117.476392,472.28046 L84.5983959,469.519713 C75.7928288,468.780314 69.2539074,461.04259 69.9933062,452.237023 C70.0497374,451.564979 70.1486027,450.897175 70.2893104,450.237608 Z" id="Path-32" fill="#EBE5B9"></path>
            <path d="M76.2893104,167.237608 L85.572711,123.721667 C87.247825,115.86957 94.4828366,110.474828 102.486457,111.110036 L133.909761,113.603949 C142.718618,114.303065 149.292862,122.010799 148.593746,130.819656 C148.552497,131.3394 148.485867,131.856818 148.394096,132.370056 L140.565388,176.152831 C139.111514,184.283755 131.707309,189.971606 123.476392,189.28046 L90.5983959,186.519713 C81.7928288,185.780314 75.2539074,178.04259 75.9933062,169.237023 C76.0497374,168.564979 76.1486027,167.897175 76.2893104,167.237608 Z" id="Path-32" fill="#EBE5B9" transform="translate(112.000000, 150.250000) scale(-1, 1) translate(-112.000000, -150.250000) "></path>
            <path d="M195.28931,297.237608 L204.572711,253.721667 C206.247825,245.86957 213.482837,240.474828 221.486457,241.110036 L252.909761,243.603949 C261.718618,244.303065 268.292862,252.010799 267.593746,260.819656 C267.552497,261.3394 267.485867,261.856818 267.394096,262.370056 L259.565388,306.152831 C258.111514,314.283755 250.707309,319.971606 242.476392,319.28046 L209.598396,316.519713 C200.792829,315.780314 194.253907,308.04259 194.993306,299.237023 C195.049737,298.564979 195.148603,297.897175 195.28931,297.237608 Z" id="Path-32" fill="#EBE5B9" transform="translate(231.000000, 280.250000) scale(-1, 1) rotate(42.000000) translate(-231.000000, -280.250000) "></path>
            <path d="M-7.10542736e-14,419 C11.5087736,376.873451 23.5087736,350.040118 36,338.5 C54.7368396,321.189823 73.7893444,337.943039 97.5,323.5 C121.210656,309.056961 127.899639,301.593172 134.5,291 C138.900241,283.937885 140.066907,273.104552 138,258.5 C150.450715,269.643884 154.617381,285.81055 150.5,307 C144.323928,338.784175 144.288594,345.90718 117.5,364 C90.7114063,382.09282 88.1954415,348.354081 55,367.5 C32.8697057,380.263946 14.5363724,397.430612 -7.10542736e-14,419 Z" id="Path-33" fill="#2F5003"></path>
            <path d="M149.350555,474.434181 C142.525995,437.307632 145.359329,412.974299 157.850555,401.434181 C176.587395,384.124004 195.639899,400.87722 219.350555,386.434181 C243.061211,371.991142 238.648077,369.567957 245.248439,358.974784 C249.648679,351.91267 268.094768,351.772637 300.586703,358.554688 C281.492747,362.418746 269.887079,374.9455 265.769698,396.13495 C259.593626,427.919125 260.139149,397.341361 233.350555,415.434181 C206.561961,433.527001 212.045997,427.288262 178.850555,446.434181 C156.720261,459.198127 146.886927,468.53146 149.350555,474.434181 Z" id="Path-33" fill="#2F5003" transform="translate(223.160214, 414.002615) rotate(252.000000) translate(-223.160214, -414.002615) "></path>
            <path d="M39.2649269,150.429422 C32.4403672,113.302873 35.2737005,88.9695397 47.7649269,77.4294219 C66.5017666,60.1192452 62.5720002,87.8701133 86.2826559,73.4270743 C109.993312,58.9840354 116.682295,51.5202466 123.282656,40.9270743 C127.682897,33.8649595 141.182897,30.0316262 163.782656,29.4270743 C152.23337,31.9042912 144.400037,43.7376245 140.282656,64.9270743 C134.106584,96.7112491 114.806822,83.3966837 88.0182282,101.489504 C76.1797185,109.485146 64.384927,104.214615 53.9595486,115.946555 C50.4249517,119.924126 45.5267445,131.418415 39.2649269,150.429422 Z" id="Path-33" fill="#2F5003" transform="translate(99.715376, 89.928248) scale(-1, 1) rotate(23.000000) translate(-99.715376, -89.928248) "></path>
        </g>
    </g>
</svg>