<?xml version="1.0" encoding="UTF-8"?>
<svg width="850px" height="850px" viewBox="0 0 850 850" version="1.1" xmlns="http://www.w3.org/2000/svg" xmlns:xlink="http://www.w3.org/1999/xlink">
    <title>soup2</title>
    <g id="Page-4" stroke="none" stroke-width="1" fill="none" fill-rule="evenodd">
        <path d="M225.5,353 C225.5,361.666667 219,366 206,366 C168.875209,366 178.253971,302.175008 232.5,258.5 C289.131062,212.904735 338.457523,210.505758 345.5,251 C346.833333,258.666667 342.833333,264.333333 333.5,268 C337.166667,263.333333 336.166667,260 330.5,258 C322,255 318.545764,268.833106 311.5,274 C306.926201,277.35412 297.926201,287.020786 284.5,303 L318,330.5 L292,353 L263.5,318.5 C246.229334,329.387809 235.896,335.721143 232.5,337.5 C222,343 219,341 216.5,345 C210.742426,354.212119 213.742426,356.878786 225.5,353 Z" id="topping" stroke="#41300C" stroke-width="3" fill="#DEAD6B"></path>
        <path d="M385.5,389 C385.5,397.666667 379,402 366,402 C328.875209,402 338.253971,338.175008 392.5,294.5 C449.131062,248.904735 498.457523,246.505758 505.5,287 C506.833333,294.666667 502.833333,300.333333 493.5,304 C497.166667,299.333333 496.166667,296 490.5,294 C482,291 478.545764,304.833106 471.5,310 C466.926201,313.35412 457.926201,323.020786 444.5,339 L478,366.5 L452,389 L423.5,354.5 C406.229334,365.387809 395.896,371.721143 392.5,373.5 C382,379 379,377 376.5,381 C370.742426,390.212119 373.742426,392.878786 385.5,389 Z" id="topping" stroke="#41300C" stroke-width="3" fill="#DEAD6B" transform="translate(424.708341, 330.179859) rotate(52.000000) translate(-424.708341, -330.179859) "></path>
        <path d="M256.5,531 C291.061526,497.728225 331.89486,483.561558 379,488.5 C426.10514,493.438442 467.938474,516.271775 504.5,557 L512,553.5 C475.333333,510.166667 431,486 379,481 C327,476 287.333333,489.333333 260,521 L256.5,531 Z" id="Path-10" fill="#655532"></path>
        <path d="M256.5,548 C291.061526,514.728225 331.89486,500.561558 379,505.5 C426.10514,510.438442 467.938474,533.271775 504.5,574 L512,570.5 C475.333333,527.166667 431,503 379,498 C327,493 287.333333,506.333333 260,538 L256.5,548 Z" id="Path-10" fill="#655532"></path>
        <path d="M256.5,566 C291.061526,532.728225 331.89486,518.561558 379,523.5 C426.10514,528.438442 467.938474,551.271775 504.5,592 L512,588.5 C475.333333,545.166667 431,521 379,516 C327,511 287.333333,524.333333 260,556 L256.5,566 Z" id="Path-10" fill="#655532"></path>
        <path d="M256.5,584 C291.061526,550.728225 331.89486,536.561558 379,541.5 C426.10514,546.438442 467.938474,569.271775 504.5,610 L512,606.5 C475.333333,563.166667 431,539 379,534 C327,529 287.333333,542.333333 260,574 L256.5,584 Z" id="Path-10" fill="#655532"></path>
        <path d="M256.5,601 C291.061526,567.728225 331.89486,553.561558 379,558.5 C426.10514,563.438442 467.938474,586.271775 504.5,627 L512,623.5 C475.333333,580.166667 431,556 379,551 C327,546 287.333333,559.333333 260,591 L256.5,601 Z" id="Path-10" fill="#655532"></path>
    </g>
</svg>