<?xml version="1.0" encoding="UTF-8"?>
<svg width="850px" height="850px" viewBox="0 0 850 850" version="1.1" xmlns="http://www.w3.org/2000/svg" xmlns:xlink="http://www.w3.org/1999/xlink">
    <title>soup6</title>
    <g id="Page-4" stroke="none" stroke-width="1" fill="none" fill-rule="evenodd">
        <g id="Group-23" transform="translate(188.000000, 209.109875)">
            <g id="rosemary" transform="translate(237.000000, 405.390125) rotate(56.000000) translate(-237.000000, -405.390125) translate(133.000000, 298.890125)">
                <path d="M0,201.658995 C1.66666667,204.658995 13.6666667,199.158995 36,185.158995 C49.2854129,176.830825 69.3396779,166.934201 91,145.158995 C100.834389,135.272445 116.667722,115.605779 138.5,86.1589947 L154,73.1589947 L96.5,148.158995 C71.3974944,167.614738 49.0641611,182.948071 29.5,194.158995 C9.93583888,205.369918 0.102505551,209.703252 0,207.158995 L0,201.658995 Z" id="Path-4" fill="#E6D292"></path>
                <path d="M32,200.158995 C38.5,202.158995 83,114.658995 70.5,110.158995 C58,105.658995 25.5,198.158995 32,200.158995 Z" id="Path-3" fill="#538954" transform="translate(51.925996, 155.096379) rotate(10.000000) translate(-51.925996, -155.096379) "></path>
                <path d="M69,217.158995 C75.5,219.158995 120,131.658995 107.5,127.158995 C95,122.658995 62.5,215.158995 69,217.158995 Z" id="Path-3" fill="#538954" transform="translate(88.925996, 172.096379) rotate(60.000000) translate(-88.925996, -172.096379) "></path>
                <path d="M71,167.158995 C77.5,169.158995 122,81.6589947 109.5,77.1589947 C97,72.6589947 64.5,165.158995 71,167.158995 Z" id="Path-3" fill="#538954"></path>
                <path d="M101,118.158995 C107.5,120.158995 152,32.6589947 139.5,28.1589947 C127,23.6589947 94.5,116.158995 101,118.158995 Z" id="Path-3" fill="#538954" transform="translate(120.925996, 73.096379) rotate(-22.000000) translate(-120.925996, -73.096379) "></path>
                <path d="M129,93.1589947 C135.5,95.1589947 180,7.65899468 167.5,3.15899468 C155,-1.34100532 122.5,91.1589947 129,93.1589947 Z" id="Path-3" fill="#538954" transform="translate(148.925996, 48.096379) rotate(-10.000000) translate(-148.925996, -48.096379) "></path>
                <path d="M153,102.158995 C159.5,104.158995 204,16.6589947 191.5,12.1589947 C179,7.65899468 146.5,100.158995 153,102.158995 Z" id="Path-3" fill="#538954" transform="translate(172.925996, 57.096379) rotate(20.000000) translate(-172.925996, -57.096379) "></path>
                <path d="M131,145.158995 C137.5,147.158995 182,59.6589947 169.5,55.1589947 C157,50.6589947 124.5,143.158995 131,145.158995 Z" id="Path-3" fill="#538954" transform="translate(150.925996, 100.096379) rotate(40.000000) translate(-150.925996, -100.096379) "></path>
                <path d="M101,182.158995 C107.5,184.158995 152,96.6589947 139.5,92.1589947 C127,87.6589947 94.5,180.158995 101,182.158995 Z" id="Path-3" fill="#538954" transform="translate(120.925996, 137.096379) rotate(50.000000) translate(-120.925996, -137.096379) "></path>
            </g>
            <path d="M100.5,37.8901249 C104.722932,23.399673 115.556265,14.399673 133,10.8901249 C138.29396,22.2104306 141.127293,31.2104306 141.5,37.8901249 C142.228291,50.9426243 124.743887,67.1884126 133,79.8901249 C154.890678,113.568091 177.726682,97.12578 187,116.890125 C196.273318,136.65447 196.016537,169.136631 187,185.390125 C180.988976,196.225787 162.988976,195.059121 133,181.890125 C157.310672,171.710087 164.977338,157.210087 156,138.390125 C142.533993,110.160182 118.850585,118.592084 107.5,98.3901249 C96.1494148,78.1881658 94.1656025,59.6258026 100.5,37.8901249 Z" id="Path-20" fill="#384708"></path>
            <path d="M161.5,16.8901249 C165.722932,2.39967305 172.222932,-2.76699362 181,1.39012486 C197.627293,13.7104306 206.127293,23.2104306 206.5,29.8901249 C207.228291,42.9426243 185.743887,46.1884126 194,58.8901249 C215.890678,92.568091 238.726682,76.12578 248,95.8901249 C257.273318,115.65447 251.516537,122.136631 242.5,138.390125 C240.442772,142.098548 252.045853,154.557554 248,158.890125 C242.816169,164.441319 226.482836,171.107985 199,178.890125 C219.977338,156.710087 225.977338,136.210087 217,117.390125 C203.533993,89.1601818 179.850585,97.5920839 168.5,77.3901249 C157.149415,57.1881658 155.165602,38.6258026 161.5,16.8901249 Z" id="Path-20" fill="#384708"></path>
            <path d="M240.5,158.890125 C244.722932,144.399673 255.556265,135.399673 273,131.890125 C278.29396,143.210431 281.127293,152.210431 281.5,158.890125 C282.228291,171.942624 264.743887,188.188413 273,200.890125 C294.890678,234.568091 317.726682,218.12578 327,237.890125 C336.273318,257.65447 336.016537,290.136631 327,306.390125 C320.988976,317.225787 302.988976,316.059121 273,302.890125 C297.310672,292.710087 304.977338,278.210087 296,259.390125 C282.533993,231.160182 258.850585,239.592084 247.5,219.390125 C236.149415,199.188166 234.165602,180.625803 240.5,158.890125 Z" id="Path-20" fill="#384708" transform="translate(285.398573, 222.808525) scale(-1, 1) rotate(-29.000000) translate(-285.398573, -222.808525) "></path>
            <polygon id="Path-21" fill="#66733F" points="20 123.390125 20 136.390125 32.5 136.390125"></polygon>
            <polygon id="Path-21" fill="#66733F" points="319 1.39012486 319 14.3901249 330 14.3901249 331.5 3.89012486"></polygon>
            <polygon id="Path-21" fill="#66733F" points="332 33.3901249 332 46.3901249 344.5 46.3901249"></polygon>
            <polygon id="Path-21" fill="#66733F" points="0 250.390125 0 263.390125 11 263.390125 12.5 252.890125"></polygon>
            <polygon id="Path-21" fill="#66733F" points="372 388.390125 372 401.390125 384.5 401.390125"></polygon>
            <polygon id="Path-21" fill="#66733F" points="60 246.390125 72.5 246.390125 72.5 233.390125"></polygon>
            <polygon id="Path-21" fill="#66733F" points="181 292.390125 193.5 292.390125 193.5 279.390125"></polygon>
        </g>
    </g>
</svg>