<?xml version="1.0" encoding="UTF-8"?>
<svg width="850px" height="850px" viewBox="0 0 850 850" version="1.1" xmlns="http://www.w3.org/2000/svg" xmlns:xlink="http://www.w3.org/1999/xlink">
    <title>soup6</title>
    <g id="Page-4" stroke="none" stroke-width="1" fill="none" fill-rule="evenodd">
        <g id="Group-22" transform="translate(187.500000, 229.500000)">
            <path d="M70,115.25 C84.8421857,119.021375 93.816851,134.110647 90.045476,148.952833 C89.886082,149.580126 89.7047736,150.201645 89.5018739,150.816246 C87.5006246,156.878538 86.5,161.273123 86.5,164 C86.5,167.122802 87.8122871,172.854555 90.4368614,181.195261 C94.8003048,195.062058 87.0963427,209.840603 73.2295537,214.204073 C72.1708922,214.537202 71.0922212,214.803042 70,215 C53.9386942,217.896301 38.5705174,207.223956 35.6742164,191.16265 C35.5751905,190.613507 35.4917386,190.061669 35.423954,189.507801 C33.8079847,176.302315 33,167.799715 33,164 C33,160.245284 33.7889603,151.898415 35.366881,138.959392 C37.2357762,123.634171 51.1743781,112.725684 66.4995965,114.594603 C67.6791416,114.738449 68.8483146,114.957359 70,115.25 Z" id="Rectangle" fill="#FAE8CE" transform="translate(66.750000, 164.000000) rotate(20.000000) translate(-66.750000, -164.000000) "></path>
            <path d="M127,202.25 C141.842186,206.021375 150.816851,221.110647 147.045476,235.952833 C146.886082,236.580126 146.704774,237.201645 146.501874,237.816246 C144.500625,243.878538 143.5,248.273123 143.5,251 C143.5,254.122802 144.812287,259.854555 147.436861,268.195261 C151.800305,282.062058 144.096343,296.840603 130.229554,301.204073 C129.170892,301.537202 128.092221,301.803042 127,302 C110.938694,304.896301 95.5705174,294.223956 92.6742164,278.16265 C92.5751905,277.613507 92.4917386,277.061669 92.423954,276.507801 C90.8079847,263.302315 90,254.799715 90,251 C90,247.245284 90.7889603,238.898415 92.366881,225.959392 C94.2357762,210.634171 108.174378,199.725684 123.499597,201.594603 C124.679142,201.738449 125.848315,201.957359 127,202.25 Z" id="Rectangle" fill="#FAE8CE" transform="translate(123.750000, 251.000000) rotate(-30.000000) translate(-123.750000, -251.000000) "></path>
            <path d="M47,241.25 C61.8421857,245.021375 70.816851,260.110647 67.045476,274.952833 C66.886082,275.580126 66.7047736,276.201645 66.5018739,276.816246 C64.5006246,282.878538 63.5,287.273123 63.5,290 C63.5,293.122802 64.8122871,298.854555 67.4368614,307.195261 C71.8003048,321.062058 64.0963427,335.840603 50.2295537,340.204073 C49.1708922,340.537202 48.0922212,340.803042 47,341 C30.9386942,343.896301 15.5705174,333.223956 12.6742164,317.16265 C12.5751905,316.613507 12.4917386,316.061669 12.423954,315.507801 C10.8079847,302.302315 10,293.799715 10,290 C10,286.245284 10.7889603,277.898415 12.366881,264.959392 C14.2357762,249.634171 28.1743781,238.725684 43.4995965,240.594603 C44.6791416,240.738449 45.8483146,240.957359 47,241.25 Z" id="Rectangle" fill="#FAE8CE" transform="translate(43.750000, 290.000000) rotate(-10.000000) translate(-43.750000, -290.000000) "></path>
            <path d="M385,32.25 C399.842186,36.0213751 408.816851,51.1106475 405.045476,65.9528332 C404.886082,66.5801257 404.704774,67.201645 404.501874,67.8162456 C402.500625,73.8785381 401.5,78.2731229 401.5,81 C401.5,84.1228017 402.812287,89.8545552 405.436861,98.1952605 C409.800305,112.062058 402.096343,126.840603 388.229554,131.204073 C387.170892,131.537202 386.092221,131.803042 385,132 C368.938694,134.896301 353.570517,124.223956 350.674216,108.16265 C350.575191,107.613507 350.491739,107.061669 350.423954,106.507801 C348.807985,93.3023152 348,84.799715 348,81 C348,77.2452844 348.78896,68.898415 350.366881,55.9593918 C352.235776,40.6341706 366.174378,29.7256841 381.499597,31.5946026 C382.679142,31.7384487 383.848315,31.9573586 385,32.25 Z" id="Rectangle" fill="#FAE8CE" transform="translate(381.750000, 81.000000) scale(-1, 1) rotate(20.000000) translate(-381.750000, -81.000000) "></path>
            <path d="M455,118.25 C469.842186,122.021375 478.816851,137.110647 475.045476,151.952833 C474.886082,152.580126 474.704774,153.201645 474.501874,153.816246 C472.500625,159.878538 471.5,164.273123 471.5,167 C471.5,170.122802 472.812287,175.854555 475.436861,184.195261 C479.800305,198.062058 472.096343,212.840603 458.229554,217.204073 C457.170892,217.537202 456.092221,217.803042 455,218 C438.938694,220.896301 423.570517,210.223956 420.674216,194.16265 C420.575191,193.613507 420.491739,193.061669 420.423954,192.507801 C418.807985,179.302315 418,170.799715 418,167 C418,163.245284 418.78896,154.898415 420.366881,141.959392 C422.235776,126.634171 436.174378,115.725684 451.499597,117.594603 C452.679142,117.738449 453.848315,117.957359 455,118.25 Z" id="Rectangle" fill="#FAE8CE" transform="translate(451.750000, 167.000000) scale(-1, 1) rotate(-30.000000) translate(-451.750000, -167.000000) "></path>
            <path d="M358,240.25 C372.842186,244.021375 381.816851,259.110647 378.045476,273.952833 C377.886082,274.580126 377.704774,275.201645 377.501874,275.816246 C375.500625,281.878538 374.5,286.273123 374.5,289 C374.5,292.122802 375.812287,297.854555 378.436861,306.195261 C382.800305,320.062058 375.096343,334.840603 361.229554,339.204073 C360.170892,339.537202 359.092221,339.803042 358,340 C341.938694,342.896301 326.570517,332.223956 323.674216,316.16265 C323.575191,315.613507 323.491739,315.061669 323.423954,314.507801 C321.807985,301.302315 321,292.799715 321,289 C321,285.245284 321.78896,276.898415 323.366881,263.959392 C325.235776,248.634171 339.174378,237.725684 354.499597,239.594603 C355.679142,239.738449 356.848315,239.957359 358,240.25 Z" id="Rectangle" fill="#FAE8CE" transform="translate(354.750000, 289.000000) scale(-1, 1) rotate(-30.000000) translate(-354.750000, -289.000000) "></path>
            <path d="M441,235.25 C455.842186,239.021375 464.816851,254.110647 461.045476,268.952833 C460.886082,269.580126 460.704774,270.201645 460.501874,270.816246 C458.500625,276.878538 457.5,281.273123 457.5,284 C457.5,287.122802 458.812287,292.854555 461.436861,301.195261 C465.800305,315.062058 458.096343,329.840603 444.229554,334.204073 C443.170892,334.537202 442.092221,334.803042 441,335 C424.938694,337.896301 409.570517,327.223956 406.674216,311.16265 C406.575191,310.613507 406.491739,310.061669 406.423954,309.507801 C404.807985,296.302315 404,287.799715 404,284 C404,280.245284 404.78896,271.898415 406.366881,258.959392 C408.235776,243.634171 422.174378,232.725684 437.499597,234.594603 C438.679142,234.738449 439.848315,234.957359 441,235.25 Z" id="Rectangle" fill="#FAE8CE" transform="translate(437.750000, 284.000000) scale(-1, 1) rotate(-10.000000) translate(-437.750000, -284.000000) "></path>
            <polygon id="Path-21" fill="#66733F" points="43.5 81 43.5 94 54.5 94 56 83.5"></polygon>
            <polygon id="Path-21" fill="#66733F" transform="translate(302.750000, 9.500000) scale(-1, 1) rotate(31.000000) translate(-302.750000, -9.500000) " points="296.5 3 296.5 16 309 16"></polygon>
            <polygon id="Path-21" fill="#66733F" points="358.5 208 358.5 221 369.5 221 371 210.5"></polygon>
            <polygon id="Path-21" fill="#66733F" points="335.5 230 335.5 243 348 243"></polygon>
            <polygon id="Path-21" fill="#66733F" points="395.5 346 395.5 359 406.5 359 408 348.5"></polygon>
        </g>
    </g>
</svg>