<?xml version="1.0" encoding="UTF-8"?>
<svg width="850px" height="850px" viewBox="0 0 850 850" version="1.1" xmlns="http://www.w3.org/2000/svg" xmlns:xlink="http://www.w3.org/1999/xlink">
    <title>soup8</title>
    <g id="Page-4" stroke="none" stroke-width="1" fill="none" fill-rule="evenodd">
        <g id="Group-32" transform="translate(146.311869, 261.500000)">
            <g id="Group-29" transform="translate(70.000000, 0.000000)">
                <path d="M102.688131,228 C57.6306142,196.318757 28.1306142,167.985424 14.1881309,143 C0.245647467,118.014576 -3.4210192,87.0145762 3.18813085,50 C7.37180186,46.4941291 10.2051352,43.4941291 11.6881309,41 C13.1711265,38.5058709 14.0044598,35.3392043 14.1881309,31.5 L27.3160918,20.4725128 C28.2671913,21.3669225 30.057871,20.7094182 32.6881309,18.5 C35.3183907,16.2905818 39.2420065,12.1480778 44.4589784,6.0724881 L51.6881309,0 C43.6881309,56.3333333 45.8547975,96.1666667 58.1881309,119.5 C70.5214642,142.833333 98.3547975,172.333333 141.688131,208 C134.523694,210.627268 129.69036,212.793935 127.188131,214.5 C124.685902,216.206065 122.185902,219.039399 119.688131,223 L102.688131,228 Z" id="Path-26" fill="#F3DABE"></path>
                <path d="M39.6881309,9.5 C33.0214642,55.5 32.6881309,89.1666667 38.6881309,110.5 C44.6881309,131.833333 61.3547975,157.166667 88.6881309,186.5 C59.029942,156.646461 41.6966087,131.646461 36.6881309,111.5 C31.679653,91.3535386 31.179653,58.5202053 35.1881309,13 L39.6881309,9.5 Z" id="Path-27" fill="#E0BC93"></path>
                <path d="M26.6881309,18.5 C16.3547975,66.8333333 16.3547975,102.166667 26.6881309,124.5 C37.0214642,146.833333 46.0214642,162.833333 53.6881309,172.5 C45.3547975,165.833333 35.5214642,150.166667 24.1881309,125.5 C12.8547975,100.833333 12.1881309,66.3333333 22.1881309,22 L26.6881309,18.5 Z" id="Path-27" fill="#E0BC93"></path>
                <polygon id="Path-28" fill="#E0BC93" points="123.688131 217.5 98.6881309 198.5 126.188131 215.5"></polygon>
                <polygon id="Path-28" fill="#E0BC93" points="117.688131 225.5 92.6881309 206.5 120.188131 223.5"></polygon>
            </g>
            <g id="Group-29" transform="translate(124.000000, 229.000000) rotate(-35.000000) translate(-124.000000, -229.000000) translate(53.000000, 115.000000)">
                <path d="M102.688131,228 C57.6306142,196.318757 28.1306142,167.985424 14.1881309,143 C0.245647467,118.014576 -3.4210192,87.0145762 3.18813085,50 C7.37180186,46.4941291 10.2051352,43.4941291 11.6881309,41 C13.1711265,38.5058709 14.0044598,35.3392043 14.1881309,31.5 L27.3160918,20.4725128 C28.2671913,21.3669225 30.057871,20.7094182 32.6881309,18.5 C35.3183907,16.2905818 39.2420065,12.1480778 44.4589784,6.0724881 L51.6881309,0 C43.6881309,56.3333333 45.8547975,96.1666667 58.1881309,119.5 C70.5214642,142.833333 98.3547975,172.333333 141.688131,208 C134.523694,210.627268 129.69036,212.793935 127.188131,214.5 C124.685902,216.206065 122.185902,219.039399 119.688131,223 L102.688131,228 Z" id="Path-26" fill="#F3DABE"></path>
                <path d="M39.6881309,9.5 C33.0214642,55.5 32.6881309,89.1666667 38.6881309,110.5 C44.6881309,131.833333 61.3547975,157.166667 88.6881309,186.5 C59.029942,156.646461 41.6966087,131.646461 36.6881309,111.5 C31.679653,91.3535386 31.179653,58.5202053 35.1881309,13 L39.6881309,9.5 Z" id="Path-27" fill="#E0BC93"></path>
                <path d="M26.6881309,18.5 C16.3547975,66.8333333 16.3547975,102.166667 26.6881309,124.5 C37.0214642,146.833333 46.0214642,162.833333 53.6881309,172.5 C45.3547975,165.833333 35.5214642,150.166667 24.1881309,125.5 C12.8547975,100.833333 12.1881309,66.3333333 22.1881309,22 L26.6881309,18.5 Z" id="Path-27" fill="#E0BC93"></path>
                <polygon id="Path-28" fill="#E0BC93" points="123.688131 217.5 98.6881309 198.5 126.188131 215.5"></polygon>
                <polygon id="Path-28" fill="#E0BC93" points="117.688131 225.5 92.6881309 206.5 120.188131 223.5"></polygon>
            </g>
            <g id="Group-29" transform="translate(435.000000, 156.000000) scale(-1, -1) translate(-435.000000, -156.000000) translate(364.000000, 42.000000)">
                <path d="M102.688131,228 C57.6306142,196.318757 28.1306142,167.985424 14.1881309,143 C0.245647467,118.014576 -3.4210192,87.0145762 3.18813085,50 C7.37180186,46.4941291 10.2051352,43.4941291 11.6881309,41 C13.1711265,38.5058709 14.0044598,35.3392043 14.1881309,31.5 L27.3160918,20.4725128 C28.2671913,21.3669225 30.057871,20.7094182 32.6881309,18.5 C35.3183907,16.2905818 39.2420065,12.1480778 44.4589784,6.0724881 L51.6881309,0 C43.6881309,56.3333333 45.8547975,96.1666667 58.1881309,119.5 C70.5214642,142.833333 98.3547975,172.333333 141.688131,208 C134.523694,210.627268 129.69036,212.793935 127.188131,214.5 C124.685902,216.206065 122.185902,219.039399 119.688131,223 L102.688131,228 Z" id="Path-26" fill="#F3DABE"></path>
                <path d="M39.6881309,9.5 C33.0214642,55.5 32.6881309,89.1666667 38.6881309,110.5 C44.6881309,131.833333 61.3547975,157.166667 88.6881309,186.5 C59.029942,156.646461 41.6966087,131.646461 36.6881309,111.5 C31.679653,91.3535386 31.179653,58.5202053 35.1881309,13 L39.6881309,9.5 Z" id="Path-27" fill="#E0BC93"></path>
                <path d="M26.6881309,18.5 C16.3547975,66.8333333 16.3547975,102.166667 26.6881309,124.5 C37.0214642,146.833333 46.0214642,162.833333 53.6881309,172.5 C45.3547975,165.833333 35.5214642,150.166667 24.1881309,125.5 C12.8547975,100.833333 12.1881309,66.3333333 22.1881309,22 L26.6881309,18.5 Z" id="Path-27" fill="#E0BC93"></path>
                <polygon id="Path-28" fill="#E0BC93" points="123.688131 217.5 98.6881309 198.5 126.188131 215.5"></polygon>
                <polygon id="Path-28" fill="#E0BC93" points="117.688131 225.5 92.6881309 206.5 120.188131 223.5"></polygon>
            </g>
            <path d="M192.188131,135.5 C199.09169,135.5 204.688131,144.678163 204.688131,156 C204.688131,167.321837 199.09169,176.5 192.188131,176.5 C185.284571,176.5 179.688131,167.321837 179.688131,156 C179.688131,144.678163 185.284571,135.5 192.188131,135.5 Z M192.688131,137.5 C187.717568,137.5 183.688131,144.439586 183.688131,153 C183.688131,161.560414 187.717568,168.5 192.688131,168.5 C197.658694,168.5 201.688131,161.560414 201.688131,153 C201.688131,144.439586 197.658694,137.5 192.688131,137.5 Z" id="Combined-Shape" fill="#EAEB62" transform="translate(192.188131, 156.000000) rotate(44.000000) translate(-192.188131, -156.000000) "></path>
            <path d="M270.188131,108.5 C277.09169,108.5 282.688131,117.678163 282.688131,129 C282.688131,140.321837 277.09169,149.5 270.188131,149.5 C263.284571,149.5 257.688131,140.321837 257.688131,129 C257.688131,117.678163 263.284571,108.5 270.188131,108.5 Z M270.688131,110.5 C265.717568,110.5 261.688131,117.439586 261.688131,126 C261.688131,134.560414 265.717568,141.5 270.688131,141.5 C275.658694,141.5 279.688131,134.560414 279.688131,126 C279.688131,117.439586 275.658694,110.5 270.688131,110.5 Z" id="Combined-Shape" fill="#EAEB62" transform="translate(270.188131, 129.000000) rotate(323.000000) translate(-270.188131, -129.000000) "></path>
            <path d="M449.188131,281.5 C456.09169,281.5 461.688131,290.678163 461.688131,302 C461.688131,313.321837 456.09169,322.5 449.188131,322.5 C442.284571,322.5 436.688131,313.321837 436.688131,302 C436.688131,290.678163 442.284571,281.5 449.188131,281.5 Z M449.688131,283.5 C444.717568,283.5 440.688131,290.439586 440.688131,299 C440.688131,307.560414 444.717568,314.5 449.688131,314.5 C454.658694,314.5 458.688131,307.560414 458.688131,299 C458.688131,290.439586 454.658694,283.5 449.688131,283.5 Z" id="Combined-Shape" fill="#EAEB62" transform="translate(449.188131, 302.000000) rotate(323.000000) translate(-449.188131, -302.000000) "></path>
            <circle id="Oval" fill="#B7442F" cx="495.188131" cy="98" r="7.5"></circle>
            <circle id="Oval" fill="#B7442F" cx="518.188131" cy="107" r="5.5"></circle>
            <circle id="Oval" fill="#B7442F" cx="351.188131" cy="87" r="6.5"></circle>
            <circle id="Oval" fill="#FFD564" cx="147.688131" cy="363.5" r="14"></circle>
            <circle id="Oval" fill="#FFD564" cx="135.688131" cy="332.5" r="5"></circle>
            <circle id="Oval" fill="#FFD564" cx="118.688131" cy="368.5" r="5"></circle>
        </g>
    </g>
</svg>