<?xml version="1.0" encoding="UTF-8"?>
<svg width="850px" height="850px" viewBox="0 0 850 850" version="1.1" xmlns="http://www.w3.org/2000/svg" xmlns:xlink="http://www.w3.org/1999/xlink">
    <title>soup2</title>
    <g id="Page-4" stroke="none" stroke-width="1" fill="none" fill-rule="evenodd">
        <g id="Group-4" transform="translate(88.500000, 51.310626)">
            <circle id="bowl_outer" fill="#6696B4" cx="336" cy="373.189374" r="336"></circle>
            <circle id="bowl_inner" fill="#354C5B" cx="336" cy="373.189374" r="316"></circle>
            <circle id="broth" fill="#B38357" cx="336" cy="373.189374" r="288"></circle>
            <path d="M490,203.808865 C564.333333,78.0625372 607,13.1893735 618,9.1893735 C634.5,3.1893735 641.5,-2.8106265 647,3.6893735 C652.5,10.1893735 636.5,13.1893735 636.5,26.1893735 C636.5,34.8560402 593.333333,96.6893735 507,211.689374 L490,203.808865 Z" id="spoon1" fill="#655144"></path>
            <path d="M505.5,210.189374 C594.5,72.5227068 641.666667,3.6893735 647,3.6893735 C655,3.6893735 651.5,17.6893735 651.5,30.6893735 C651.5,39.3560402 608,103.022707 521,221.689374 L505.5,210.189374 Z" id="spoon1" fill="#8A7365"></path>
        </g>
        <g id="Group-9" transform="translate(181.838602, 322.500000)">
            <g id="Group-39" transform="translate(374.661398, -0.000000)">
                <polygon id="Path-12" fill="#DF7437" points="1.66977543e-13 63 43.5 -7.76288755e-17 72.5 3.5 94 28.5 91.2267995 31.442004 36.5 89.5"></polygon>
                <polygon id="Path-12" fill="#B9602C" points="11 74.5 73.5 2 94 30.5 36.5 91.5"></polygon>
            </g>
            <polygon id="Path-12" fill="#DF7437" points="346.661398 214.5 366.661398 160.5 414.661398 176.5 407.661398 223.5"></polygon>
            <polygon id="Path-12" fill="#B9602C" points="390.161398 220.5 402.661398 176.5 414.661398 176.5 407.661398 223.5"></polygon>
            <g id="Group-38" transform="translate(414.661398, 91.500000)">
                <polygon id="Path-12" fill="#DF7437" points="0 44.5 34 0 87 36 30.5 84.5"></polygon>
                <polygon id="Path-12" fill="#B9602C" points="2.13162821e-13 44.5 7.75651229 34.3480942 41.2240731 75.2943797 30.5 84.5"></polygon>
            </g>
            <g id="Group-5" transform="translate(0.000000, 71.000000)">
                <path d="M34.6613984,141 C13.1388971,118.509097 1.63889713,95.0090968 0.161398384,70.5 C-1.31610036,45.9909032 7.35056631,22.4909032 26.1613984,0 L112.161398,22 L118.661398,102.5 L34.6613984,141 Z" id="Path-13" fill="#DCAD3B"></path>
                <path d="M34.6613984,141 C13.1388971,118.509097 1.63889713,95.0090968 0.161398384,70.5 C-1.31610036,45.9909032 7.35056631,22.4909032 26.1613984,0 L43.6031573,4.46184529 C30.5442494,33.42685 24.3969964,55.4395682 25.1613984,70.5 C25.9258003,85.5604318 34.2628032,106.690694 50.172407,133.890788 L34.6613984,141 Z" id="Path-13" fill="#174D26"></path>
            </g>
            <g id="Group-5" transform="translate(126.500000, 211.500000) rotate(15.000000) translate(-126.500000, -211.500000) translate(67.000000, 141.000000)">
                <path d="M34.6613984,141 C13.1388971,118.509097 1.63889713,95.0090968 0.161398384,70.5 C-1.31610036,45.9909032 7.35056631,22.4909032 26.1613984,0 L112.161398,22 L118.661398,102.5 L34.6613984,141 Z" id="Path-13" fill="#DCAD3B"></path>
                <path d="M34.6613984,141 C13.1388971,118.509097 1.63889713,95.0090968 0.161398384,70.5 C-1.31610036,45.9909032 7.35056631,22.4909032 26.1613984,0 L43.6031573,4.46184529 C30.5442494,33.42685 24.3969964,55.4395682 25.1613984,70.5 C25.9258003,85.5604318 34.2628032,106.690694 50.172407,133.890788 L34.6613984,141 Z" id="Path-13" fill="#174D26"></path>
            </g>
        </g>
        <g id="Group-30" transform="translate(454.557019, 520.670221) rotate(166.000000) translate(-454.557019, -520.670221) translate(298.057019, 418.670221)" fill="#76583D">
            <path d="M305.287961,53.8438344 L312.223026,58.4777796 C285.253329,62.3394005 261.943806,72.7657772 242.294455,89.7569095 C229.325883,100.971057 222.101275,116.825762 214.860098,132.922468 L213.872021,135.11856 C204.968666,154.889454 195.645969,174.723708 175.255494,186.490515 C150.082068,201.017437 106.737912,206.423707 45.2230263,202.709323 L45.2230263,195.179162 C105.326922,200.199269 147.515234,194.986081 171.787961,179.539597 C208.197052,156.369871 208.197052,108.871933 237.671078,83.964478 C257.320429,67.3595078 279.85939,57.3192933 305.287961,53.8438344 Z M294.364962,39.7836749 L301.300027,44.41762 C274.33033,48.279241 251.020806,58.7056177 231.371456,75.69675 C218.402884,86.9108973 211.178276,102.765603 203.937099,118.862308 L202.949022,121.058401 C194.045667,140.829295 184.72297,160.663549 164.332495,172.430355 C139.159068,186.957278 95.8149124,192.363547 34.300027,188.649164 L34.300027,181.119003 C94.4039231,186.13911 136.592235,180.925922 160.864962,165.479438 C197.274053,142.309712 197.274053,94.8117738 226.748079,69.9043185 C246.39743,53.2993483 268.936391,43.2591337 294.364962,39.7836749 Z M281.259449,27.2099673 L288.194514,31.8425278 C261.224817,35.702995 237.915294,46.1262563 218.265943,63.1123117 C205.592112,74.0683175 198.404121,89.4550197 191.325345,105.168224 L190.337776,107.362471 C181.281644,127.488247 171.995059,147.835884 151.226982,159.817014 C126.053556,174.339595 82.7093997,178.586109 21.1945144,172.556555 L21.1945144,165.028644 C81.2984105,172.363532 123.486722,168.310042 147.759449,152.868173 C184.16854,129.70537 184.16854,82.2216241 213.642566,57.321611 C233.291917,40.7216023 255.830878,30.6843877 281.259449,27.2099673 Z M269.245193,13.8930337 L276.180258,18.527982 C249.210561,22.3904388 225.901038,32.8190724 206.251687,49.8138826 C193.577856,60.7755353 186.389865,76.1701679 179.311089,91.8914713 L177.829253,95.1853524 C168.925898,114.960526 159.603201,134.799073 139.212726,146.568427 C114.0393,161.098494 70.6951437,164.574705 9.18025837,156.997061 L9.18025837,149.46527 C69.2841545,158.348921 111.472466,155.065832 135.745193,139.616005 C155.042012,127.333392 164.111516,108.215505 172.762188,89.2489708 L173.740247,87.1028379 C181.070177,71.0173225 188.364999,55.2309784 201.62831,44.0201973 C221.277661,27.4116328 243.816622,17.3692449 269.245193,13.8930337 Z M260.383747,0.331570111 L267.318811,4.95018345 C240.349114,8.7990279 217.039591,19.1909079 197.39024,36.1258235 C167.916214,61.5281969 168.111418,110.821089 130.351279,132.539377 C105.177853,147.018236 61.8336968,150.097311 0.318811457,141.776604 L0.318811457,134.271357 C60.4227076,143.893468 102.611019,141.006835 126.883747,125.611457 C145.816474,113.603062 154.904183,95.0380841 163.410567,76.491839 L164.39002,74.3523449 C171.887463,57.9559304 179.208811,41.7720783 192.766863,30.3525568 C212.416214,13.8025257 234.955175,3.79553012 260.383747,0.331570111 Z" id="Combined-Shape"></path>
        </g>
        <g id="Group-37" transform="translate(189.540933, 252.414490)">
            <path d="M71.9588589,154.209832 C64.8194622,167.028321 54.7497638,173.437565 41.7497638,173.437565 C4.62497294,173.437565 33.0439686,125.473127 87.2899975,81.7981189 C143.921059,36.202854 174.207287,17.9433229 181.249764,58.4375648 C182.583097,66.1042315 176.332198,74.0188706 162.497065,82.181482 C169.20642,75.2669794 169.727764,70.809728 164.061097,68.809728 C155.561097,65.809728 149.620455,83.0228336 142.574691,88.1897271 C138.000892,91.5438467 130.871226,96.6654994 121.185695,103.554685 C134.691794,108.195706 140.90596,113.991454 139.828194,120.941929 C138.211545,131.367643 124.960311,143.898403 115.091132,142.85831 C108.511678,142.164915 103.5432,134.230373 100.185695,119.054685 C88.556387,130.9855 81.0437329,137.840337 77.6477326,139.619194 C67.1477326,145.119194 64.9902908,148.522758 62.4902908,152.522758 C56.7327165,161.734877 59.8889058,162.297235 71.9588589,154.209832 Z" id="topping" fill="#E8BB7F" transform="translate(103.180520, 104.718782) rotate(52.000000) translate(-103.180520, -104.718782) "></path>
            <path d="M52.4590669,110.08551 C49.6289692,110.406815 47.7956359,111.073482 46.9590669,112.08551 C42.9305474,116.958956 18.8131509,114.177104 12.4590669,108.58551 C-0.0409330853,97.58551 -6.69505324,76.1671865 15.9590669,66.08551 C38.6131871,56.0038335 53.3287847,58.2537544 107.459067,70.08551 C161.589349,81.9172657 185.459067,85.08551 198.959067,106.08551 C212.459067,127.08551 193.959067,144.08551 180.459067,144.08551 C171.459067,144.08551 162.125734,140.752177 152.459067,134.08551 C170.804612,139.509602 181.804612,139.176268 185.459067,133.08551 C190.94075,123.949372 187.16023,114.043196 180.459067,110.08551 C153.660549,94.2583879 119.313442,93.1380303 104.959067,88.58551 C78.0433814,80.0491438 49.9854931,78.698866 33.4590669,83.08551 C16.9326407,87.472154 19.215403,95.0973374 22.9590669,102.08551 C25.4548428,106.744292 35.2881762,109.410958 52.4590669,110.08551 Z" id="Path-35" fill="#654419"></path>
        </g>
        <g id="Group-37" transform="translate(328.540933, 242.914490) rotate(-29.000000) translate(-328.540933, -242.914490) translate(225.540933, 138.414490)">
            <path d="M71.9588589,154.209832 C64.8194622,167.028321 54.7497638,173.437565 41.7497638,173.437565 C4.62497294,173.437565 33.0439686,125.473127 87.2899975,81.7981189 C143.921059,36.202854 174.207287,17.9433229 181.249764,58.4375648 C182.583097,66.1042315 176.332198,74.0188706 162.497065,82.181482 C169.20642,75.2669794 169.727764,70.809728 164.061097,68.809728 C155.561097,65.809728 149.620455,83.0228336 142.574691,88.1897271 C138.000892,91.5438467 130.871226,96.6654994 121.185695,103.554685 C134.691794,108.195706 140.90596,113.991454 139.828194,120.941929 C138.211545,131.367643 124.960311,143.898403 115.091132,142.85831 C108.511678,142.164915 103.5432,134.230373 100.185695,119.054685 C88.556387,130.9855 81.0437329,137.840337 77.6477326,139.619194 C67.1477326,145.119194 64.9902908,148.522758 62.4902908,152.522758 C56.7327165,161.734877 59.8889058,162.297235 71.9588589,154.209832 Z" id="topping" fill="#E8BB7F" transform="translate(103.180520, 104.718782) rotate(52.000000) translate(-103.180520, -104.718782) "></path>
            <path d="M52.4590669,110.08551 C49.6289692,110.406815 47.7956359,111.073482 46.9590669,112.08551 C42.9305474,116.958956 18.8131509,114.177104 12.4590669,108.58551 C-0.0409330853,97.58551 -6.69505324,76.1671865 15.9590669,66.08551 C38.6131871,56.0038335 53.3287847,58.2537544 107.459067,70.08551 C161.589349,81.9172657 185.459067,85.08551 198.959067,106.08551 C212.459067,127.08551 193.959067,144.08551 180.459067,144.08551 C171.459067,144.08551 162.125734,140.752177 152.459067,134.08551 C170.804612,139.509602 181.804612,139.176268 185.459067,133.08551 C190.94075,123.949372 187.16023,114.043196 180.459067,110.08551 C153.660549,94.2583879 119.313442,93.1380303 104.959067,88.58551 C78.0433814,80.0491438 49.9854931,78.698866 33.4590669,83.08551 C16.9326407,87.472154 19.215403,95.0973374 22.9590669,102.08551 C25.4548428,106.744292 35.2881762,109.410958 52.4590669,110.08551 Z" id="Path-35" fill="#654419"></path>
        </g>
        <g id="Group-37" transform="translate(469.540933, 303.914490) rotate(-5.000000) translate(-469.540933, -303.914490) translate(366.540933, 199.414490)">
            <path d="M71.9588589,154.209832 C64.8194622,167.028321 54.7497638,173.437565 41.7497638,173.437565 C4.62497294,173.437565 33.0439686,125.473127 87.2899975,81.7981189 C143.921059,36.202854 174.207287,17.9433229 181.249764,58.4375648 C182.583097,66.1042315 176.332198,74.0188706 162.497065,82.181482 C169.20642,75.2669794 169.727764,70.809728 164.061097,68.809728 C155.561097,65.809728 149.620455,83.0228336 142.574691,88.1897271 C138.000892,91.5438467 130.871226,96.6654994 121.185695,103.554685 C134.691794,108.195706 140.90596,113.991454 139.828194,120.941929 C138.211545,131.367643 124.960311,143.898403 115.091132,142.85831 C108.511678,142.164915 103.5432,134.230373 100.185695,119.054685 C88.556387,130.9855 81.0437329,137.840337 77.6477326,139.619194 C67.1477326,145.119194 64.9902908,148.522758 62.4902908,152.522758 C56.7327165,161.734877 59.8889058,162.297235 71.9588589,154.209832 Z" id="topping" fill="#E8BB7F" transform="translate(103.180520, 104.718782) rotate(52.000000) translate(-103.180520, -104.718782) "></path>
            <path d="M52.4590669,110.08551 C49.6289692,110.406815 47.7956359,111.073482 46.9590669,112.08551 C42.9305474,116.958956 18.8131509,114.177104 12.4590669,108.58551 C-0.0409330853,97.58551 -6.69505324,76.1671865 15.9590669,66.08551 C38.6131871,56.0038335 53.3287847,58.2537544 107.459067,70.08551 C161.589349,81.9172657 185.459067,85.08551 198.959067,106.08551 C212.459067,127.08551 193.959067,144.08551 180.459067,144.08551 C171.459067,144.08551 162.125734,140.752177 152.459067,134.08551 C170.804612,139.509602 181.804612,139.176268 185.459067,133.08551 C190.94075,123.949372 187.16023,114.043196 180.459067,110.08551 C153.660549,94.2583879 119.313442,93.1380303 104.959067,88.58551 C78.0433814,80.0491438 49.9854931,78.698866 33.4590669,83.08551 C16.9326407,87.472154 19.215403,95.0973374 22.9590669,102.08551 C25.4548428,106.744292 35.2881762,109.410958 52.4590669,110.08551 Z" id="Path-35" fill="#654419"></path>
        </g>
    </g>
</svg>