<?xml version="1.0" encoding="UTF-8"?>
<svg width="800px" height="600px" viewBox="0 0 800 600" version="1.1" xmlns="http://www.w3.org/2000/svg" xmlns:xlink="http://www.w3.org/1999/xlink">
    <title>spoon_grey</title>
    <g id="Page-4" stroke="none" stroke-width="1" fill="none" fill-rule="evenodd">
        <path d="M681.5,44.5 C644.5,54.5 326.5,342 297,357.5 C267.5,373 160,355 111,384.5 C62,414 0.0338869929,501.317642 36,534.5 C71.966113,567.682358 198.493313,565.800756 267.5,534.5 C336.506687,503.199244 290.5,423.5 334.5,396 C378.5,368.5 769.5,104.5 774.5,77.5 C779.5,50.5 718.5,34.5 681.5,44.5 Z" id="spoon" fill="#ABB1B3"></path>
        <path d="M51,519 C27.5,489 93.5519018,419.76164 136.5,399 C165.132065,385.158907 213.132065,381.99224 280.5,389.5 C297.731477,454.051608 286.231477,496.051608 246,515.5 C185.652784,544.672588 74.5,549 51,519 Z" id="shadow" fill="#9BA4A7"></path>
    </g>
</svg>