<?xml version="1.0" encoding="UTF-8"?>
<svg width="800px" height="600px" viewBox="0 0 800 600" version="1.1" xmlns="http://www.w3.org/2000/svg" xmlns:xlink="http://www.w3.org/1999/xlink">
    <title>spoon_yellow</title>
    <g id="Page-4" stroke="none" stroke-width="1" fill="none" fill-rule="evenodd">
        <path d="M653,118 C616,128 485.5,255 456,270.5 C426.5,286 339.5,290 283.5,304 C227.5,318 106.5,366.5 106.5,413.5 C106.5,460.5 285.5,507.5 383.5,472.5 C481.5,437.5 464,341 510.5,299 C557,257 668.5,151 702.5,140.5 C736.5,130 690,108 653,118 Z" id="spoon" fill="#E0D584"></path>
        <path d="M136,414 C114,403 138,387.5 213.5,348.5 C263.833333,322.5 341.166667,306.333333 445.5,300 C458.166667,341.333333 421.333333,373.5 335,396.5 C205.5,431 158,425 136,414 Z" id="shadow" fill="#C4B85F"></path>
    </g>
</svg>