<?xml version="1.0" encoding="UTF-8"?>
<svg width="800px" height="600px" viewBox="0 0 800 600" version="1.1" xmlns="http://www.w3.org/2000/svg" xmlns:xlink="http://www.w3.org/1999/xlink">
    <title>spoon_blue</title>
    <g id="Page-4" stroke="none" stroke-width="1" fill="none" fill-rule="evenodd">
        <path d="M709,34 C672,44 295.5,346 266,361.5 C236.5,377 164.5,340 115.5,369.5 C66.5,399 18.5,465 68,527 C117.5,589 223.5,577 266,527 C308.5,477 260.5,423 304.5,395.5 C348.5,368 746.5,98 751.5,71 C756.5,44 746,24 709,34 Z" id="spoon" fill="#8DD9E1"></path>
        <path d="M82,514.5 C48.5,476 75.5519018,411.76164 118.5,391 C147.132065,377.158907 190.465399,377.158907 248.5,391 C268.5,459 262,503.833333 229,525.5 C179.5,558 115.5,553 82,514.5 Z" id="shadow" fill="#70C1CA"></path>
    </g>
</svg>