<?xml version="1.0" encoding="UTF-8"?>
<svg width="806px" height="806px" viewBox="0 0 806 806" version="1.1" xmlns="http://www.w3.org/2000/svg" xmlns:xlink="http://www.w3.org/1999/xlink">
    <title>spoon_grey</title>
    <g id="Page-4" stroke="none" stroke-width="1" fill="none" fill-rule="evenodd">
        <path d="M685.5,183.5 C648.5,193.5 330.5,481 301,496.5 C271.5,512 164,494 115,523.5 C66,553 4.03388699,640.317642 40,673.5 C75.966113,706.682358 202.493313,704.800756 271.5,673.5 C340.506687,642.199244 294.5,562.5 338.5,535 C382.5,507.5 773.5,243.5 778.5,216.5 C783.5,189.5 722.5,173.5 685.5,183.5 Z" id="spoon" fill="#ABB1B3"></path>
        <path d="M55,658 C31.5,628 97.5519018,558.76164 140.5,538 C169.132065,524.158907 217.132065,520.99224 284.5,528.5 C301.731477,593.051608 290.231477,635.051608 250,654.5 C189.652784,683.672588 78.5,688 55,658 Z" id="shadow" fill="#9BA4A7"></path>
    </g>
</svg>